<?xml version="1.0" encoding="UTF-8"?> <svg xmlns="http://www.w3.org/2000/svg" width="462" height="541" viewBox="0 0 462 541" fill="none"> <g clip-path="url(#clip0_1911_22749)"> <rect x="2" y="2" width="458" height="537" rx="19" fill="white"></rect> <path d="M458.06 57.6799H3.76678C3.29427 57.6696 2.84449 57.4681 2.51385 57.1186C2.18322 56.7692 1.99805 56.2997 1.99805 55.8107C1.99805 55.3216 2.18322 54.8521 2.51385 54.5027C2.84449 54.1532 3.29427 53.9518 3.76678 53.9414H458.06C458.532 53.9518 458.982 54.1532 459.313 54.5027C459.643 54.8521 459.829 55.3216 459.829 55.8107C459.829 56.2997 459.643 56.7692 459.313 57.1186C458.982 57.4681 458.532 57.6696 458.06 57.6799Z" fill="#3F3D56"></path> <path d="M34.692 44.3977C40.5393 44.3977 45.2795 39.3838 45.2795 33.1988C45.2795 27.0139 40.5393 22 34.692 22C28.8447 22 24.1045 27.0139 24.1045 33.1988C24.1045 39.3838 28.8447 44.3977 34.692 44.3977Z" fill="#3F3D56"></path> <path d="M71.2662 44.3977C77.1135 44.3977 81.8537 39.3838 81.8537 33.1988C81.8537 27.0139 77.1135 22 71.2662 22C65.4189 22 60.6787 27.0139 60.6787 33.1988C60.6787 39.3838 65.4189 44.3977 71.2662 44.3977Z" fill="#3F3D56"></path> <path d="M107.841 44.3977C113.689 44.3977 118.429 39.3838 118.429 33.1988C118.429 27.0139 113.689 22 107.841 22C101.994 22 97.2539 27.0139 97.2539 33.1988C97.2539 39.3838 101.994 44.3977 107.841 44.3977Z" fill="#3F3D56"></path> <path d="M436.039 24.7773H410.058C409.543 24.788 409.053 25.0071 408.692 25.3876C408.332 25.7682 408.13 26.2799 408.13 26.8128C408.13 27.3457 408.332 27.8574 408.692 28.238C409.053 28.6185 409.543 28.8376 410.058 28.8482H436.039C436.554 28.8376 437.045 28.6185 437.405 28.238C437.766 27.8574 437.968 27.3457 437.968 26.8128C437.968 26.2799 437.766 25.7682 437.405 25.3876C437.045 25.0071 436.554 24.788 436.039 24.7773Z" fill="#3F3D56"></path> <path d="M436.039 32.4141H410.058C409.543 32.4246 409.052 32.6437 408.692 33.0243C408.331 33.4048 408.129 33.9165 408.129 34.4495C408.129 34.9825 408.331 35.4942 408.692 35.8748C409.052 36.2553 409.543 36.4744 410.058 36.485H436.039C436.554 36.4744 437.044 36.2553 437.405 35.8748C437.765 35.4942 437.967 34.9825 437.967 34.4495C437.967 33.9165 437.765 33.4048 437.405 33.0243C437.044 32.6437 436.554 32.4246 436.039 32.4141Z" fill="#3F3D56"></path> <path d="M436.039 40.0469H410.058C409.543 40.0574 409.052 40.2765 408.692 40.6571C408.331 41.0376 408.129 41.5494 408.129 42.0823C408.129 42.6153 408.331 43.127 408.692 43.5076C409.052 43.8881 409.543 44.1072 410.058 44.1178H436.039C436.554 44.1072 437.044 43.8881 437.405 43.5076C437.765 43.127 437.967 42.6153 437.967 42.0823C437.967 41.5494 437.765 41.0376 437.405 40.6571C437.044 40.2765 436.554 40.0574 436.039 40.0469Z" fill="#3F3D56"></path> <path d="M37.1939 113.626C44.4229 113.626 50.2832 107.562 50.2832 100.082C50.2832 92.6026 44.4229 86.5391 37.1939 86.5391C29.9648 86.5391 24.1045 92.6026 24.1045 100.082C24.1045 107.562 29.9648 113.626 37.1939 113.626Z" fill="#E1E1E1"></path> <path d="M370.516 130.074H28.0022C26.9685 130.074 25.9771 129.649 25.2461 128.892C24.5151 128.136 24.1045 127.11 24.1045 126.041C24.1045 124.971 24.5151 123.945 25.2461 123.189C25.9771 122.433 26.9685 122.008 28.0022 122.008H370.516C371.55 122.008 372.541 122.433 373.272 123.189C374.003 123.945 374.414 124.971 374.414 126.041C374.414 127.11 374.003 128.136 373.272 128.892C372.541 129.649 371.55 130.074 370.516 130.074Z" fill="#E1E1E1"></path> <path d="M280.685 146.012H28.0015C26.9677 146.012 25.9762 145.587 25.2452 144.83C24.5142 144.074 24.1035 143.048 24.1035 141.978C24.1035 140.909 24.5142 139.883 25.2452 139.127C25.9762 138.37 26.9677 137.945 28.0015 137.945H280.685C281.719 137.945 282.71 138.37 283.441 139.127C284.172 139.883 284.583 140.909 284.583 141.978C284.583 143.048 284.172 144.074 283.441 144.83C282.71 145.587 281.719 146.012 280.685 146.012Z" fill="#E1E1E1"></path> <path d="M37.1939 325.016C44.4229 325.016 50.2832 318.953 50.2832 311.473C50.2832 303.993 44.4229 297.93 37.1939 297.93C29.9648 297.93 24.1045 303.993 24.1045 311.473C24.1045 318.953 29.9648 325.016 37.1939 325.016Z" fill="#E1E1E1"></path> <path d="M370.516 341.464H28.0016C27.4893 341.465 26.9817 341.361 26.5081 341.159C26.0345 340.957 25.6041 340.66 25.2415 340.285C24.8789 339.911 24.5912 339.466 24.395 338.976C24.1987 338.486 24.0977 337.962 24.0977 337.431C24.0977 336.901 24.1987 336.376 24.395 335.887C24.5912 335.397 24.8789 334.952 25.2415 334.577C25.6041 334.203 26.0345 333.906 26.5081 333.704C26.9817 333.501 27.4893 333.398 28.0016 333.398H370.516C371.602 333.461 372.626 333.941 373.387 334.745C374.148 335.549 374.591 336.618 374.63 337.742C374.598 338.267 374.466 338.78 374.241 339.251C374.017 339.723 373.704 340.144 373.322 340.49C372.939 340.836 372.495 341.1 372.013 341.267C371.531 341.435 371.022 341.501 370.516 341.464Z" fill="#E1E1E1"></path> <path d="M280.685 357.398H28.0015C26.9677 357.398 25.9762 356.973 25.2452 356.217C24.5142 355.461 24.1035 354.435 24.1035 353.365C24.1035 352.296 24.5142 351.27 25.2452 350.513C25.9762 349.757 26.9677 349.332 28.0015 349.332H280.685C281.719 349.332 282.71 349.757 283.441 350.513C284.172 351.27 284.583 352.296 284.583 353.365C284.583 354.435 284.172 355.461 283.441 356.217C282.71 356.973 281.719 357.398 280.685 357.398Z" fill="#E1E1E1"></path> <path d="M37.1939 211.352C44.4229 211.352 50.2832 205.289 50.2832 197.809C50.2832 190.329 44.4229 184.266 37.1939 184.266C29.9648 184.266 24.1045 190.329 24.1045 197.809C24.1045 205.289 29.9648 211.352 37.1939 211.352Z" fill="#E1E1E1"></path> <path d="M370.516 227.796H28.0022C26.9685 227.796 25.9771 227.371 25.2461 226.615C24.5151 225.859 24.1045 224.833 24.1045 223.763C24.1045 222.694 24.5151 221.668 25.2461 220.912C25.9771 220.155 26.9685 219.73 28.0022 219.73H370.516C371.55 219.73 372.541 220.155 373.272 220.912C374.003 221.668 374.414 222.694 374.414 223.763C374.414 224.833 374.003 225.859 373.272 226.615C372.541 227.371 371.55 227.796 370.516 227.796Z" fill="#E1E1E1"></path> <path d="M322.818 243.734H28.0015C26.9677 243.734 25.9762 243.309 25.2452 242.553C24.5142 241.797 24.1035 240.771 24.1035 239.701C24.1035 238.631 24.5142 237.606 25.2452 236.849C25.9762 236.093 26.9677 235.668 28.0015 235.668H322.818C323.852 235.668 324.843 236.093 325.574 236.849C326.305 237.606 326.716 238.631 326.716 239.701C326.716 240.771 326.305 241.797 325.574 242.553C324.843 243.309 323.852 243.734 322.818 243.734Z" fill="#E1E1E1"></path> <path d="M302.808 259.672H28.0015C26.9677 259.672 25.9762 259.247 25.2452 258.49C24.5142 257.734 24.1035 256.708 24.1035 255.639C24.1035 254.569 24.5142 253.543 25.2452 252.787C25.9762 252.03 26.9677 251.605 28.0015 251.605H302.808C303.842 251.605 304.833 252.03 305.564 252.787C306.295 253.543 306.706 254.569 306.706 255.639C306.706 256.708 306.295 257.734 305.564 258.49C304.833 259.247 303.842 259.672 302.808 259.672Z" fill="#E1E1E1"></path> <path d="M325.934 484.025C379.469 484.025 422.867 439.121 422.867 383.729C422.867 328.337 379.469 283.434 325.934 283.434C272.399 283.434 229 328.337 229 383.729C229 439.121 272.399 484.025 325.934 484.025Z" fill="#5199FF"></path> <path d="M308.362 364.952C311.892 364.952 314.753 361.992 314.753 358.339C314.753 354.687 311.892 351.727 308.362 351.727C304.832 351.727 301.971 354.687 301.971 358.339C301.971 361.992 304.832 364.952 308.362 364.952Z" fill="#5199FF"></path> <path fill-rule="evenodd" clip-rule="evenodd" d="M325.746 333C311.343 333 299.657 344.63 299.657 358.974V372.884H295.839C289.894 372.884 285 377.739 285 383.665V424.219C285 430.145 289.894 435 295.839 435H356.185C362.129 435 367 430.145 367 424.219V383.665C367 377.739 362.129 372.884 356.185 372.884H351.855V358.974C351.855 344.629 340.151 333 325.747 333H325.746ZM325.746 339C336.928 339 345.837 347.857 345.837 358.975V372.885H305.672V358.975C305.672 347.857 314.564 339 325.746 339ZM295.837 378.885H356.183C358.906 378.885 360.983 380.967 360.983 383.666V424.22C360.983 426.92 358.906 429.001 356.183 429.001H295.837C293.115 429.001 291.014 426.92 291.014 424.22V383.666C291.014 380.967 293.115 378.885 295.837 378.885ZM326.01 389.514C320.256 389.514 315.506 394.23 315.506 399.967C315.506 404.661 318.684 408.653 322.991 409.952V415.384C322.994 416.18 323.314 416.941 323.88 417.501C324.446 418.062 325.212 418.375 326.01 418.372C327.662 418.365 329 417.031 329.006 415.384V409.958C333.316 408.665 336.491 404.668 336.491 399.968C336.491 394.231 331.764 389.515 326.01 389.515L326.01 389.514ZM326.01 395.514C328.52 395.514 330.475 397.48 330.475 399.967C330.475 402.455 328.52 404.397 326.01 404.397C323.5 404.397 321.522 402.455 321.522 399.967C321.522 397.48 323.5 395.514 326.01 395.514Z" fill="black"></path> </g> <rect x="1" y="1" width="460" height="539" rx="20" stroke="#19154A" stroke-opacity="0.28" stroke-width="2"></rect> <defs> <clipPath id="clip0_1911_22749"> <rect x="2" y="2" width="458" height="537" rx="19" fill="white"></rect> </clipPath> </defs> </svg> 