<?xml version="1.0" encoding="UTF-8"?> <svg xmlns="http://www.w3.org/2000/svg" width="916" height="731" viewBox="0 0 916 731" fill="none"> <g clip-path="url(#clip0_1948_21903)"> <path d="M161.43 462.75C160.054 462.234 158.807 461.423 157.777 460.373C156.748 459.324 155.961 458.061 155.473 456.675C154.984 455.288 154.805 453.812 154.949 452.349C155.093 450.886 155.556 449.472 156.305 448.207L133.229 420.921L151.668 418.717L170.754 444.966C172.795 446.365 174.252 448.465 174.849 450.867C175.446 453.269 175.14 455.807 173.991 457.999C172.842 460.191 170.929 461.885 168.614 462.761C166.299 463.636 163.743 463.632 161.43 462.75Z" fill="#FFB6B6"></path> <path d="M66.4278 718.482L78.6868 718.481L84.5198 671.193L66.4248 671.194L66.4278 718.482Z" fill="#FFB6B6"></path> <path d="M63.3003 714.479L66.7511 714.479L80.2235 709L87.4443 714.478H87.4453C91.526 714.478 95.4394 716.099 98.3249 718.985C101.21 721.87 102.832 725.784 102.832 729.864V730.364L63.301 730.366L63.3003 714.479Z" fill="#2F2E41"></path> <path d="M113.937 710.756L125.896 713.456L142.001 668.614L124.351 664.629L113.937 710.756Z" fill="#FFB6B6"></path> <path d="M111.768 706.163L115.134 706.923L129.483 704.546L135.32 711.48C139.3 712.379 142.761 714.823 144.94 718.273C147.119 721.723 147.838 725.897 146.94 729.878L146.83 730.366L108.27 721.659L111.768 706.163Z" fill="#2F2E41"></path> <path d="M43.9834 475.24L55.0697 599.449C55.0697 599.449 50.9158 674.019 64.3197 700.259H83.759L93.3837 592.639L94.5923 520.404L136.268 581.346L109.724 698.5L133.649 700.639L176.724 573.5L129.4 454.146L43.9834 475.24Z" fill="#2F2E41"></path> <path d="M55.5942 277.439C71.3845 277.439 84.185 264.639 84.185 248.849C84.185 233.058 71.3845 220.258 55.5942 220.258C39.804 220.258 27.0034 233.058 27.0034 248.849C27.0034 264.639 39.804 277.439 55.5942 277.439Z" fill="#FFB8B8"></path> <path d="M115.615 304.685L82.3988 294.621L78.0763 281.328L42.4559 287.11L34.8877 300.087L10.3882 322.867L39.0922 452.653L38.2233 481C38.2233 481 56.5946 489.27 136.268 470.228C137.223 470 135.223 469 135.223 469L115.615 304.685Z" fill="#1B1A20"></path> <path d="M147.159 447.75L108.223 395.611L97.1846 303.205L97.5066 303.05C100.521 301.598 103.849 300.919 107.192 301.073C110.534 301.228 113.786 302.21 116.654 303.933C119.522 305.656 121.917 308.065 123.623 310.944C125.329 313.822 126.292 317.079 126.426 320.423L128.722 377.524L167.392 428.555L147.159 447.75Z" fill="#1B1A20"></path> <path d="M25.8643 265.071C25.6651 264.8 25.4678 264.525 25.2725 264.249C25.1939 264.415 25.1314 264.587 25.0415 264.749L25.8643 265.071Z" fill="#2F2E41"></path> <path d="M84.0345 227.935C82.1234 223.772 78.7159 220.48 74.4891 218.714C70.2997 217.024 65.6175 217.028 61.431 218.725C57.6512 216.337 53.4515 214.444 49.0287 214.209C44.6058 213.975 39.9296 215.616 37.204 219.228C36.5953 220.181 35.904 221.079 35.1381 221.912C32.9471 223.941 29.6176 223.648 26.7054 223.233C28.0116 224.353 29.3181 225.472 30.6249 226.591C29.0438 227.004 27.4626 227.418 25.8812 227.831C27.7264 228.95 29.5715 230.069 31.4164 231.188C26.0599 234.403 23.6254 241.42 24.2684 247.793C24.8768 253.827 27.7899 259.345 31.2724 264.249C32.6615 261.317 32.3622 257.81 32.3392 254.508C32.3153 251.019 32.9325 247.058 35.7279 245.108C37.6137 243.793 40.0385 243.734 42.3124 243.747C53.7826 243.81 65.2398 244.525 76.6288 245.889C78.1742 245.956 79.681 246.393 81.0224 247.163C83.5409 248.882 84.0316 252.427 84.2845 255.538C85.6152 250.402 86.2664 245.113 86.2216 239.807C86.3336 235.74 85.5884 231.695 84.0345 227.935Z" fill="#201F32"></path> <path d="M81.2236 575C106.076 575 126.224 554.853 126.224 530C126.224 505.147 106.076 485 81.2236 485C56.3708 485 36.2236 505.147 36.2236 530C36.2236 554.853 56.3708 575 81.2236 575Z" fill="#F0F0F0"></path> <path d="M81.2236 484C78.9105 484 76.6006 484.174 74.3135 484.52C73.1436 484.69 72.0039 484.91 70.8735 485.18C62.5718 487.094 54.9651 491.276 48.9019 497.261C42.8388 503.246 38.5577 510.798 36.5364 519.074C34.5151 527.35 34.8331 536.025 37.4548 544.131C40.0765 552.237 44.8988 559.455 51.3838 564.98C52.1538 565.63 52.9336 566.26 53.7437 566.86C59.5817 571.213 66.3699 574.117 73.5497 575.334C80.7295 576.55 88.0956 576.045 95.0418 573.858C101.988 571.672 108.316 567.867 113.504 562.758C118.692 557.648 122.593 551.379 124.886 544.467C127.178 537.555 127.796 530.198 126.689 523C125.583 515.803 122.782 508.971 118.519 503.067C114.256 497.163 108.652 492.356 102.168 489.041C95.6842 485.726 88.5058 483.998 81.2236 484ZM81.2236 574C71.8678 574.01 62.7552 571.02 55.2236 565.47C54.4038 564.87 53.6138 564.25 52.8438 563.59C46.5256 558.26 41.8376 551.258 39.3174 543.385C36.7972 535.513 36.5468 527.09 38.5951 519.081C40.6433 511.073 44.9072 503.805 50.8977 498.109C56.8882 492.414 64.3626 488.522 72.4639 486.88C73.5835 486.65 74.7036 486.47 75.8438 486.33C77.6285 486.109 79.4252 485.999 81.2236 486C92.8932 486 104.085 490.636 112.336 498.887C120.588 507.139 125.224 518.33 125.224 530C125.224 541.67 120.588 552.861 112.336 561.113C104.085 569.364 92.8932 574 81.2236 574Z" fill="#3F3D56"></path> <path d="M59.2236 521H103.224C104.88 521 106.224 519.657 106.224 518C106.224 516.343 104.88 515 103.224 515H59.2236C57.5668 515 56.2236 516.343 56.2236 518C56.2236 519.657 57.5668 521 59.2236 521Z" fill="#1771F1"></path> <path d="M59.2236 533H103.224C104.88 533 106.224 531.657 106.224 530C106.224 528.343 104.88 527 103.224 527H59.2236C57.5668 527 56.2236 528.343 56.2236 530C56.2236 531.657 57.5668 533 59.2236 533Z" fill="#1771F1"></path> <path d="M59.2236 545H103.224C104.88 545 106.224 543.657 106.224 542C106.224 540.343 104.88 539 103.224 539H59.2236C57.5668 539 56.2236 540.343 56.2236 542C56.2236 543.657 57.5668 545 59.2236 545Z" fill="#1771F1"></path> <path d="M84.1031 497.774C82.6502 497.55 81.2642 497.009 80.0426 496.192C78.8211 495.374 77.7937 494.298 77.0329 493.04C76.2721 491.782 75.7963 490.373 75.6391 488.911C75.4819 487.449 75.6471 485.971 76.1231 484.58L47.9741 462.566L65.577 456.652L89.609 478.464C91.8927 479.418 93.7469 481.177 94.8203 483.408C95.8937 485.638 96.1117 488.184 95.433 490.564C94.7543 492.945 93.2261 494.993 91.1379 496.322C89.0497 497.651 86.5467 498.167 84.1031 497.774Z" fill="#FFB6B6"></path> <path d="M27.7236 322.5L10.3885 322.868C6.98789 326 4.28178 329.81 2.4448 334.053C0.607831 338.296 -0.319179 342.877 -0.276417 347.5V429.409L64.7717 483.793L85.8055 463.425L37.3895 410.677L27.7236 322.5Z" fill="#1B1A20"></path> <path d="M804.866 127.572H161.004V539.93H804.866V127.572Z" fill="#E6E6E6"></path> <path d="M786.455 179.293H179.416V515.536H786.455V179.293Z" fill="white"></path> <path d="M804.591 127.208H160.729V154.562H804.591V127.208Z" fill="#1771F1"></path> <path d="M181.057 146.262C183.857 146.262 186.126 143.992 186.126 141.192C186.126 138.392 183.857 136.122 181.057 136.122C178.257 136.122 175.987 138.392 175.987 141.192C175.987 143.992 178.257 146.262 181.057 146.262Z" fill="white"></path> <path d="M200.3 146.262C203.1 146.262 205.37 143.992 205.37 141.192C205.37 138.392 203.1 136.122 200.3 136.122C197.5 136.122 195.23 138.392 195.23 141.192C195.23 143.992 197.5 146.262 200.3 146.262Z" fill="white"></path> <path d="M219.544 146.262C222.344 146.262 224.614 143.992 224.614 141.192C224.614 138.392 222.344 136.122 219.544 136.122C216.744 136.122 214.474 138.392 214.474 141.192C214.474 143.992 216.744 146.262 219.544 146.262Z" fill="white"></path> <path d="M547.463 214.181H417.479V287.529H547.463V214.181Z" fill="#1771F1"></path> <path d="M547.463 307.954H417.479V386.873H547.463V307.954Z" fill="#E6E6E6"></path> <path d="M731.297 214.181H575.316V330.305H731.297V214.181Z" fill="#E6E6E6"></path> <path d="M731.297 364.522H575.316V480.647H731.297V364.522Z" fill="#1771F1"></path> <path d="M391.297 214.181H235.316V330.305H391.297V214.181Z" fill="#E6E6E6"></path> <path d="M526.208 79.6416L481.774 246.796L483.81 247.337L527.827 81.7476L526.208 79.6416Z" fill="#3F3D56"></path> <path d="M654.464 421.592L610.447 587.182L612.066 589.288L656.5 422.133L654.464 421.592Z" fill="#3F3D56"></path> <path d="M388.224 400.647H238.224C237.295 400.647 236.405 400.279 235.749 399.622C235.092 398.966 234.724 398.076 234.724 397.147C234.724 396.219 235.092 395.329 235.749 394.673C236.405 394.016 237.295 393.647 238.224 393.647H388.224C389.152 393.647 390.042 394.016 390.699 394.673C391.355 395.329 391.724 396.219 391.724 397.147C391.724 398.076 391.355 398.966 390.699 399.622C390.042 400.279 389.152 400.647 388.224 400.647Z" fill="#E6E6E6"></path> <path d="M388.224 380.647H238.224C237.295 380.647 236.405 380.279 235.749 379.622C235.092 378.966 234.724 378.076 234.724 377.147C234.724 376.219 235.092 375.329 235.749 374.673C236.405 374.016 237.295 373.647 238.224 373.647H388.224C389.152 373.647 390.042 374.016 390.699 374.673C391.355 375.329 391.724 376.219 391.724 377.147C391.724 378.076 391.355 378.966 390.699 379.622C390.042 380.279 389.152 380.647 388.224 380.647Z" fill="#E6E6E6"></path> <path d="M388.224 420.647H238.224C237.295 420.647 236.405 420.279 235.749 419.622C235.092 418.966 234.724 418.076 234.724 417.147C234.724 416.219 235.092 415.329 235.749 414.673C236.405 414.016 237.295 413.647 238.224 413.647H388.224C389.152 413.647 390.042 414.016 390.699 414.673C391.355 415.329 391.724 416.219 391.724 417.147C391.724 418.076 391.355 418.966 390.699 419.622C390.042 420.279 389.152 420.647 388.224 420.647Z" fill="#E6E6E6"></path> <path d="M388.224 440.647H238.224C237.295 440.647 236.405 440.279 235.749 439.622C235.092 438.966 234.724 438.076 234.724 437.147C234.724 436.219 235.092 435.329 235.749 434.673C236.405 434.016 237.295 433.647 238.224 433.647H388.224C389.152 433.647 390.042 434.016 390.699 434.673C391.355 435.329 391.724 436.219 391.724 437.147C391.724 438.076 391.355 438.966 390.699 439.622C390.042 440.279 389.152 440.647 388.224 440.647Z" fill="#E6E6E6"></path> <path d="M388.224 460.647H238.224C237.295 460.647 236.405 460.279 235.749 459.622C235.092 458.966 234.724 458.076 234.724 457.147C234.724 456.219 235.092 455.329 235.749 454.673C236.405 454.016 237.295 453.647 238.224 453.647H388.224C389.152 453.647 390.042 454.016 390.699 454.673C391.355 455.329 391.724 456.219 391.724 457.147C391.724 458.076 391.355 458.966 390.699 459.622C390.042 460.279 389.152 460.647 388.224 460.647Z" fill="#E6E6E6"></path> <path d="M388.224 480.647H238.224C237.295 480.647 236.405 480.279 235.749 479.622C235.092 478.966 234.724 478.076 234.724 477.147C234.724 476.219 235.092 475.329 235.749 474.673C236.405 474.016 237.295 473.647 238.224 473.647H388.224C389.152 473.647 390.042 474.016 390.699 474.673C391.355 475.329 391.724 476.219 391.724 477.147C391.724 478.076 391.355 478.966 390.699 479.622C390.042 480.279 389.152 480.647 388.224 480.647Z" fill="#E6E6E6"></path> <path d="M544.471 420.647H420.471C419.543 420.647 418.653 420.279 417.996 419.622C417.34 418.966 416.971 418.076 416.971 417.147C416.971 416.219 417.34 415.329 417.996 414.673C418.653 414.016 419.543 413.647 420.471 413.647H544.471C545.399 413.647 546.29 414.016 546.946 414.673C547.602 415.329 547.971 416.219 547.971 417.147C547.971 418.076 547.602 418.966 546.946 419.622C546.29 420.279 545.399 420.647 544.471 420.647Z" fill="#E6E6E6"></path> <path d="M544.471 440.647H420.471C419.543 440.647 418.653 440.279 417.996 439.622C417.34 438.966 416.971 438.076 416.971 437.147C416.971 436.219 417.34 435.329 417.996 434.673C418.653 434.016 419.543 433.647 420.471 433.647H544.471C545.399 433.647 546.29 434.016 546.946 434.673C547.602 435.329 547.971 436.219 547.971 437.147C547.971 438.076 547.602 438.966 546.946 439.622C546.29 440.279 545.399 440.647 544.471 440.647Z" fill="#E6E6E6"></path> <path d="M544.471 460.647H420.471C419.543 460.647 418.653 460.279 417.996 459.622C417.34 458.966 416.971 458.076 416.971 457.147C416.971 456.219 417.34 455.329 417.996 454.673C418.653 454.016 419.543 453.647 420.471 453.647H544.471C545.399 453.647 546.29 454.016 546.946 454.673C547.602 455.329 547.971 456.219 547.971 457.147C547.971 458.076 547.602 458.966 546.946 459.622C546.29 460.279 545.399 460.647 544.471 460.647Z" fill="#E6E6E6"></path> <path d="M544.471 480.647H420.471C419.543 480.647 418.653 480.279 417.996 479.622C417.34 478.966 416.971 478.076 416.971 477.147C416.971 476.219 417.34 475.329 417.996 474.673C418.653 474.016 419.543 473.647 420.471 473.647H544.471C545.399 473.647 546.29 474.016 546.946 474.673C547.602 475.329 547.971 476.219 547.971 477.147C547.971 478.076 547.602 478.966 546.946 479.622C546.29 480.279 545.399 480.647 544.471 480.647Z" fill="#E6E6E6"></path> <path d="M529.224 91C554.076 91 574.224 70.8528 574.224 46C574.224 21.1472 554.076 1 529.224 1C504.371 1 484.224 21.1472 484.224 46C484.224 70.8528 504.371 91 529.224 91Z" fill="#F0F0F0"></path> <path d="M529.224 1.06623e-06C526.911 0.000276503 524.601 0.174094 522.314 0.519998C521.144 0.689998 520.004 0.909951 518.874 1.18C510.572 3.09359 502.965 7.27614 496.902 13.261C490.839 19.2459 486.558 26.7976 484.536 35.0738C482.515 43.3499 482.833 52.0249 485.455 60.1309C488.076 68.2369 492.899 75.455 499.384 80.98C500.154 81.63 500.934 82.26 501.744 82.86C507.582 87.2128 514.37 90.117 521.55 91.3337C528.73 92.5504 536.096 92.0447 543.042 89.8583C549.988 87.6719 556.316 83.8672 561.504 78.7575C566.692 73.6477 570.593 67.3789 572.886 60.467C575.178 53.5551 575.796 46.1976 574.689 39C573.583 31.8025 570.782 24.9707 566.519 19.0668C562.256 13.1629 556.652 8.35578 550.168 5.04096C543.684 1.72615 536.506 -0.00156686 529.224 1.06623e-06ZM529.224 90C519.868 90.0101 510.755 87.0204 503.224 81.47C502.404 80.87 501.614 80.25 500.844 79.59C494.526 74.2602 489.838 67.2576 487.317 59.3853C484.797 51.5129 484.547 43.0896 486.595 35.0815C488.643 27.0734 492.907 19.8047 498.898 14.1091C504.888 8.41353 512.363 4.52171 520.464 2.88C521.584 2.65 522.704 2.47 523.844 2.33C525.629 2.10897 527.425 1.99876 529.224 2C540.893 2 552.085 6.6357 560.336 14.8873C568.588 23.1389 573.224 34.3305 573.224 46C573.224 57.6695 568.588 68.8611 560.336 77.1127C552.085 85.3643 540.893 90 529.224 90Z" fill="#3F3D56"></path> <path d="M507.224 37L551.224 37C552.88 37 554.224 35.6569 554.224 34C554.224 32.3431 552.88 31 551.224 31L507.224 31C505.567 31 504.224 32.3431 504.224 34C504.224 35.6569 505.567 37 507.224 37Z" fill="#1771F1"></path> <path d="M507.224 49L551.224 49C552.88 49 554.224 47.6569 554.224 46C554.224 44.3431 552.88 43 551.224 43L507.224 43C505.567 43 504.224 44.3431 504.224 46C504.224 47.6569 505.567 49 507.224 49Z" fill="#1771F1"></path> <path d="M507.224 61L551.224 61C552.88 61 554.224 59.6569 554.224 58C554.224 56.3431 552.88 55 551.224 55L507.224 55C505.567 55 504.224 56.3431 504.224 58C504.224 59.6569 505.567 61 507.224 61Z" fill="#1771F1"></path> <path d="M605.224 673C630.076 673 650.224 652.853 650.224 628C650.224 603.147 630.076 583 605.224 583C580.371 583 560.224 603.147 560.224 628C560.224 652.853 580.371 673 605.224 673Z" fill="#F0F0F0"></path> <path d="M605.224 582C602.911 582 600.601 582.174 598.314 582.52C597.144 582.69 596.004 582.91 594.874 583.18C586.572 585.094 578.965 589.276 572.902 595.261C566.839 601.246 562.558 608.798 560.536 617.074C558.515 625.35 558.833 634.025 561.455 642.131C564.076 650.237 568.899 657.455 575.384 662.98C576.154 663.63 576.934 664.26 577.744 664.86C583.582 669.213 590.37 672.117 597.55 673.334C604.73 674.55 612.096 674.045 619.042 671.858C625.988 669.672 632.316 665.867 637.504 660.758C642.692 655.648 646.593 649.379 648.886 642.467C651.178 635.555 651.796 628.198 650.689 621C649.583 613.803 646.782 606.971 642.519 601.067C638.256 595.163 632.652 590.356 626.168 587.041C619.684 583.726 612.506 581.998 605.224 582ZM605.224 672C595.868 672.01 586.755 669.02 579.224 663.47C578.404 662.87 577.614 662.25 576.844 661.59C570.526 656.26 565.838 649.258 563.317 641.385C560.797 633.513 560.547 625.09 562.595 617.081C564.643 609.073 568.907 601.805 574.898 596.109C580.888 590.414 588.363 586.522 596.464 584.88C597.584 584.65 598.704 584.47 599.844 584.33C601.629 584.109 603.425 583.999 605.224 584C616.893 584 628.085 588.636 636.336 596.887C644.588 605.139 649.224 616.33 649.224 628C649.224 639.67 644.588 650.861 636.336 659.113C628.085 667.364 616.893 672 605.224 672Z" fill="#3F3D56"></path> <path d="M583.224 619H627.224C628.88 619 630.224 617.657 630.224 616C630.224 614.343 628.88 613 627.224 613H583.224C581.567 613 580.224 614.343 580.224 616C580.224 617.657 581.567 619 583.224 619Z" fill="#1771F1"></path> <path d="M583.224 631H627.224C628.88 631 630.224 629.657 630.224 628C630.224 626.343 628.88 625 627.224 625H583.224C581.567 625 580.224 626.343 580.224 628C580.224 629.657 581.567 631 583.224 631Z" fill="#1771F1"></path> <path d="M583.224 643H627.224C628.88 643 630.224 641.657 630.224 640C630.224 638.343 628.88 637 627.224 637H583.224C581.567 637 580.224 638.343 580.224 640C580.224 641.657 581.567 643 583.224 643Z" fill="#1771F1"></path> <g style="mix-blend-mode:screen"> <g clip-path="url(#clip1_1948_21903)"> <g clip-path="url(#clip2_1948_21903)"> <path d="M100.153 330.216C100.214 330.248 100.686 330.015 101.239 329.791C101.511 329.69 101.776 329.572 102.032 329.436C102.346 329.24 102.328 329.27 102.55 329.14C102.712 329.045 102.644 329.762 102.602 330.063C102.496 330.685 102.303 331.288 102.03 331.856C101.892 332.136 101.727 332.407 101.727 332.407C101.643 332.548 101.566 332.664 101.514 332.739C101.514 332.739 101.436 332.853 101.357 332.961C101.084 333.334 99.6329 334.574 99.4748 334.649C99.4409 334.666 99.4378 334.673 99.4617 334.673C99.6509 334.671 101.511 334.197 101.984 334.234C102.079 334.241 102.006 334.447 101.928 334.599C101.883 334.683 101.834 334.764 101.779 334.841C101.111 335.706 100.189 336.338 99.2896 337.051L99.2832 337.052L99.2614 337.069C99.1733 337.129 99.0827 337.187 98.9467 337.277C98.8728 337.326 98.9044 337.501 98.9634 337.696C98.9943 337.781 99.0253 337.865 99.0574 337.951C99.4389 339.183 100.026 340.342 100.794 341.378C100.868 341.493 100.942 341.606 101.021 341.717C101.327 342.17 101.673 342.594 102.055 342.984C102.144 343.077 102.233 343.155 102.324 343.235C102.597 343.473 102.89 343.687 103.2 343.873C103.336 343.958 103.425 344.033 103.414 344.087C103.377 344.269 102.218 344.239 101.063 344.07C100.268 343.946 99.4832 343.766 98.7145 343.529C97.6619 343.223 96.9571 343.019 96.0608 342.591C95.1644 342.164 94.6029 341.762 93.7218 341.148C93.7218 341.148 92.3438 340.18 91.4183 339.224C91.3102 339.112 91.2073 339 91.2073 339C91.2073 339 91.1099 338.895 91.0141 338.786C90.7566 338.495 89.6385 337.042 89.0575 335.924C89.2955 335.895 89.527 335.827 89.7422 335.721C89.8615 335.664 89.9773 335.6 90.0888 335.528C91.0912 334.892 91.9762 333.979 92.439 332.954C92.4839 332.857 92.53 332.755 92.5736 332.644C92.6707 332.396 92.7402 332.138 92.7808 331.875C92.8158 331.645 92.8281 331.411 92.8176 331.178C92.813 331.07 92.8042 330.964 92.794 330.868C92.7483 330.605 92.7026 330.343 92.6475 330.076C92.6247 329.945 92.5913 329.815 92.5604 329.687C92.4709 329.289 92.3146 328.909 92.0983 328.562C92.0275 328.447 91.9497 328.337 91.8653 328.231C91.1021 327.137 89.6398 326.918 88.4586 326.95C88.3515 326.957 88.2447 326.965 88.1389 326.979C87.9247 327.005 87.7124 327.044 87.5031 327.097C87.3747 327.131 87.2512 327.167 87.1423 327.202L86.8874 327.218C86.8962 326.847 86.972 326.482 87.1111 326.138C87.115 326.129 87.1165 326.119 87.1152 326.109C87.114 326.099 87.1101 326.089 87.104 326.081C87.0978 326.073 87.0897 326.067 87.0803 326.063C87.071 326.06 87.0608 326.058 87.0509 326.06L87.1547 326.034C89.0964 325.581 91.0901 325.955 92.5006 327.452C92.5831 327.54 92.6652 327.632 92.7448 327.729C92.8244 327.825 92.8963 327.903 92.9663 327.993C93.0352 328.084 93.0996 328.177 93.1591 328.274C93.2307 328.38 93.2973 328.489 93.36 328.601C93.4227 328.712 93.5086 328.832 93.5772 328.953C93.7335 328.936 93.8876 328.919 94.0412 328.9C94.1949 328.881 94.3461 328.86 94.4959 328.837C94.601 328.819 94.6956 328.802 94.7955 328.785C95.1494 328.737 95.4977 328.655 95.8356 328.539C95.95 328.5 96.063 328.458 96.1742 328.413C96.7947 328.119 97.3881 327.77 97.9478 327.372C98.0575 327.294 98.1659 327.213 98.2716 327.13C99.2906 326.439 100.067 325.451 100.652 324.386C100.684 324.306 100.715 324.23 100.743 324.167C100.798 324.038 100.845 323.955 100.9 323.961C100.936 323.964 100.967 324.013 101 324.102C101.033 324.19 101.069 324.324 101.115 324.497C101.136 324.618 101.157 324.739 101.187 324.858C101.216 324.976 101.229 325.101 101.25 325.222C101.381 326.456 101.498 327.67 100.926 328.792C100.883 328.92 100.837 329.048 100.791 329.177C100.733 329.312 100.663 329.443 100.582 329.566L100.514 329.672L100.441 329.779L100.371 329.879C100.284 330.002 100.202 330.111 100.173 330.144C100.145 330.177 100.14 330.206 100.153 330.216Z" fill="#00B2E4"></path> <path d="M87.5697 331.918C87.5069 331.675 87.4537 331.438 87.4132 331.205C87.3966 331.11 87.3781 331.004 87.3508 330.884C87.3234 330.764 87.3063 330.629 87.2737 330.478C87.2404 330.287 87.224 330.192 87.2093 330.108C87.1312 329.659 87.045 329.201 86.982 328.758C86.9564 328.611 86.9419 328.466 86.9256 328.322C86.8926 327.955 86.8798 327.586 86.8872 327.218L87.139 327.202C87.2478 327.168 87.3714 327.131 87.4997 327.097C87.709 327.045 87.9214 327.006 88.1356 326.98C88.2407 326.962 88.3482 326.957 88.4553 326.95C89.6407 326.917 91.0991 327.14 91.8619 328.232C91.9464 328.337 92.0242 328.448 92.0949 328.563C92.3113 328.909 92.4675 329.289 92.5571 329.688C92.588 329.816 92.6182 329.946 92.6442 330.077C92.6987 330.34 92.745 330.606 92.7907 330.869C92.8016 330.969 92.8098 331.072 92.8143 331.179C92.8248 331.412 92.8125 331.645 92.7775 331.876C92.7369 332.139 92.6674 332.397 92.5702 332.645C92.5276 332.761 92.4805 332.858 92.4356 332.954C91.9725 333.977 91.0875 334.89 90.0855 335.529C89.974 335.6 89.8582 335.664 89.7389 335.721C89.5236 335.827 89.2922 335.896 89.0542 335.925C89.017 335.855 88.982 335.784 88.9497 335.717C88.9175 335.65 88.8516 335.508 88.776 335.341C88.5699 334.891 88.4838 334.676 88.4497 334.592C88.4303 334.542 88.4015 334.471 88.3475 334.328C88.3053 334.217 88.2581 334.088 88.2045 333.942C87.9984 333.305 87.7473 332.596 87.5697 331.918Z" fill="#D5EAF3"></path> <path d="M88.9497 335.717C88.9819 335.784 89.017 335.855 89.0542 335.926C88.9027 335.942 88.7498 335.938 88.5994 335.914C88.4595 335.904 88.3206 335.883 88.1844 335.85C87.5065 335.688 86.8823 335.293 86.3205 334.84C86.2379 334.77 86.1572 334.698 86.0795 334.625C85.6903 334.263 85.3509 333.851 85.0703 333.399C85.0003 333.259 84.939 333.115 84.8868 332.967L84.8848 332.955C85.6725 332.392 86.5596 332.001 87.577 331.917C87.7546 332.596 88.0048 333.299 88.2118 333.941C88.2655 334.088 88.3127 334.216 88.3549 334.328C88.4089 334.47 88.4376 334.542 88.4571 334.591C88.4912 334.675 88.5782 334.895 88.7834 335.34C88.8516 335.508 88.9221 335.658 88.9497 335.717Z" fill="#0091CE"></path> <path d="M87.051 326.063C87.061 326.062 87.0712 326.063 87.0805 326.067C87.0898 326.071 87.098 326.077 87.1041 326.085C87.1103 326.093 87.1142 326.102 87.1154 326.112C87.1166 326.122 87.1152 326.132 87.1112 326.142C86.9722 326.485 86.8964 326.851 86.8876 327.221C86.8801 327.589 86.8928 327.957 86.9256 328.323C86.9419 328.467 86.9606 328.612 86.982 328.76C87.045 329.202 87.128 329.661 87.2093 330.109C87.2239 330.194 87.2404 330.288 87.2737 330.479C87.3 330.631 87.3234 330.765 87.3507 330.885C87.3781 331.005 87.3903 331.112 87.4132 331.207C87.4536 331.439 87.5069 331.677 87.5696 331.919C86.547 332.004 85.6651 332.393 84.8774 332.957C84.7001 333.083 84.5276 333.218 84.3595 333.36C84.2594 333.44 84.1609 333.521 84.064 333.603C83.9839 333.672 83.9036 333.739 83.8255 333.814C83.7475 333.888 83.671 333.959 83.595 334.032C83.4588 334.133 83.3068 334.349 83.1586 334.499C83.0884 334.581 83.0207 334.665 82.9535 334.752C82.8862 334.838 82.8212 334.925 82.7589 335.015C82.702 334.999 82.6787 334.977 82.6482 334.883C82.5789 334.484 82.4973 334.084 82.4249 333.681C82.4013 333.545 82.3779 333.41 82.3543 333.275C82.1312 331.993 82.1864 330.654 82.6716 329.46C82.707 329.377 82.75 329.288 82.7917 329.198C82.8333 329.107 82.8868 329.01 82.9422 328.911C83.1613 328.556 83.4104 328.22 83.687 327.908C83.7773 327.805 83.8765 327.703 83.9753 327.604C84.8104 326.803 85.9017 326.366 87.0438 326.066L87.051 326.063Z" fill="#0091CE"></path> <path d="M87.1396 327.205C87.2485 327.171 87.372 327.134 87.5004 327.1C87.7097 327.048 87.922 327.008 88.1362 326.983C88.2413 326.964 88.3488 326.96 88.4559 326.953C89.6413 326.92 91.0997 327.143 91.8626 328.235C91.947 328.34 92.0248 328.451 92.0956 328.566C92.3119 328.912 92.4682 329.292 92.5577 329.69C92.5886 329.818 92.6188 329.948 92.6448 330.079C92.6993 330.343 92.7456 330.608 92.7913 330.871C92.8022 330.971 92.8105 331.075 92.8149 331.181C92.8254 331.414 92.8131 331.648 92.7781 331.878C92.7375 332.142 92.668 332.4 92.5709 332.648C92.5282 332.763 92.4812 332.86 92.4363 332.957C91.9731 333.98 91.0881 334.893 90.0861 335.532C89.9746 335.603 89.8588 335.667 89.7395 335.724C89.5243 335.83 89.2928 335.898 89.0548 335.928C88.9034 335.944 88.7504 335.94 88.6001 335.916C88.4602 335.906 88.3213 335.885 88.185 335.852C87.5072 335.69 86.883 335.295 86.3211 334.842C86.2385 334.772 86.1579 334.7 86.0802 334.627C85.6909 334.265 85.3516 333.853 85.071 333.401C85.001 333.261 84.9397 333.117 84.8874 332.969" stroke="#173984" stroke-width="0.236756" stroke-miterlimit="10" stroke-linecap="round"></path> <path d="M99.2853 337.049C100.185 336.337 101.109 335.704 101.775 334.839C101.829 334.762 101.879 334.681 101.923 334.597C102.005 334.442 102.078 334.239 101.98 334.232C101.506 334.193 99.6463 334.667 99.4574 334.671C99.4343 334.675 99.4367 334.664 99.4706 334.647C99.6286 334.572 101.082 333.328 101.352 332.959C101.432 332.851 101.51 332.737 101.51 332.737C101.562 332.662 101.639 332.546 101.723 332.406C101.723 332.406 101.892 332.134 102.025 331.854C102.299 331.286 102.492 330.683 102.598 330.061C102.643 329.759 102.711 329.042 102.546 329.138C102.324 329.268 102.346 329.237 102.028 329.434C101.772 329.57 101.507 329.688 101.235 329.789C100.683 330.018 100.21 330.246 100.149 330.214C100.134 330.207 100.144 330.185 100.175 330.146C100.206 330.107 100.283 330.01 100.373 329.881L100.443 329.781L100.516 329.674L100.584 329.568C100.665 329.445 100.735 329.315 100.793 329.179C100.839 329.051 100.885 328.923 100.928 328.794C101.5 327.671 101.387 326.457 101.252 325.225C101.231 325.104 101.21 324.982 101.188 324.86C101.167 324.738 101.14 324.62 101.117 324.5C101.071 324.326 101.035 324.195 101.002 324.104C100.969 324.013 100.938 323.967 100.901 323.963C100.847 323.958 100.8 324.041 100.745 324.169C100.717 324.233 100.686 324.308 100.654 324.389C100.069 325.453 99.2925 326.442 98.2735 327.132C98.1678 327.216 98.0595 327.296 97.9497 327.375C97.3916 327.773 96.7996 328.122 96.1807 328.417C96.0695 328.462 95.9565 328.503 95.8421 328.543C95.5043 328.659 95.1559 328.741 94.802 328.789C94.6969 328.807 94.6033 328.823 94.5024 328.841C94.3532 328.867 94.2004 328.885 94.0477 328.904C93.8951 328.923 93.74 328.94 93.5837 328.956C93.5151 328.836 93.4417 328.719 93.3665 328.604C93.2913 328.49 93.2372 328.384 93.1656 328.278C93.1061 328.181 93.0417 328.087 92.9728 327.997C92.9019 327.901 92.8333 327.818 92.7513 327.732C92.6693 327.647 92.5897 327.544 92.5071 327.455C91.0966 325.959 89.1029 325.584 87.1612 326.038" stroke="#173984" stroke-width="0.236756" stroke-miterlimit="10" stroke-linecap="round"></path> <path d="M87.5709 331.919C86.5483 332.004 85.6664 332.393 84.8787 332.957C84.7014 333.083 84.5289 333.218 84.3608 333.36C84.2607 333.44 84.1622 333.521 84.0652 333.603C83.9852 333.672 83.9048 333.739 83.8268 333.814C83.7488 333.888 83.6723 333.959 83.5963 334.032C83.4601 334.133 83.3081 334.349 83.1599 334.499C83.0897 334.581 83.022 334.665 82.9548 334.752C82.8875 334.838 82.8225 334.925 82.7602 335.015C82.7033 334.999 82.68 334.977 82.6495 334.883C82.5802 334.484 82.4985 334.084 82.4262 333.68C82.4026 333.545 82.3792 333.41 82.3556 333.275C82.1325 331.992 82.1877 330.654 82.6729 329.46C82.7083 329.377 82.7513 329.288 82.7929 329.197C82.8346 329.107 82.8881 329.01 82.9435 328.911C83.1625 328.556 83.4117 328.22 83.6882 327.908C83.7785 327.804 83.8778 327.703 83.9765 327.604C84.8117 326.803 85.903 326.366 87.0451 326.065C87.0551 326.064 87.0653 326.065 87.0746 326.069C87.0839 326.073 87.0921 326.079 87.0982 326.087C87.1044 326.095 87.1083 326.104 87.1095 326.114C87.1107 326.124 87.1093 326.135 87.1053 326.144C86.9663 326.487 86.8905 326.853 86.8817 327.223C86.8763 327.591 86.8911 327.958 86.9258 328.323C86.9421 328.467 86.9608 328.612 86.9822 328.76C87.0452 329.203 87.1283 329.661 87.2095 330.11C87.2242 330.194 87.2406 330.288 87.2739 330.48C87.3002 330.631 87.3236 330.765 87.351 330.885C87.3783 331.005 87.3905 331.112 87.4134 331.207C87.4538 331.439 87.5071 331.677 87.5699 331.919C87.7475 332.598 87.9977 333.301 88.2047 333.943C88.2583 334.09 88.3055 334.218 88.3477 334.33C88.4017 334.472 88.4305 334.544 88.4499 334.593C88.484 334.677 88.571 334.897 88.7762 335.342C88.8518 335.509 88.9223 335.659 88.9499 335.718C88.9775 335.777 89.0172 335.856 89.0544 335.926C89.6353 337.043 90.7535 338.497 91.0109 338.788C91.1068 338.897 91.2042 339.002 91.2042 339.002C91.2042 339.002 91.307 339.114 91.4152 339.226C92.3396 340.182 93.7186 341.15 93.7186 341.15C94.6005 341.768 95.1752 342.171 96.0576 342.593C96.9401 343.016 97.6587 343.225 98.7113 343.531C99.4801 343.768 100.265 343.948 101.06 344.072C102.215 344.241 103.374 344.271 103.411 344.089C103.422 344.035 103.334 343.964 103.197 343.875C102.887 343.689 102.593 343.475 102.32 343.237C102.23 343.157 102.14 343.074 102.052 342.986C101.67 342.596 101.324 342.172 101.018 341.719C100.94 341.607 100.865 341.495 100.791 341.38C100.023 340.344 99.4357 339.185 99.0543 337.953C99.0221 337.867 98.9912 337.783 98.9602 337.698C98.9009 337.501 98.8697 337.327 98.9436 337.279C99.0795 337.189 99.1702 337.131 99.2583 337.071L99.2801 337.054" stroke="#173984" stroke-width="0.236756" stroke-miterlimit="10" stroke-linecap="round"></path> <path d="M96.0602 333.521C96.2596 333.422 96.535 333.281 96.8529 333.098C97.3375 332.837 97.8012 332.539 98.2399 332.207C98.6256 331.896 98.9867 331.555 99.3199 331.188C99.6529 330.837 99.9419 330.481 100.15 330.22C100.168 330.199 100.184 330.178 100.2 330.157" stroke="#173984" stroke-width="0.236756" stroke-miterlimit="10" stroke-linecap="round"></path> <path d="M96.1353 335.77C96.3465 335.739 96.6124 335.693 96.9206 335.622C97.2889 335.538 97.652 335.432 98.008 335.306C98.1242 335.264 98.4186 335.133 99.0042 334.876C99.164 334.805 99.343 334.72 99.4575 334.668L99.5056 334.646" stroke="#173984" stroke-width="0.236756" stroke-miterlimit="10" stroke-linecap="round"></path> <path d="M94.3823 338.965C94.6506 338.926 95.022 338.864 95.4636 338.769C95.8306 338.699 96.1931 338.607 96.5495 338.494C96.9558 338.357 97.3508 338.189 97.731 337.99C98.1036 337.804 98.4651 337.596 98.814 337.369C98.9745 337.264 99.1464 337.151 99.2848 337.056L99.2911 337.055C99.352 337.013 99.4063 336.977 99.4484 336.944" stroke="#173984" stroke-width="0.236756" stroke-miterlimit="10" stroke-linecap="round"></path> <path d="M88.8399 330.698C89.7896 330.533 90.4255 329.629 90.2602 328.68C90.095 327.73 89.1912 327.094 88.2415 327.259C87.2918 327.425 86.6559 328.328 86.8212 329.278C86.9864 330.228 87.8902 330.864 88.8399 330.698Z" fill="#C1E3F1" stroke="#1A171B" stroke-width="0.207049" stroke-miterlimit="10" stroke-linecap="round"></path> <path d="M94.4316 329.575C94.4276 329.384 94.386 329.196 94.3091 329.021C94.2321 328.846 94.1215 328.689 93.9835 328.557C93.8454 328.425 93.6827 328.321 93.5046 328.252C93.3266 328.184 93.1366 328.151 92.9458 328.155L90.2769 328.556" stroke="#1A171B" stroke-width="0.174641" stroke-miterlimit="10" stroke-linecap="round"></path> <path d="M88.6567 329.464C88.911 329.419 89.0812 329.177 89.037 328.923C88.9927 328.669 88.7507 328.499 88.4965 328.543C88.2422 328.587 88.072 328.829 88.1162 329.083C88.1605 329.338 88.4024 329.508 88.6567 329.464Z" fill="#293883" stroke="#293883" stroke-width="0.174641" stroke-miterlimit="10" stroke-linecap="round"></path> </g> </g> </g> <path d="M721.665 450.912L706.378 459.697C704.831 460.585 703.109 461.126 701.332 461.281C699.555 461.436 697.765 461.201 696.088 460.594C694.411 459.986 692.886 459.019 691.621 457.762C690.355 456.504 689.379 454.986 688.761 453.313C688.096 451.512 687.862 449.58 688.08 447.672C688.297 445.764 688.959 443.934 690.013 442.329C691.067 440.724 692.483 439.389 694.147 438.431C695.811 437.473 697.676 436.919 699.593 436.814L718.105 435.796L773.87 418.916L782.86 385.255L806.369 398.46L790.205 436.73L721.665 450.912Z" fill="#FFB8B8"></path> <path d="M794.549 276.201C798.085 280.21 797.447 285.032 794.872 288.947C792.296 292.862 788.01 296.119 784.259 299.573C781.85 301.792 779.621 304.147 778.541 306.817C777.947 308.182 777.752 309.688 777.98 311.159C778.209 312.63 778.85 314.007 779.83 315.128C782.286 318.033 786.861 320.001 791.325 321.687C804.091 326.477 817.262 330.104 830.68 332.524C819.376 319.317 813.718 304.442 814.547 290.115C814.721 287.108 815.167 284.073 814.117 281.059C813.396 279.25 812.256 277.638 810.79 276.356C809.325 275.073 807.575 274.157 805.687 273.682C801.194 272.392 795.276 273.668 794.587 276.612" fill="#2F2E41"></path> <path d="M891.388 700.044L875.213 700.747L843.288 553.282L870.993 554.473L891.388 700.044Z" fill="#FFB8B8"></path> <path d="M729.642 668.397L743.004 675.43L826.584 551.426L799.966 539.704L729.642 668.397Z" fill="#FFB8B8"></path> <path d="M822.804 322.618C808.674 322.618 797.219 311.163 797.219 297.033C797.219 282.903 808.674 271.448 822.804 271.448C836.934 271.448 848.389 282.903 848.389 297.033C848.389 311.163 836.934 322.618 822.804 322.618Z" fill="#FFB8B8"></path> <path d="M835.831 310.448C835.831 310.448 844.973 329.436 857.631 328.733C857.631 328.733 881.541 318.887 889.277 345.61L897.716 366.708L785.901 385.695C785.901 385.695 792.23 347.017 806.998 346.314C806.998 346.314 823.876 344.907 821.766 338.578C819.656 332.249 811.92 317.481 811.92 317.481L835.831 310.448Z" fill="#FFB8B8"></path> <path d="M798.56 407.495L815.438 444.063L801.528 503.17L733.785 630.306C733.785 630.306 764.983 658.296 772.76 662.785C779.506 666.68 835.669 561.119 837.72 539.362C838.397 532.182 850.712 677.633 850.712 677.633C850.712 677.633 897.139 669.972 910.104 667.425C910.104 667.425 900.763 601.268 895.256 539.362C891.01 491.644 894.871 448.399 870.994 427.889L873.103 387.101L816.844 384.991L798.56 407.495Z" fill="#22212B"></path> <path d="M885.941 727.167L860.119 730.917C858.118 731.662 855.911 731.636 853.928 730.844C851.945 730.051 850.329 728.549 849.393 726.629C848.633 725.07 848.362 723.317 848.617 721.601C848.872 719.886 849.64 718.287 850.82 717.016L861.78 705.213L869.669 688.191C874.386 683.373 877.611 685.077 879.414 692.994L892.024 689.034L895.33 711.259C895.825 714.585 895.163 717.98 893.453 720.876C891.744 723.772 889.092 725.993 885.941 727.167Z" fill="#22212B"></path> <path d="M738.759 703.911L712.666 703.82C710.577 704.263 708.398 703.912 706.553 702.837C704.709 701.761 703.331 700.037 702.687 698.001C702.165 696.347 702.156 694.573 702.66 692.913C703.165 691.254 704.159 689.786 705.514 688.702L718.092 678.64L728.399 662.965C733.774 658.893 736.713 661.053 737.331 669.149L750.387 667.088V689.557C750.387 692.92 749.232 696.181 747.115 698.794C744.998 701.406 742.048 703.213 738.759 703.911Z" fill="#22212B"></path> <path d="M835.727 257.705C840.073 255.805 845.244 256.55 849.44 258.761C853.636 260.973 856.988 264.499 859.922 268.225C870.025 281.119 875.916 296.809 876.796 313.166C877.026 317.637 876.81 322.362 874.482 326.187C871.924 330.389 867.242 332.802 862.604 334.444C847.056 339.862 829.997 338.924 815.136 331.833C822.95 325.497 830.18 318.473 836.74 310.846C837.969 309.417 839.254 307.582 838.629 305.803C838.235 304.938 837.625 304.188 836.857 303.628L821.794 290.547L822.173 295.838C819.177 295.663 816.299 294.614 813.893 292.821C811.487 291.028 809.659 288.568 808.635 285.748C809.362 287.214 807.975 289.014 806.373 289.344C804.77 289.673 803.148 289.013 801.645 288.366C798.001 286.798 794.042 284.93 792.425 281.307C791.916 280.03 791.672 278.662 791.709 277.287C791.746 275.913 792.062 274.56 792.638 273.312C793.808 270.821 795.476 268.596 797.541 266.776C802.607 262.099 808.771 258.775 815.463 257.111C822.154 255.447 829.157 255.498 835.824 257.258" fill="#2F2E41"></path> <path d="M840.839 447.252L829.605 460.84C828.468 462.215 827.045 463.326 825.436 464.094C823.826 464.863 822.067 465.271 820.283 465.29C818.5 465.309 816.733 464.939 815.107 464.205C813.481 463.472 812.034 462.392 810.868 461.042C809.613 459.589 808.717 457.861 808.251 455.999C807.786 454.136 807.764 452.19 808.188 450.317C808.611 448.445 809.469 446.698 810.691 445.217C811.913 443.736 813.466 442.563 815.224 441.792L832.203 434.344L878.503 398.976L875.113 364.3L901.761 368.419L900.048 409.928L840.839 447.252Z" fill="#FFB8B8"></path> <path d="M771.132 416.637C771.132 416.637 782.082 376.534 787.859 376.543C793.636 376.553 801.372 375.85 801.372 375.85C801.372 375.85 810.514 349.126 857.631 357.565C904.748 366.004 884.354 349.83 897.716 356.159C911.077 362.488 916 406.792 916 406.792C916 406.792 843.566 382.882 828.095 396.243C819.21 404.014 809.548 410.848 799.262 416.637C799.262 416.637 806.294 434.218 771.132 416.637Z" fill="#22212B"></path> </g> <defs> <clipPath id="clip0_1948_21903"> <rect width="916" height="731" fill="white"></rect> </clipPath> <clipPath id="clip1_1948_21903"> <rect x="76" y="323.057" width="29.4991" height="29.4991" rx="14.7496" transform="rotate(-9.87062 76 323.057)" fill="white"></rect> </clipPath> <clipPath id="clip2_1948_21903"> <rect width="21.2388" height="21.2025" fill="white" transform="translate(80.9473 326.821) rotate(-9.87062)"></rect> </clipPath> </defs> </svg> 