<?xml version="1.0" encoding="UTF-8"?> <svg xmlns="http://www.w3.org/2000/svg" width="856" height="560" viewBox="0 0 856 560" fill="none"> <path d="M506 37H411V39H506V37Z" fill="#CCCCCC"></path> <path d="M337 37H37V39H337V37Z" fill="#CCCCCC"></path> <path d="M37 75C57.4345 75 74 58.4345 74 38C74 17.5655 57.4345 1 37 1C16.5655 1 0 17.5655 0 38C0 58.4345 16.5655 75 37 75Z" fill="#1771F1"></path> <path d="M205 75C225.435 75 242 58.4345 242 38C242 17.5655 225.435 1 205 1C184.565 1 168 17.5655 168 38C168 58.4345 184.565 75 205 75Z" fill="#1E0E62"></path> <path d="M374 76C366.484 76 359.137 73.7713 352.888 69.5958C346.639 65.4204 341.769 59.4856 338.893 52.542C336.016 45.5984 335.264 37.9579 336.73 30.5866C338.196 23.2153 341.816 16.4444 347.13 11.13C352.444 5.81556 359.215 2.19642 366.587 0.730179C373.958 -0.736059 381.598 0.0164571 388.542 2.89259C395.486 5.76872 401.42 10.6393 405.596 16.8883C409.771 23.1374 412 30.4843 412 38C412 48.0782 407.996 57.7437 400.87 64.8701C393.744 71.9964 384.078 76 374 76ZM374 1.80977C366.842 1.80977 359.845 3.9323 353.894 7.90894C347.942 11.8856 343.304 17.5377 340.565 24.1506C337.825 30.7635 337.109 38.0402 338.505 45.0604C339.902 52.0806 343.348 58.5291 348.41 63.5904C353.471 68.6517 359.919 72.0984 366.94 73.4948C373.96 74.8913 381.237 74.1746 387.849 71.4354C394.462 68.6963 400.114 64.0577 404.091 58.1062C408.068 52.1548 410.19 45.1578 410.19 38C410.19 28.4018 406.377 19.1966 399.59 12.4097C392.803 5.62267 383.598 1.80977 374 1.80977Z" fill="#CCCCCC"></path> <path d="M542 76C534.484 76 527.137 73.7713 520.888 69.5958C514.639 65.4204 509.769 59.4856 506.893 52.542C504.016 45.5984 503.264 37.9579 504.73 30.5866C506.196 23.2153 509.816 16.4444 515.13 11.13C520.444 5.81556 527.215 2.19642 534.587 0.730179C541.958 -0.736059 549.598 0.0164571 556.542 2.89259C563.486 5.76872 569.42 10.6393 573.596 16.8883C577.771 23.1374 580 30.4843 580 38C580 48.0782 575.996 57.7437 568.87 64.8701C561.744 71.9964 552.078 76 542 76ZM542 1.80977C534.842 1.80977 527.845 3.9323 521.894 7.90894C515.942 11.8856 511.304 17.5377 508.565 24.1506C505.825 30.7635 505.109 38.0402 506.505 45.0604C507.902 52.0806 511.348 58.5291 516.41 63.5904C521.471 68.6517 527.919 72.0984 534.94 73.4948C541.96 74.8913 549.236 74.1746 555.849 71.4354C562.462 68.6963 568.114 64.0577 572.091 58.1062C576.068 52.1548 578.19 45.1578 578.19 38C578.19 33.2474 577.254 28.5414 575.435 24.1506C573.617 19.7598 570.951 15.7702 567.59 12.4097C564.23 9.04908 560.24 6.38332 555.849 4.56459C551.459 2.74586 546.753 1.80977 542 1.80977Z" fill="#CCCCCC"></path> <path d="M33.7848 49C33.1363 49.0005 32.5052 48.7895 31.9867 48.3987L31.9547 48.3746L25.1789 43.1749C24.5452 42.6874 24.1305 41.9673 24.0259 41.173C23.9214 40.3787 24.1356 39.5753 24.6215 38.9394C25.1074 38.3036 25.8251 37.8875 26.6168 37.7826C27.4085 37.6777 28.2093 37.8927 28.8431 38.3802L33.2314 41.7568L43.6014 28.1823C44.0871 27.5468 44.8044 27.1309 45.5957 27.026C46.387 26.9211 47.1874 27.1359 47.8209 27.6231L47.757 27.7123L47.8229 27.6231C48.4558 28.111 48.8698 28.8309 48.9741 29.6249C49.0785 30.4188 48.8645 31.2218 48.3793 31.8576L36.1812 47.8163C35.8987 48.1843 35.5355 48.482 35.1197 48.6862C34.7039 48.8904 34.2467 48.9958 33.7838 48.994L33.7848 49Z" fill="white"></path> <path d="M656.321 195.516C657.012 195.83 657.677 196.2 658.309 196.62L721.497 169.743L723.751 153.155L749 153L747.508 191.049L664.106 213.034C663.93 213.611 663.719 214.177 663.475 214.729C662.269 217.293 660.329 219.445 657.9 220.914C655.471 222.384 652.661 223.105 649.822 222.988C646.982 222.87 644.241 221.92 641.943 220.255C639.644 218.59 637.89 216.286 636.901 213.631C635.912 210.976 635.733 208.089 636.385 205.333C637.037 202.576 638.492 200.073 640.566 198.138C642.641 196.203 645.243 194.922 648.046 194.456C650.849 193.99 653.727 194.36 656.32 195.519L656.321 195.516Z" fill="#FEB8B8"></path> <path d="M756.998 542H740.058L732 475H757L756.998 542Z" fill="#FEB8B8"></path> <path d="M727.864 537.007H761V558H707C707 552.43 709.198 547.089 713.111 543.151C717.024 539.213 722.33 537 727.864 537V537.007Z" fill="#2F2E41"></path> <path d="M825 537.309L807.756 539L793 473.493L818.452 471L825 537.309Z" fill="#FEB8B8"></path> <path d="M794.873 535.241L827.949 532L830 552.718L776.101 558C775.557 552.506 777.229 547.021 780.749 542.753C784.269 538.485 789.35 535.783 794.872 535.241H794.873Z" fill="#2F2E41"></path> <path d="M762.5 83C781.554 83 797 67.5538 797 48.5C797 29.4462 781.554 14 762.5 14C743.446 14 728 29.4462 728 48.5C728 67.5538 743.446 83 762.5 83Z" fill="#FEB8B8"></path> <path d="M736.817 528C735.342 528.002 733.913 527.482 732.783 526.53C731.652 525.579 730.892 524.257 730.637 522.798C721.76 473.285 692.718 311.354 692.023 306.865C692.007 306.762 691.999 306.658 692 306.554V294.479C691.999 294.039 692.136 293.61 692.391 293.252L696.226 287.861C696.409 287.601 696.648 287.387 696.925 287.235C697.203 287.082 697.512 286.996 697.828 286.982C719.7 285.953 791.316 282.934 794.776 287.276C798.251 291.634 797.016 304.859 796.735 307.464L796.749 307.736L828.927 514.397C829.179 516.045 828.774 517.727 827.8 519.078C826.827 520.429 825.362 521.341 823.724 521.615L803.628 524.94C802.131 525.182 800.598 524.876 799.307 524.078C798.016 523.28 797.053 522.043 796.593 520.592C790.378 500.645 769.536 433.543 762.312 407.578C762.273 407.407 762.171 407.256 762.027 407.157C761.883 407.058 761.707 407.017 761.534 407.042C761.361 407.067 761.204 407.157 761.093 407.293C760.983 407.429 760.928 407.602 760.939 407.777C761.3 432.529 762.172 495.677 762.479 517.488L762.511 519.837C762.524 521.428 761.943 522.965 760.882 524.146C759.821 525.326 758.358 526.065 756.782 526.214L737.403 527.978C737.208 527.995 737.013 528.002 736.817 528Z" fill="#2F2E41"></path> <path d="M740.782 96.2239C734.761 99.8216 731.158 106.431 729.092 113.169C725.264 125.624 722.961 138.5 722.232 151.515L720.046 190.478L693 293.784C716.442 313.721 729.961 309.189 761.516 292.882C793.071 276.575 796.676 298.318 796.676 298.318L802.985 210.419L812 114.368C809.976 111.918 807.685 109.705 805.171 107.769C796.839 101.255 787.144 96.7263 776.818 94.5252C766.492 92.3241 755.803 92.5075 745.558 95.0618L740.782 96.2239Z" fill="black"></path> <path d="M731.787 217.214C732.512 217.488 733.214 217.82 733.887 218.205L795.983 186.798L797.014 169.784L822.628 168L824 206.783L741.019 234.514C740.342 237.452 738.796 240.112 736.586 242.141C734.376 244.169 731.607 245.47 728.648 245.869C725.688 246.269 722.679 245.748 720.019 244.377C717.36 243.006 715.177 240.849 713.76 238.194C712.343 235.538 711.761 232.51 712.089 229.511C712.418 226.513 713.642 223.686 715.599 221.408C717.557 219.13 720.154 217.508 723.046 216.758C725.938 216.008 728.987 216.165 731.788 217.209L731.787 217.214Z" fill="#FEB8B8"></path> <path d="M811.963 114.855C827.297 120.25 830 178.706 830 178.706C811.96 168.814 790.311 185 790.311 185C790.311 185 785.802 169.712 780.389 149.93C778.755 144.365 778.559 138.479 779.821 132.819C781.082 127.159 783.76 121.909 787.604 117.557C787.604 117.557 796.628 109.457 811.963 114.855Z" fill="black"></path> <path d="M793.797 57.1946C789.474 53.7606 783.576 60 783.576 60L780.118 29.1008C780.118 29.1008 758.503 31.6721 744.667 28.242C730.83 24.812 728.671 40.695 728.671 40.695C727.957 34.2806 727.813 27.8164 728.238 21.3769C729.103 13.6501 740.342 5.92336 760.229 0.771831C780.116 -4.3797 790.491 17.9429 790.491 17.9429C804.333 24.806 798.125 60.6326 793.797 57.1946Z" fill="#131313"></path> <path d="M632.161 235H316.839C315.291 234.998 313.807 234.382 312.712 233.286C311.618 232.19 311.002 230.704 311 229.154V150.846C311.002 149.296 311.618 147.81 312.712 146.714C313.807 145.618 315.291 145.002 316.839 145H632.161C633.709 145.002 635.193 145.618 636.288 146.714C637.382 147.81 637.998 149.296 638 150.846V229.154C637.998 230.704 637.382 232.19 636.288 233.286C635.193 234.382 633.709 234.998 632.161 235ZM316.839 147.339C315.91 147.34 315.02 147.71 314.363 148.368C313.706 149.025 313.336 149.917 313.335 150.847V229.155C313.336 230.085 313.706 230.977 314.362 231.635C315.019 232.292 315.91 232.662 316.839 232.663H632.161C633.09 232.662 633.981 232.292 634.638 231.635C635.295 230.977 635.664 230.085 635.665 229.155V150.846C635.664 149.916 635.295 149.024 634.638 148.366C633.981 147.709 633.09 147.339 632.161 147.338L316.839 147.339Z" fill="#CCCCCC"></path> <path d="M420.968 171C419.916 171 418.906 171.421 418.162 172.172C417.418 172.922 417 173.939 417 175C417 176.061 417.418 177.078 418.162 177.828C418.906 178.579 419.916 179 420.968 179H608.032C609.084 179 610.094 178.579 610.838 177.828C611.582 177.078 612 176.061 612 175C612 173.939 611.582 172.922 610.838 172.172C610.094 171.421 609.084 171 608.032 171H420.968Z" fill="#CCCCCC"></path> <path d="M420.949 195C419.901 195 418.897 195.421 418.157 196.172C417.416 196.922 417 197.939 417 199C417 200.061 417.416 201.078 418.157 201.828C418.897 202.579 419.901 203 420.949 203H501.051C502.099 203 503.103 202.579 503.843 201.828C504.584 201.078 505 200.061 505 199C505 197.939 504.584 196.922 503.843 196.172C503.103 195.421 502.099 195 501.051 195H420.949Z" fill="#CCCCCC"></path> <path d="M366 211C379.255 211 390 200.255 390 187C390 173.745 379.255 163 366 163C352.745 163 342 173.745 342 187C342 200.255 352.745 211 366 211Z" fill="#CCCCCC"></path> <path d="M362.135 200C361.33 200.001 360.548 199.743 359.904 199.264L359.864 199.234L351.464 192.853C350.677 192.254 350.162 191.37 350.032 190.395C349.902 189.42 350.168 188.434 350.77 187.653C351.373 186.872 352.263 186.361 353.245 186.232C354.227 186.103 355.22 186.366 356.007 186.964L361.448 191.107L374.306 174.451C374.908 173.671 375.798 173.161 376.779 173.032C377.76 172.903 378.752 173.167 379.538 173.764L379.458 173.874L379.541 173.764C380.325 174.363 380.838 175.246 380.968 176.22C381.097 177.194 380.832 178.179 380.231 178.96L365.108 198.554C364.758 199.005 364.308 199.37 363.793 199.621C363.278 199.871 362.712 200.001 362.139 199.999L362.135 200Z" fill="#1771F1"></path> <g style="mix-blend-mode:screen"> <g clip-path="url(#clip0_1948_22029)"> <path d="M782.228 137.824C782.281 137.868 782.782 137.724 783.361 137.605C783.643 137.556 783.922 137.488 784.196 137.401C784.538 137.265 784.514 137.291 784.754 137.204C784.929 137.139 784.73 137.843 784.634 138.137C784.415 138.737 784.116 139.303 783.745 139.819C783.56 140.073 783.349 140.313 783.349 140.313C783.242 140.437 783.145 140.539 783.081 140.604C783.081 140.604 782.985 140.703 782.887 140.796C782.553 141.117 780.914 142.08 780.747 142.126C780.711 142.136 780.707 142.142 780.73 142.147C780.914 142.181 782.808 142.061 783.261 142.187C783.351 142.212 783.242 142.404 783.138 142.541C783.079 142.617 783.016 142.688 782.949 142.755C782.14 143.492 781.127 143.95 780.122 144.49L780.116 144.49L780.091 144.504C779.994 144.547 779.896 144.588 779.747 144.652C779.666 144.686 779.664 144.867 779.685 145.074C779.7 145.164 779.714 145.255 779.73 145.346C779.872 146.65 780.227 147.919 780.781 149.101C780.832 149.23 780.882 149.356 780.938 149.483C781.152 149.993 781.409 150.483 781.707 150.946C781.777 151.055 781.848 151.15 781.922 151.247C782.143 151.537 782.388 151.806 782.655 152.051C782.771 152.162 782.844 152.254 782.823 152.306C782.753 152.481 781.633 152.231 780.543 151.842C779.794 151.568 779.065 151.238 778.363 150.856C777.397 150.351 776.751 150.013 775.96 149.415C775.169 148.817 774.698 148.31 773.956 147.528C773.956 147.528 772.797 146.3 772.076 145.168C771.991 145.036 771.912 144.905 771.912 144.905C771.912 144.905 771.837 144.781 771.764 144.654C771.568 144.314 770.752 142.65 770.395 141.423C770.631 141.439 770.869 141.414 771.097 141.349C771.224 141.315 771.348 141.273 771.47 141.223C772.561 140.777 773.59 140.032 774.229 139.096C774.29 139.008 774.354 138.914 774.417 138.812C774.557 138.583 774.673 138.338 774.761 138.083C774.837 137.859 774.893 137.628 774.926 137.393C774.941 137.285 774.952 137.176 774.96 137.079C774.965 136.808 774.969 136.536 774.965 136.259C774.967 136.124 774.959 135.988 774.952 135.854C774.939 135.439 774.858 135.03 774.712 134.643C774.665 134.514 774.609 134.389 774.547 134.268C774.009 133.029 772.63 132.532 771.477 132.34C771.371 132.326 771.266 132.315 771.161 132.309C770.948 132.294 770.734 132.293 770.521 132.305C770.391 132.315 770.264 132.328 770.152 132.342L769.901 132.31C769.978 131.941 770.12 131.59 770.318 131.273C770.324 131.265 770.327 131.255 770.328 131.245C770.329 131.234 770.327 131.224 770.322 131.215C770.318 131.206 770.311 131.198 770.302 131.193C770.294 131.187 770.284 131.184 770.274 131.183L770.38 131.178C772.35 131.093 774.216 131.845 775.309 133.609C775.372 133.713 775.435 133.82 775.494 133.932C775.554 134.044 775.609 134.135 775.66 134.239C775.711 134.342 775.756 134.448 775.796 134.556C775.845 134.676 775.89 134.797 775.93 134.92C775.97 135.043 776.031 135.18 776.076 135.313C776.231 135.327 776.383 135.339 776.536 135.349C776.689 135.359 776.84 135.367 776.989 135.372C777.095 135.374 777.19 135.375 777.29 135.377C777.642 135.396 777.996 135.38 778.345 135.329C778.464 135.311 778.581 135.291 778.698 135.267C779.355 135.091 779.995 134.855 780.613 134.564C780.734 134.506 780.854 134.446 780.972 134.383C782.09 133.886 783.027 133.046 783.792 132.093C783.839 132.019 783.882 131.949 783.921 131.891C783.999 131.773 784.06 131.699 784.111 131.715C784.146 131.725 784.167 131.78 784.183 131.874C784.198 131.969 784.208 132.109 784.221 132.292C784.219 132.416 784.217 132.541 784.224 132.665C784.23 132.789 784.22 132.917 784.218 133.042C784.117 134.299 784.005 135.535 783.241 136.547C783.176 136.668 783.108 136.787 783.04 136.906C782.958 137.031 782.866 137.148 782.764 137.256L782.678 137.349L782.588 137.442L782.501 137.529C782.394 137.635 782.294 137.728 782.26 137.756C782.226 137.784 782.216 137.812 782.228 137.824Z" fill="#00B2E4"></path> <path d="M769.871 136.943C769.856 136.692 769.849 136.448 769.853 136.212C769.854 136.115 769.856 136.007 769.852 135.884C769.848 135.761 769.856 135.624 769.853 135.47C769.856 135.275 769.857 135.179 769.859 135.094C769.866 134.637 769.867 134.17 769.887 133.722C769.89 133.572 769.902 133.426 769.912 133.282C769.946 132.914 769.999 132.549 770.071 132.187L770.304 132.219C770.409 132.205 770.529 132.192 770.652 132.183C770.852 132.17 771.054 132.171 771.254 132.186C771.353 132.187 771.452 132.203 771.551 132.216C772.641 132.405 773.936 132.896 774.442 134.113C774.501 134.233 774.553 134.356 774.597 134.482C774.735 134.864 774.811 135.267 774.823 135.676C774.829 135.808 774.833 135.942 774.834 136.075C774.838 136.345 774.834 136.615 774.829 136.883C774.822 136.983 774.811 137.086 774.797 137.192C774.766 137.424 774.713 137.651 774.641 137.872C774.558 138.124 774.449 138.365 774.317 138.591C774.257 138.697 774.197 138.783 774.139 138.87C773.537 139.791 772.567 140.525 771.539 140.968C771.424 141.017 771.307 141.059 771.188 141.093C770.973 141.157 770.749 141.181 770.526 141.165C770.505 141.089 770.485 141.013 770.467 140.941C770.45 140.869 770.414 140.717 770.374 140.539C770.265 140.057 770.224 139.829 770.207 139.74C770.198 139.688 770.184 139.612 770.16 139.461C770.141 139.344 770.12 139.208 770.097 139.054C770.02 138.389 769.915 137.644 769.871 136.943Z" fill="#D5EAF3"></path> <path d="M770.689 140.96C770.711 141.028 770.735 141.1 770.761 141.172C770.592 141.161 770.426 141.129 770.266 141.08C770.116 141.046 769.968 141.001 769.826 140.945C769.119 140.673 768.518 140.194 767.997 139.671C767.922 139.591 767.848 139.51 767.778 139.428C767.427 139.021 767.141 138.577 766.927 138.106C766.88 137.963 766.843 137.818 766.816 137.671L766.816 137.66C767.792 137.277 768.842 137.073 769.97 137.178C770.025 137.841 770.154 138.541 770.248 139.175C770.277 139.321 770.302 139.449 770.325 139.56C770.355 139.702 770.371 139.774 770.382 139.824C770.402 139.908 770.452 140.128 770.585 140.579C770.625 140.748 770.671 140.9 770.689 140.96Z" fill="#0091CE"></path> <path d="M769.864 131.157C769.874 131.157 769.884 131.16 769.892 131.166C769.901 131.171 769.908 131.179 769.913 131.188C769.917 131.197 769.919 131.206 769.919 131.216C769.918 131.226 769.915 131.236 769.909 131.244C769.705 131.552 769.561 131.894 769.482 132.252C769.405 132.608 769.348 132.968 769.311 133.331C769.3 133.473 769.292 133.618 769.285 133.765C769.264 134.208 769.26 134.669 769.256 135.12C769.254 135.204 769.253 135.299 769.25 135.491C769.247 135.643 769.245 135.778 769.25 135.9C769.254 136.022 769.246 136.128 769.251 136.224C769.248 136.458 769.256 136.698 769.272 136.946C768.238 136.839 767.286 137.054 766.394 137.455C766.194 137.545 765.997 137.645 765.802 137.751C765.688 137.811 765.574 137.871 765.462 137.933C765.369 137.985 765.277 138.035 765.185 138.093C765.093 138.151 765.003 138.205 764.914 138.263C764.759 138.336 764.567 138.517 764.391 138.636C764.305 138.702 764.222 138.772 764.139 138.843C764.055 138.915 763.974 138.987 763.895 139.063C763.842 139.037 763.822 139.011 763.81 138.914C763.816 138.514 763.811 138.109 763.815 137.704C763.817 137.568 763.819 137.433 763.822 137.296C763.842 136.008 764.15 134.718 764.859 133.647C764.91 133.572 764.97 133.494 765.029 133.414C765.087 133.333 765.159 133.249 765.233 133.164C765.518 132.859 765.83 132.579 766.164 132.326C766.274 132.242 766.392 132.162 766.509 132.085C767.492 131.46 768.662 131.238 769.856 131.158L769.864 131.157Z" fill="#0091CE"></path> <path d="M770.052 132.216C770.164 132.202 770.29 132.189 770.42 132.18C770.631 132.168 770.843 132.169 771.055 132.183C771.159 132.185 771.264 132.201 771.368 132.214C772.518 132.403 773.884 132.896 774.419 134.113C774.481 134.233 774.536 134.356 774.583 134.483C774.728 134.864 774.808 135.268 774.821 135.677C774.828 135.809 774.833 135.942 774.834 136.076C774.838 136.346 774.834 136.616 774.83 136.883C774.822 136.984 774.811 137.087 774.795 137.193C774.763 137.424 774.708 137.652 774.632 137.873C774.544 138.124 774.429 138.365 774.29 138.591C774.228 138.697 774.164 138.784 774.103 138.87C773.468 139.791 772.447 140.524 771.363 140.966C771.242 141.015 771.119 141.056 770.993 141.09C770.766 141.154 770.53 141.178 770.295 141.163C770.146 141.151 769.999 141.118 769.859 141.066C769.725 141.03 769.595 140.983 769.47 140.925C768.846 140.639 768.316 140.133 767.858 139.582C767.791 139.497 767.726 139.412 767.665 139.325C767.356 138.896 767.104 138.427 766.917 137.93C766.875 137.778 766.843 137.625 766.819 137.469" stroke="#173984" stroke-width="0.236756" stroke-miterlimit="10" stroke-linecap="round"></path> <path d="M779.975 144.32C781.012 143.786 782.059 143.335 782.892 142.608C782.961 142.541 783.026 142.471 783.086 142.396C783.198 142.259 783.309 142.072 783.213 142.047C782.746 141.919 780.79 142.037 780.6 142.005C780.576 142.005 780.581 141.994 780.618 141.984C780.791 141.94 782.485 140.985 782.826 140.672C782.927 140.581 783.026 140.483 783.026 140.483C783.093 140.418 783.192 140.318 783.303 140.195C783.303 140.195 783.525 139.959 783.712 139.708C784.094 139.199 784.402 138.64 784.628 138.046C784.73 137.756 784.935 137.062 784.751 137.125C784.504 137.211 784.532 137.185 784.175 137.32C783.893 137.405 783.605 137.473 783.313 137.521C782.715 137.643 782.198 137.78 782.143 137.736C782.129 137.726 782.144 137.707 782.183 137.674C782.221 137.642 782.316 137.559 782.431 137.45L782.521 137.364L782.614 137.273L782.702 137.181C782.807 137.074 782.902 136.959 782.986 136.836C783.057 136.718 783.127 136.6 783.194 136.481C783.982 135.48 784.101 134.261 784.2 133.019C784.202 132.896 784.204 132.771 784.206 132.647C784.208 132.523 784.203 132.401 784.203 132.278C784.189 132.098 784.179 131.961 784.163 131.866C784.147 131.77 784.125 131.718 784.089 131.708C784.036 131.692 783.973 131.765 783.892 131.882C783.852 131.939 783.808 132.008 783.76 132.081C782.971 133.022 782.004 133.851 780.85 134.341C780.729 134.404 780.605 134.463 780.48 134.52C779.844 134.808 779.184 135.041 778.508 135.215C778.388 135.239 778.266 135.259 778.144 135.276C777.783 135.327 777.419 135.343 777.055 135.323C776.946 135.321 776.849 135.32 776.744 135.318C776.59 135.316 776.433 135.305 776.277 135.295C776.12 135.285 775.961 135.273 775.801 135.259C775.756 135.128 775.704 134.998 775.651 134.871C775.597 134.744 775.563 134.629 775.512 134.511C775.47 134.404 775.424 134.299 775.372 134.197C775.319 134.089 775.266 133.994 775.2 133.895C775.134 133.795 775.074 133.678 775.008 133.575C773.88 131.832 771.952 131.088 769.919 131.17" stroke="#173984" stroke-width="0.236756" stroke-miterlimit="10" stroke-linecap="round"></path> <path d="M769.226 137.112C768.2 137.002 767.255 137.224 766.371 137.638C766.172 137.731 765.976 137.833 765.784 137.943C765.67 138.004 765.557 138.067 765.446 138.13C765.354 138.184 765.262 138.236 765.171 138.295C765.08 138.354 764.991 138.411 764.902 138.47C764.748 138.545 764.557 138.732 764.383 138.854C764.298 138.922 764.215 138.994 764.133 139.067C764.05 139.141 763.969 139.216 763.891 139.294C763.837 139.267 763.819 139.241 763.806 139.14C763.813 138.729 763.808 138.313 763.812 137.895C763.814 137.755 763.816 137.616 763.819 137.476C763.84 136.151 764.146 134.822 764.85 133.72C764.901 133.643 764.96 133.563 765.018 133.48C765.077 133.397 765.148 133.311 765.221 133.223C765.504 132.909 765.814 132.62 766.146 132.36C766.254 132.274 766.372 132.191 766.488 132.112C767.464 131.469 768.624 131.239 769.809 131.156C769.819 131.156 769.829 131.16 769.837 131.165C769.846 131.171 769.853 131.178 769.857 131.188C769.862 131.197 769.864 131.207 769.863 131.217C769.863 131.227 769.859 131.237 769.854 131.246C769.651 131.563 769.508 131.914 769.429 132.283C769.355 132.65 769.3 133.02 769.266 133.392C769.255 133.539 769.246 133.687 769.239 133.84C769.218 134.294 769.214 134.769 769.21 135.233C769.208 135.32 769.207 135.418 769.204 135.615C769.201 135.772 769.199 135.911 769.203 136.036C769.208 136.161 769.2 136.271 769.205 136.37C769.201 136.61 769.209 136.858 769.225 137.112C769.273 137.825 769.387 138.576 769.471 139.258C769.496 139.414 769.519 139.552 769.54 139.672C769.566 139.824 769.581 139.902 769.591 139.955C769.609 140.045 769.653 140.282 769.772 140.766C769.816 140.947 769.857 141.111 769.873 141.175C769.889 141.24 769.914 141.326 769.937 141.403C770.301 142.632 771.132 144.299 771.331 144.639C771.405 144.766 771.482 144.89 771.482 144.89C771.482 144.89 771.562 145.021 771.648 145.153C772.381 146.286 773.561 147.516 773.561 147.516C774.316 148.303 774.808 148.815 775.6 149.406C776.392 149.996 777.063 150.343 778.045 150.848C778.76 151.232 779.502 151.562 780.264 151.837C781.372 152.226 782.512 152.476 782.583 152.302C782.604 152.25 782.53 152.162 782.412 152.047C782.14 151.801 781.891 151.532 781.666 151.242C781.591 151.144 781.519 151.044 781.447 150.939C781.144 150.476 780.882 149.986 780.665 149.475C780.609 149.348 780.556 149.222 780.505 149.093C779.941 147.91 779.579 146.639 779.434 145.333C779.419 145.242 779.404 145.151 779.389 145.061C779.368 144.852 779.37 144.673 779.452 144.638C779.603 144.574 779.703 144.534 779.802 144.491L779.827 144.477" stroke="#173984" stroke-width="0.236756" stroke-miterlimit="10" stroke-linecap="round"></path> <path d="M777.76 141.284C777.99 141.215 778.309 141.114 778.682 140.975C779.246 140.784 779.795 140.546 780.325 140.264C780.795 139.994 781.245 139.686 781.671 139.342C782.093 139.016 782.47 138.675 782.742 138.424C782.765 138.405 782.786 138.384 782.807 138.364" stroke="#173984" stroke-width="0.236756" stroke-miterlimit="10" stroke-linecap="round"></path> <path d="M776.728 143.262C776.91 143.274 777.141 143.278 777.411 143.25C777.734 143.218 778.056 143.145 778.376 143.032C778.48 142.993 778.749 142.85 779.284 142.572C779.43 142.494 779.595 142.397 779.7 142.341L779.744 142.315" stroke="#173984" stroke-width="0.236756" stroke-miterlimit="10" stroke-linecap="round"></path> <path d="M774.681 146.23C774.935 146.241 775.287 146.248 775.71 146.24C776.06 146.239 776.41 146.22 776.758 146.181C777.156 146.129 777.549 146.049 777.933 145.939C778.308 145.839 778.677 145.719 779.038 145.579C779.204 145.514 779.382 145.444 779.526 145.385L779.532 145.385C779.596 145.359 779.652 145.336 779.696 145.315" stroke="#173984" stroke-width="0.236756" stroke-miterlimit="10" stroke-linecap="round"></path> <path d="M770.325 137.165C771.153 137.178 771.839 136.293 771.856 135.189C771.874 134.085 771.216 133.179 770.388 133.165C769.56 133.152 768.874 134.037 768.856 135.141C768.839 136.246 769.496 137.152 770.325 137.165Z" fill="#C1E3F1" stroke="#1A171B" stroke-width="0.207049" stroke-miterlimit="10" stroke-linecap="round"></path> <path d="M776.823 136.268C776.855 136.049 776.85 135.824 776.807 135.607C776.764 135.391 776.684 135.186 776.571 135.005C776.459 134.825 776.316 134.671 776.152 134.554C775.987 134.437 775.804 134.358 775.613 134.322L772.872 134.205" stroke="#1A171B" stroke-width="0.174641" stroke-miterlimit="10" stroke-linecap="round"></path> <path d="M771.356 135.181C771.632 135.185 771.86 134.965 771.864 134.689C771.868 134.413 771.648 134.185 771.372 134.181C771.096 134.176 770.869 134.397 770.864 134.673C770.86 134.949 771.08 135.176 771.356 135.181Z" fill="#293883" stroke="#293883" stroke-width="0.174641" stroke-miterlimit="10" stroke-linecap="round"></path> </g> </g> <defs> <clipPath id="clip0_1948_22029"> <rect width="21" height="22" fill="white" transform="matrix(0.999874 0.0158769 -0.0158593 0.999874 763.92 131.062)"></rect> </clipPath> </defs> </svg> 