<?xml version="1.0" encoding="UTF-8"?> <svg xmlns="http://www.w3.org/2000/svg" width="821" height="639" viewBox="0 0 821 639" fill="none"> <g clip-path="url(#clip0_1933_22567)"> <path d="M822.876 0.398438H119.3V451H822.876V0.398438Z" fill="#E6E6E6"></path> <path d="M802.757 56.915H139.419V228.688H802.757V56.915Z" fill="white"></path> <path d="M407.482 166.346H304.418V174.398H407.482V166.346Z" fill="#E6E6E6"></path> <path d="M459.968 193.915H304.418V201.968H459.968V193.915Z" fill="#E6E6E6"></path> <path d="M257.658 161.888H240.48V179.065H257.658V161.888Z" fill="#E6E6E6"></path> <path d="M257.658 189.562H240.48V206.74H257.658V189.562Z" fill="#E6E6E6"></path> <path d="M802.757 252.546H139.419V424.319H802.757V252.546Z" fill="white"></path> <path d="M287.241 267.812H270.063V284.99H287.241V267.812Z" fill="#E6E6E6"></path> <path d="M257.658 267.812H240.48V284.99H257.658V267.812Z" fill="#1771F1"></path> <path d="M531.724 305.376C526.488 296.512 519.224 289.018 510.528 283.509C501.832 278 491.952 274.633 481.702 273.686C471.451 272.739 461.122 274.239 451.564 278.062C442.006 281.885 433.491 287.921 426.721 295.676L422.535 292.018C429.882 283.599 439.124 277.045 449.499 272.894C459.873 268.744 471.085 267.115 482.212 268.143C493.339 269.171 504.063 272.825 513.502 278.806C522.941 284.786 530.826 292.922 536.508 302.544L531.724 305.376Z" fill="#E6E6E6"></path> <path d="M534.344 377.794L529.73 374.692C536.563 364.501 540.376 352.586 540.729 340.322C541.082 328.057 537.96 315.942 531.724 305.376L536.508 302.544C543.279 314.015 546.669 327.167 546.286 340.481C545.903 353.796 541.763 366.731 534.344 377.794Z" fill="#1771F1"></path> <path d="M423.114 385.539C411.623 372.705 405.221 356.113 405.115 338.888C405.008 321.662 411.204 304.992 422.535 292.018L426.721 295.676C416.283 307.628 410.575 322.985 410.674 338.854C410.772 354.722 416.669 370.007 427.254 381.83L423.114 385.539Z" fill="#1771F1"></path> <path d="M475.714 409.052C465.787 409.045 455.973 406.947 446.911 402.896C437.848 398.844 429.74 392.93 423.114 385.538L427.255 381.829C433.864 389.214 442.074 394.99 451.257 398.717C460.44 402.445 470.353 404.024 480.239 403.336C490.126 402.647 499.724 399.708 508.301 394.744C516.879 389.78 524.208 382.921 529.73 374.691L534.344 377.793C527.89 387.418 519.164 395.304 508.939 400.756C498.713 406.208 487.302 409.057 475.714 409.052Z" fill="#1771F1"></path> <path d="M709.993 305.032H652.735V362.29H709.993V305.032Z" fill="#E6E6E6"></path> <path d="M738.258 153H681V210.258H738.258V153Z" fill="#E6E6E6"></path> <path d="M295.352 342.249H238.095V399.507H295.352V342.249Z" fill="#E6E6E6"></path> <path d="M822.576 0H119V29.8905H822.576V0Z" fill="#173984"></path> <path d="M141.212 20.8212C144.272 20.8212 146.752 18.3408 146.752 15.2812C146.752 12.2215 144.272 9.74121 141.212 9.74121C138.153 9.74121 135.672 12.2215 135.672 15.2812C135.672 18.3408 138.153 20.8212 141.212 20.8212Z" fill="white"></path> <path d="M162.241 20.8212C165.3 20.8212 167.781 18.3408 167.781 15.2812C167.781 12.2215 165.3 9.74121 162.241 9.74121C159.181 9.74121 156.701 12.2215 156.701 15.2812C156.701 18.3408 159.181 20.8212 162.241 20.8212Z" fill="white"></path> <path d="M183.269 20.8212C186.329 20.8212 188.809 18.3408 188.809 15.2812C188.809 12.2215 186.329 9.74121 183.269 9.74121C180.209 9.74121 177.729 12.2215 177.729 15.2812C177.729 18.3408 180.209 20.8212 183.269 20.8212Z" fill="white"></path> <g clip-path="url(#clip1_1933_22567)"> <path d="M496.31 97.194C496.492 97.3366 498.179 96.8373 500.13 96.4163C501.082 96.2409 502.022 96.0026 502.943 95.7029C504.092 95.2357 504.013 95.3248 504.819 95.0252C505.408 94.804 504.773 97.1262 504.463 98.0964C503.756 100.082 502.775 101.958 501.549 103.672C500.936 104.517 500.237 105.316 500.237 105.316C499.88 105.73 499.559 106.069 499.345 106.286C499.345 106.286 499.024 106.618 498.699 106.928C497.587 107.999 492.098 111.252 491.535 111.409C491.413 111.444 491.399 111.466 491.477 111.48C492.102 111.583 498.5 111.088 500.037 111.48C500.344 111.558 499.987 112.193 499.641 112.65C499.447 112.9 499.237 113.139 499.013 113.363C496.317 115.828 492.918 117.383 489.548 119.213H489.527L489.445 119.26C489.12 119.406 488.788 119.545 488.289 119.763C488.018 119.88 488.022 120.476 488.104 121.154C488.157 121.45 488.211 121.746 488.268 122.046C488.818 126.323 490.087 130.477 492.023 134.33C492.201 134.751 492.38 135.165 492.576 135.579C493.325 137.244 494.221 138.839 495.254 140.344C495.497 140.701 495.743 141.008 495.996 141.325C496.759 142.265 497.603 143.137 498.518 143.929C498.917 144.286 499.167 144.586 499.099 144.757C498.874 145.335 495.072 144.571 491.367 143.351C488.819 142.49 486.338 141.444 483.942 140.223C480.65 138.614 478.446 137.537 475.739 135.614C473.032 133.692 471.413 132.047 468.863 129.518C468.863 129.518 464.879 125.541 462.379 121.86C462.087 121.432 461.812 121.004 461.812 121.004C461.812 121.004 461.552 120.601 461.299 120.187C460.617 119.081 457.768 113.652 456.495 109.639C457.295 109.68 458.097 109.586 458.866 109.361C459.292 109.242 459.71 109.096 460.118 108.926C463.784 107.403 467.222 104.902 469.334 101.792C469.537 101.499 469.747 101.189 469.954 100.85C470.416 100.089 470.793 99.279 471.078 98.4353C471.325 97.6955 471.499 96.9333 471.598 96.1595C471.645 95.8028 471.677 95.4461 471.698 95.1251C471.698 94.2333 471.698 93.3416 471.67 92.432C471.67 91.9861 471.634 91.5402 471.605 91.1015C471.539 89.7381 471.242 88.3958 470.728 87.1313C470.561 86.712 470.368 86.3034 470.15 85.9078C468.264 81.8664 463.574 80.304 459.665 79.7333C459.308 79.6941 458.952 79.662 458.595 79.6477C457.875 79.6102 457.153 79.6174 456.434 79.6691C455.992 79.7083 455.564 79.7583 455.186 79.8082L454.337 79.7155C454.578 78.5004 455.037 77.3391 455.692 76.2876C455.711 76.2594 455.721 76.2268 455.723 76.1932C455.724 76.1595 455.717 76.1261 455.701 76.0963C455.686 76.0664 455.662 76.0413 455.634 76.0235C455.605 76.0057 455.572 75.9959 455.539 75.9951L455.895 75.9701C462.55 75.5884 468.902 77.9641 472.69 83.7034C472.911 84.0423 473.128 84.3919 473.335 84.7557C473.542 85.1195 473.735 85.4156 473.913 85.7545C474.088 86.0911 474.247 86.4363 474.387 86.7889C474.562 87.1813 474.719 87.5772 474.862 87.9803C475.004 88.3834 475.218 88.8293 475.375 89.2644C475.899 89.3001 476.417 89.3322 476.934 89.3572C477.451 89.3822 477.961 89.4 478.467 89.4107C478.824 89.4107 479.145 89.4107 479.484 89.4107C480.677 89.4561 481.871 89.3844 483.05 89.1967C483.449 89.1325 483.845 89.0611 484.238 88.9755C486.45 88.3613 488.604 87.5545 490.675 86.5642C491.082 86.368 491.485 86.1647 491.88 85.9506C495.632 84.2599 498.756 81.449 501.292 78.278C501.446 78.0318 501.588 77.8 501.717 77.6074C501.973 77.215 502.177 76.9689 502.351 77.0188C502.469 77.0509 502.544 77.2293 502.601 77.5396C502.658 77.8499 502.701 78.3101 502.754 78.9093C502.754 79.3195 502.754 79.7297 502.783 80.1364C502.811 80.543 502.783 80.9639 502.783 81.3742C502.508 85.5119 502.198 89.5783 499.669 92.9456C499.456 93.3451 499.231 93.7411 499.006 94.137C498.737 94.5507 498.431 94.9398 498.093 95.2999L497.808 95.6102L497.508 95.9205L497.219 96.2094C496.863 96.5662 496.531 96.8765 496.417 96.9692C496.303 97.062 496.271 97.1547 496.31 97.194Z" fill="#00B2E4"></path> <path d="M453.892 95.5887C453.824 94.754 453.785 93.9407 453.785 93.1524C453.785 92.8278 453.785 92.4675 453.763 92.0573C453.742 91.6471 453.763 91.1906 453.742 90.6769C453.742 90.0277 453.742 89.7067 453.742 89.4213C453.742 87.8982 453.72 86.3394 453.767 84.8448C453.767 84.3454 453.802 83.8567 453.831 83.3752C453.933 82.1469 454.102 80.9252 454.337 79.7154L455.175 79.8082C455.553 79.7582 455.981 79.7083 456.424 79.669C457.143 79.6173 457.865 79.6102 458.585 79.6476C458.942 79.6476 459.298 79.694 459.655 79.7332C463.578 80.304 468.253 81.8735 470.14 85.9078C470.358 86.3033 470.551 86.7119 470.718 87.1313C471.232 88.3957 471.529 89.738 471.595 91.1014C471.624 91.5401 471.649 91.986 471.659 92.4319C471.688 93.3308 471.688 94.2332 471.688 95.125C471.667 95.4603 471.634 95.8063 471.588 96.1594C471.489 96.9332 471.315 97.6954 471.067 98.4352C470.783 99.279 470.406 100.089 469.944 100.85C469.737 101.207 469.527 101.499 469.323 101.792C467.212 104.895 463.774 107.396 460.108 108.926C459.7 109.096 459.282 109.242 458.856 109.361C458.087 109.586 457.285 109.68 456.484 109.639C456.402 109.386 456.327 109.133 456.26 108.894C456.192 108.655 456.056 108.148 455.903 107.556C455.482 105.955 455.322 105.198 455.257 104.902C455.222 104.727 455.168 104.474 455.072 103.975C454.997 103.582 454.915 103.133 454.822 102.619C454.509 100.404 454.088 97.9251 453.892 95.5887Z" fill="#D5EAF3"></path> <path d="M456.259 108.894C456.327 109.133 456.402 109.386 456.484 109.639C455.976 109.607 455.474 109.506 454.993 109.34C454.538 109.228 454.093 109.078 453.663 108.89C451.523 107.97 449.694 106.311 448.103 104.496C447.871 104.218 447.647 103.936 447.433 103.65C446.358 102.235 445.477 100.683 444.811 99.0346C444.661 98.5324 444.542 98.0213 444.455 97.5044V97.4652C447.372 96.0598 450.517 95.2821 453.916 95.5889C454.112 97.9253 454.533 100.387 454.847 102.62C454.94 103.133 455.022 103.583 455.097 103.975C455.193 104.474 455.247 104.728 455.282 104.902C455.346 105.198 455.507 105.973 455.928 107.556C456.056 108.148 456.202 108.684 456.259 108.894Z" fill="#0091CE"></path> <path d="M455.539 76.002C455.573 76.0028 455.606 76.0126 455.634 76.0304C455.663 76.0482 455.686 76.0733 455.702 76.1031C455.718 76.133 455.725 76.1664 455.723 76.2001C455.722 76.2337 455.711 76.2663 455.693 76.2944C455.038 77.346 454.579 78.5073 454.338 79.7224C454.102 80.9298 453.933 82.1491 453.831 83.375C453.803 83.8566 453.781 84.3452 453.767 84.8446C453.721 86.3392 453.731 87.898 453.742 89.4211C453.742 89.7065 453.742 90.0275 453.742 90.6767C453.742 91.1904 453.742 91.647 453.763 92.0572C453.785 92.4674 453.763 92.8276 453.785 93.1522C453.785 93.9406 453.824 94.7539 453.892 95.5885C450.475 95.2818 447.347 96.0594 444.43 97.4648C443.774 97.7787 443.128 98.1247 442.494 98.4957C442.118 98.7026 441.747 98.913 441.381 99.127C441.078 99.3089 440.775 99.4837 440.475 99.6835C440.175 99.8832 439.883 100.072 439.59 100.272C439.084 100.525 438.46 101.15 437.886 101.56C437.608 101.788 437.337 102.027 437.065 102.273C436.794 102.519 436.531 102.769 436.274 103.029C436.095 102.944 436.031 102.858 435.985 102.53C435.985 101.178 435.946 99.8119 435.938 98.4422C435.938 97.982 435.938 97.5254 435.938 97.0653C435.938 92.7135 436.887 88.3367 439.17 84.6805C439.334 84.4273 439.526 84.1598 439.715 83.8851C439.904 83.6104 440.136 83.3215 440.375 83.029C441.3 81.9845 442.313 81.0214 443.403 80.1504C443.76 79.8615 444.145 79.5832 444.526 79.3157C447.736 77.1541 451.581 76.3408 455.514 76.0055L455.539 76.002Z" fill="#0091CE"></path> <path d="M455.175 79.815C455.553 79.765 455.981 79.7151 456.423 79.6759C457.143 79.6241 457.865 79.617 458.585 79.6545C458.941 79.6545 459.298 79.7008 459.655 79.7401C463.578 80.3108 468.253 81.8803 470.14 85.9146C470.357 86.3101 470.55 86.7187 470.718 87.1381C471.232 88.4025 471.528 89.7448 471.595 91.1082C471.623 91.547 471.648 91.9928 471.659 92.4387C471.688 93.3376 471.688 94.2401 471.688 95.1318C471.666 95.4671 471.634 95.8131 471.588 96.1663C471.489 96.94 471.314 97.7022 471.067 98.442C470.782 99.2858 470.406 100.096 469.944 100.857C469.737 101.214 469.526 101.506 469.323 101.799C467.212 104.902 463.774 107.402 460.108 108.933C459.7 109.103 459.281 109.248 458.856 109.368C458.086 109.593 457.285 109.687 456.484 109.646C455.976 109.614 455.474 109.513 454.993 109.346C454.538 109.235 454.093 109.085 453.663 108.897C451.523 107.977 449.694 106.318 448.103 104.502C447.871 104.224 447.647 103.942 447.433 103.657C446.358 102.241 445.477 100.689 444.811 99.0413C444.661 98.539 444.542 98.028 444.455 97.511" stroke="#173984" stroke-width="1.87626" stroke-miterlimit="10" stroke-linecap="round"></path> <path d="M489.538 119.203C492.908 117.373 496.314 115.818 499.003 113.353C499.227 113.128 499.437 112.89 499.631 112.64C499.988 112.176 500.344 111.548 500.027 111.47C498.49 111.07 492.092 111.566 491.467 111.47C491.389 111.47 491.403 111.434 491.524 111.398C492.088 111.241 497.587 107.977 498.689 106.918C499.014 106.608 499.335 106.276 499.335 106.276C499.549 106.058 499.87 105.72 500.226 105.306C500.226 105.306 500.94 104.507 501.539 103.661C502.765 101.948 503.746 100.071 504.453 98.0861C504.774 97.1159 505.408 94.7937 504.809 95.0149C504.003 95.3145 504.096 95.2253 502.933 95.6926C502.012 95.9923 501.072 96.2306 500.12 96.406C498.169 96.8448 496.482 97.3263 496.3 97.1836C496.254 97.1515 496.3 97.0873 496.425 96.9768C496.55 96.8662 496.856 96.5879 497.227 96.217L497.516 95.928L497.816 95.6177L498.101 95.3074C498.439 94.9474 498.744 94.5582 499.014 94.1445C499.239 93.7486 499.463 93.3526 499.677 92.9531C502.206 89.5823 502.53 85.5194 502.791 81.3817C502.791 80.9715 502.791 80.5577 502.791 80.1439C502.791 79.7301 502.769 79.3271 502.762 78.9169C502.709 78.3176 502.666 77.8646 502.609 77.5471C502.552 77.2296 502.477 77.0584 502.359 77.0263C502.184 76.9764 501.981 77.2225 501.724 77.6149C501.596 77.8075 501.453 78.0394 501.3 78.2855C498.764 81.4566 495.64 84.2674 491.888 85.9582C491.492 86.1722 491.089 86.3755 490.683 86.5717C488.616 87.5637 486.467 88.3729 484.26 88.9902C483.867 89.0758 483.472 89.1471 483.072 89.2113C481.893 89.3991 480.699 89.4708 479.506 89.4253C479.149 89.4253 478.832 89.4253 478.489 89.4253C477.983 89.4253 477.469 89.3968 476.956 89.3718C476.442 89.3469 475.921 89.3148 475.397 89.2791C475.24 88.8439 475.066 88.4159 474.884 87.995C474.702 87.5741 474.584 87.1959 474.409 86.8036C474.269 86.451 474.11 86.1057 473.935 85.7691C473.757 85.4124 473.578 85.0985 473.357 84.7703C473.136 84.4422 472.933 84.0569 472.712 83.7181C468.924 77.9787 462.572 75.6031 455.917 75.9847" stroke="#173984" stroke-width="1.87626" stroke-miterlimit="10" stroke-linecap="round"></path> <path d="M453.895 95.5889C450.479 95.2821 447.351 96.0597 444.434 97.4652C443.777 97.7791 443.132 98.1251 442.497 98.496C442.121 98.7029 441.75 98.9134 441.384 99.1274C441.081 99.3093 440.778 99.4841 440.478 99.6838C440.179 99.8836 439.886 100.073 439.594 100.272C439.087 100.526 438.463 101.15 437.889 101.56C437.611 101.788 437.34 102.027 437.069 102.274C436.798 102.52 436.534 102.769 436.277 103.03C436.099 102.944 436.035 102.859 435.988 102.53C435.988 101.178 435.949 99.8123 435.942 98.4425C435.942 97.9824 435.942 97.5258 435.942 97.0657C435.942 92.7139 436.891 88.3371 439.173 84.6809C439.337 84.4276 439.53 84.1601 439.719 83.8855C439.908 83.6108 440.14 83.3219 440.379 83.0294C441.304 81.9849 442.317 81.0218 443.406 80.1508C443.763 79.8618 444.148 79.5836 444.53 79.3161C447.74 77.1545 451.584 76.3412 455.518 76.0059C455.552 76.0067 455.584 76.0166 455.613 76.0344C455.642 76.0521 455.665 76.0772 455.68 76.1071C455.696 76.1369 455.703 76.1703 455.702 76.204C455.7 76.2376 455.69 76.2702 455.671 76.2984C455.016 77.3499 454.557 78.5113 454.316 79.7263C454.088 80.9329 453.926 82.1511 453.831 83.3754C453.802 83.8569 453.781 84.3456 453.767 84.845C453.72 86.3396 453.731 87.8984 453.742 89.4215C453.742 89.7069 453.742 90.0279 453.742 90.6771C453.742 91.1907 453.742 91.6473 453.763 92.0575C453.785 92.4677 453.763 92.828 453.785 93.1526C453.785 93.9409 453.824 94.7542 453.892 95.5889C454.088 97.9253 454.509 100.387 454.822 102.62C454.915 103.133 454.997 103.583 455.072 103.975C455.168 104.474 455.222 104.728 455.258 104.902C455.322 105.198 455.482 105.973 455.903 107.556C456.056 108.148 456.203 108.684 456.26 108.894C456.317 109.104 456.402 109.386 456.484 109.639C457.758 113.652 460.607 119.081 461.288 120.187C461.542 120.601 461.802 121.004 461.802 121.004C461.802 121.004 462.077 121.432 462.369 121.86C464.865 125.541 468.853 129.519 468.853 129.519C471.403 132.062 473.065 133.717 475.729 135.615C478.393 137.512 480.64 138.614 483.931 140.223C486.328 141.444 488.809 142.49 491.357 143.352C495.062 144.571 498.864 145.335 499.089 144.757C499.156 144.586 498.907 144.3 498.507 143.929C497.592 143.137 496.749 142.266 495.986 141.325C495.733 141.008 495.487 140.683 495.244 140.344C494.211 138.839 493.315 137.244 492.566 135.579C492.373 135.165 492.191 134.751 492.013 134.33C490.077 130.477 488.808 126.323 488.258 122.046C488.2 121.746 488.147 121.45 488.093 121.154C488.011 120.469 488.008 119.88 488.279 119.763C488.778 119.545 489.11 119.406 489.434 119.26L489.516 119.213" stroke="#173984" stroke-width="1.87626" stroke-miterlimit="10" stroke-linecap="round"></path> <path d="M480.936 105.733C481.649 105.523 482.637 105.216 483.789 104.795C485.534 104.214 487.232 103.498 488.867 102.655C490.316 101.851 491.7 100.936 493.008 99.9192C494.306 98.9526 495.462 97.9467 496.296 97.2047C496.367 97.1476 496.432 97.087 496.496 97.0264" stroke="#173984" stroke-width="1.87626" stroke-miterlimit="10" stroke-linecap="round"></path> <path d="M479.894 113.186C480.607 113.204 481.509 113.204 482.565 113.147C483.826 113.081 485.082 112.941 486.327 112.729C486.734 112.658 487.779 112.394 489.855 111.884C490.422 111.741 491.06 111.563 491.467 111.459L491.638 111.413" stroke="#173984" stroke-width="1.87626" stroke-miterlimit="10" stroke-linecap="round"></path> <path d="M472.29 122.705C473.196 122.73 474.455 122.737 475.963 122.68C477.213 122.657 478.459 122.561 479.697 122.394C481.114 122.176 482.512 121.848 483.877 121.413C485.211 121.013 486.521 120.536 487.8 119.987C488.389 119.733 489.02 119.459 489.53 119.227H489.551C489.776 119.123 489.976 119.034 490.133 118.952" stroke="#173984" stroke-width="1.87626" stroke-miterlimit="10" stroke-linecap="round"></path> <path d="M458.774 92.2963C461.996 92.2963 464.609 89.6836 464.609 86.4607C464.609 83.2377 461.996 80.625 458.774 80.625C455.552 80.625 452.939 83.2377 452.939 86.4607C452.939 89.6836 455.552 92.2963 458.774 92.2963Z" fill="#C1E3F1" stroke="#1A171B" stroke-width="1.64084" stroke-miterlimit="10" stroke-linecap="round"></path> <path d="M477.833 91.7999C477.929 91.1688 477.9 90.5249 477.746 89.9052C477.593 89.2854 477.319 88.702 476.94 88.1884C476.561 87.6747 476.085 87.241 475.538 86.9119C474.991 86.5829 474.384 86.3651 473.753 86.271L464.733 86.0605" stroke="#1A171B" stroke-width="1.38401" stroke-miterlimit="10" stroke-linecap="round"></path> <path d="M458.878 88.1267C459.74 88.1267 460.44 87.4272 460.44 86.5643C460.44 85.7014 459.74 85.002 458.878 85.002C458.015 85.002 457.315 85.7014 457.315 86.5643C457.315 87.4272 458.015 88.1267 458.878 88.1267Z" fill="#293883" stroke="#293883" stroke-width="1.38401" stroke-miterlimit="10" stroke-linecap="round"></path> </g> <path d="M70.7212 189.541L90.7183 190.316L91.7153 164.606L71.7182 163.831L70.7212 189.541Z" fill="#1771F1"></path> <path d="M161.924 253.875C161.924 253.875 189.617 240.644 189.174 252.071C188.731 263.497 161.26 271.015 161.26 271.015L161.924 253.875Z" fill="#FFB9B9"></path> <path d="M146.731 350.56C146.731 350.56 159.796 382.538 164.623 405.613C169.451 428.688 176.802 460.445 167.346 482.966C157.889 505.487 131.004 571.679 130.727 578.82C130.45 585.962 133.03 593.215 127.316 592.993C121.603 592.772 90.5114 582.983 89.2492 578.642C87.9871 574.302 99.857 563.318 99.857 563.318L129.168 471.472L98.5865 411.635L76.5283 500.902L72.208 612.314C72.208 612.314 51.0041 605.77 47.9259 611.372C47.9259 611.372 38.4259 598.129 37.2191 592.36C36.0122 586.592 41.7056 476.663 41.7056 476.663C41.7056 476.663 22.2423 351.455 37.9543 352.064C53.6662 352.673 115.208 315.005 146.731 350.56Z" fill="#0E0C25"></path> <path d="M127.538 587.28C127.538 587.28 142.031 619.313 143.404 620.797C144.777 622.28 154.222 636.952 147.08 636.675C139.938 636.398 123.075 628.591 110.663 616.666C98.2506 604.741 81.8858 584.079 83.3695 582.706C84.8533 581.333 95.0179 577.436 95.0179 577.436L127.538 587.28Z" fill="#7E7E7E"></path> <path d="M69.6284 605.061C69.6284 605.061 70.5028 619.4 73.138 625.224C75.7731 631.048 75.4408 639.618 68.299 639.341C61.1572 639.065 42.6993 635.488 42.6993 635.488C42.6993 635.488 41.6033 626.862 43.0871 625.489C44.5708 624.116 50.8935 608.626 48.203 604.23C45.5124 599.834 69.6284 605.061 69.6284 605.061Z" fill="#7E7E7E"></path> <path d="M59.0625 139.736C59.0625 139.736 43.8373 163.465 37.9023 168.956C31.9673 174.448 48.6645 186.54 48.6645 186.54L78.5493 190.56C78.5493 190.56 78.1733 163.365 79.7124 160.564C81.2516 157.763 59.0625 139.736 59.0625 139.736Z" fill="#FFB9B9"></path> <path d="M85.0383 170.785C85.0383 170.785 78.8818 181.99 73.1684 181.769C67.4549 181.547 37.9025 168.957 36.6403 164.617C35.378 160.276 26.8516 195.708 26.8516 195.708L99.1642 322.966L116.803 310.776L108.256 236.058L101.237 195.732L85.0383 170.785Z" fill="#1771F1"></path> <path d="M33.9729 284.675C36.8574 290.71 38.659 297.002 38.4091 303.444C38.3981 303.73 38.387 304.015 38.3616 304.3C37.6773 317.52 32.8072 332.81 31.06 343.929C29.7922 351.904 30.153 357.726 34.8206 359.095C46.1367 362.394 33.1707 364.753 76.9513 379.325C120.732 393.897 128.372 381.319 128.483 378.462C128.594 375.606 122.283 353.903 123.767 352.53C125.25 351.157 144.527 370.501 150.351 367.866C156.176 365.231 151.016 350.726 151.016 350.726C151.016 350.726 137.896 320.177 138.173 313.035C138.45 305.893 118.298 272.21 118.298 272.21L104.592 182.987C104.592 182.987 99.3217 171.339 92.2353 169.633C85.1489 167.928 79.2693 171.991 79.2693 171.991L91.1276 198.2L103.639 244.462L101.546 261.547C101.546 261.547 86.9969 230.942 77.4415 219.127C67.8861 207.313 47.5131 179.343 47.5131 179.343C47.5131 179.343 42.7567 163.294 46.3473 158.498C49.9385 153.688 31.3698 152.968 23.4526 172.688C19.2564 183.14 12.4437 198.725 8.17589 213.237C4.3729 226.093 2.57649 238.111 6.34415 244.98C12.1026 255.475 26.5881 269.269 33.9729 284.675Z" fill="#0E0C25"></path> <path opacity="0.1" d="M6.34415 244.98C12.1027 255.474 26.5881 269.268 33.9729 284.675C35.9017 277.726 38.2548 270.536 38.2548 270.536C38.2548 270.536 47.2798 222.249 20.5841 209.769C16.1608 209.342 11.7369 210.578 8.1759 213.237C4.3729 226.092 2.57649 238.11 6.34415 244.98Z" fill="black"></path> <path d="M112.32 241.938L134.952 248.537L166.376 249.756L169.608 277.061L117.966 280.78C117.966 280.78 105.067 244.517 112.32 241.938Z" fill="#0E0C25"></path> <path d="M75.415 333.745C75.415 333.745 105.692 338.768 98.7819 347.88C91.8714 356.991 65.0493 347.412 65.0493 347.412L75.415 333.745Z" fill="#FFB9B9"></path> <path opacity="0.1" d="M38.3617 304.301C37.6774 317.521 32.8073 332.81 31.0601 343.929C40.7053 353.058 49.8773 361.109 53.3339 361.243C60.4757 361.52 71.958 360.535 76.1877 362.13C80.4174 363.724 82.8981 336.641 82.8981 336.641C82.8981 336.641 80.3737 327.96 69.113 323.232C61.5123 320.033 46.9428 311.357 38.3617 304.301Z" fill="black"></path> <path d="M20.9166 201.2C20.9166 201.2 -3.25476 197.402 -1.94893 237.506C-0.643113 277.611 -4.49683 303.211 5.22473 310.74C14.9463 318.27 46.5246 352.396 53.6664 352.673C60.8082 352.95 72.2905 351.965 76.5201 353.559C80.7498 355.154 83.2306 328.07 83.2306 328.07C83.2306 328.07 80.7062 319.389 69.4455 314.661C58.1848 309.933 31.6553 293.169 31.8768 287.455C32.0984 281.742 38.5872 261.966 38.5872 261.966C38.5872 261.966 47.6123 213.679 20.9166 201.2Z" fill="#0E0C25"></path> <path d="M80.3772 174.872C97.7452 174.872 111.825 160.792 111.825 143.424C111.825 126.056 97.7452 111.977 80.3772 111.977C63.0092 111.977 48.9297 126.056 48.9297 143.424C48.9297 160.792 63.0092 174.872 80.3772 174.872Z" fill="#FFB9B9"></path> <path d="M101.551 98.3511C102.31 99.0046 103.218 99.4604 104.195 99.678C104.686 99.7654 105.191 99.6553 105.601 99.3715C106.011 99.0877 106.291 98.6534 106.382 98.1633C107.102 99.6554 107.913 101.246 109.382 102.011C110.851 102.777 113.123 102.135 113.334 100.492C113.549 101.74 114.101 102.904 114.93 103.861C115.842 104.73 117.495 104.949 118.29 103.973C117.647 107.489 118.044 111.104 117.842 114.672C117.64 118.241 116.688 122.024 113.992 124.37C110.061 127.792 104.148 126.947 98.9767 126.299C98.1946 126.135 97.383 126.179 96.6235 126.428C94.687 127.253 94.7749 129.948 94.7488 132.053C94.5908 135.746 93.1292 139.264 90.6234 141.981C88.1177 144.699 84.73 146.44 81.0619 146.897C79.0091 147.213 76.9145 146.702 75.2385 145.475C73.77 144.231 73.02 142.202 71.3374 141.267C68.6003 139.746 65.2808 141.964 63.2797 144.373C61.2786 146.781 59.3063 149.743 56.2063 150.184C52.1063 150.767 48.9836 146.589 47.4515 142.741C45.3378 137.349 44.3251 131.588 44.4732 125.798C44.6213 120.008 45.9271 114.306 48.3138 109.029C56.8746 90.3675 86.1187 87.4158 101.551 98.3511Z" fill="#0E0C25"></path> <path d="M185.698 245.915C185.865 245.299 186.081 244.695 186.344 244.107L186.346 244.108C187.342 241.918 188.951 240.033 190.97 238.689C192.988 237.345 195.327 236.603 197.693 236.556C200.058 236.508 202.344 237.158 204.264 238.423C206.185 239.688 207.653 241.512 208.485 243.665C209.317 245.819 209.476 248.207 208.942 250.528C208.407 252.85 207.204 255.002 205.482 256.714C203.759 258.427 201.596 259.623 199.263 260.153C196.93 260.682 194.531 260.522 192.367 259.692C191.911 259.505 191.468 259.29 191.042 259.047L178.539 262.356L172.241 250.528L185.698 245.915Z" fill="#FFB9B9"></path> </g> <defs> <clipPath id="clip0_1933_22567"> <rect width="821" height="639" fill="white"></rect> </clipPath> <clipPath id="clip1_1933_22567"> <rect width="71" height="70.8913" fill="white" transform="translate(435 75)"></rect> </clipPath> </defs> </svg> 