<?xml version="1.0" encoding="UTF-8"?> <svg xmlns="http://www.w3.org/2000/svg" width="739" height="590" viewBox="0 0 739 590" fill="none"> <path d="M622.306 504.665L611.204 510.72L618.269 533.933L629.37 534.942L635.426 521.822L622.306 504.665Z" fill="#FFB6B6"></path> <path d="M656.62 551.09V562.191L673.777 561.182L673.538 552.039L656.62 551.09Z" fill="#FFB6B6"></path> <path d="M618.269 371.443L624.324 447.137L643.5 558.153L673.777 554.116L663.685 466.312L667.722 385.573L618.269 371.443Z" fill="#2F2E41"></path> <path d="M699.008 314.927L626.342 315.936L618.268 371.444L667.721 394.657L679.832 439.064L618.268 504.665L642.49 534.942C642.49 534.942 676.804 488.517 702.035 462.276C727.267 436.036 715.156 356.306 715.156 356.306L699.008 314.927Z" fill="#2F2E41"></path> <path d="M655.61 171.614C667.873 171.614 677.813 161.673 677.813 149.41C677.813 137.148 667.873 127.207 655.61 127.207C643.348 127.207 633.407 137.148 633.407 149.41C633.407 161.673 643.348 171.614 655.61 171.614Z" fill="#FFB6B6"></path> <path d="M647.536 164.549V186.753L662.675 210.975C662.675 210.975 685.887 193.818 680.841 189.781C675.795 185.744 674.786 154.457 674.786 154.457L647.536 164.549Z" fill="#FFB6B6"></path> <path d="M647.536 182.716L632.397 200.882L638.453 327.037L685.887 326.028L693.961 216.021L683.87 187.762L676.946 178.343L664.693 196.845L647.536 182.716Z" fill="#D0CDE1"></path> <path d="M623.314 248.316L612.213 290.705L623.314 333.093L605.148 357.315L589 280.612C589 280.612 601.111 218.039 602.12 210.974C603.129 203.91 605.148 202.9 605.148 202.9L613.222 203.91L623.314 248.316Z" fill="#2F2E41"></path> <path d="M704.053 264.463L711.118 277.584L713.137 299.787L709.1 325.018L723.229 348.231L737.358 284.648L722.22 202.899H716.164L704.053 264.463Z" fill="#2F2E41"></path> <path d="M618.268 503.655C618.268 503.655 604.139 507.692 599.092 508.701C594.046 509.711 602.12 528.886 602.12 528.886C602.12 528.886 607.166 555.127 608.176 560.173C609.185 565.219 616.249 582.376 625.333 584.395C634.416 586.413 628.36 549.071 628.36 549.071C628.36 549.071 632.397 536.96 632.397 532.923C632.397 528.886 626.342 530.905 626.342 530.905C610.194 528.886 618.268 503.655 618.268 503.655Z" fill="#2F2E41"></path> <path d="M651.573 581.367C652.583 587.422 650.564 587.422 666.712 589.441C682.86 591.459 678.823 578.339 678.823 578.339C678.148 572.154 676.794 566.062 674.786 560.173C671.758 552.099 655.61 562.191 655.61 562.191C655.61 562.191 650.564 575.311 651.573 581.367Z" fill="#2F2E41"></path> <path d="M674.812 155.162L675.338 164.137C675.338 164.137 681.85 149.411 682.86 134.272C683.869 119.133 666.712 116.106 656.619 115.096C646.527 114.087 629.37 121.152 629.37 129.226C629.37 137.3 647.536 135.281 654.601 133.263C661.665 131.244 664.693 148.402 664.693 148.402L668.73 149.411L674.812 155.162Z" fill="#2F2E41"></path> <path d="M641.58 189.863L647.537 182.716L664.694 196.845L647.537 208.956L641.58 189.863Z" fill="#D0CDE1"></path> <path d="M683.869 187.762L676.804 178.679L664.693 196.845L679.832 207.947L683.869 187.762Z" fill="#D0CDE1"></path> <path d="M620.287 262.446L624.324 300.798L616.25 324.01L611.203 346.214C611.203 346.214 611.204 367.408 631.388 368.417C651.573 369.426 668.73 304.835 668.73 304.835C668.73 304.835 671.758 318.964 673.777 327.038C675.795 335.112 710.109 367.408 710.109 367.408C710.109 367.408 718.183 366.398 725.248 350.251C732.313 334.103 711.119 318.964 711.119 318.964L705.063 297.77L707.082 271.53L721.211 202.901L679.327 181.202L683.869 239.234L668.73 284.65L646.022 184.23L638.453 189.781L606.157 202.901L620.287 262.446Z" fill="#2F2E41"></path> <path d="M360.084 418C358.089 417.985 356.07 417.971 354.088 417.91L354.149 415.911C356.111 415.971 358.118 415.999 360.085 416C362.061 416 364.075 415.968 366.072 415.904L366.137 417.902C364.117 417.967 362.082 418 360.084 418ZM342.065 417.156C338.084 416.779 334.063 416.268 330.115 415.638L330.43 413.664C334.336 414.287 338.315 414.792 342.254 415.165L342.065 417.156ZM378.158 417.134L377.967 415.144C381.905 414.767 385.883 414.256 389.789 413.627L390.107 415.602C386.159 416.238 382.138 416.753 378.158 417.134ZM318.285 413.356C314.387 412.472 310.464 411.449 306.627 410.315L307.194 408.397C310.99 409.519 314.871 410.531 318.728 411.405L318.285 413.356ZM401.934 413.306L401.489 411.357C405.355 410.475 409.234 409.458 413.019 408.334L413.588 410.252C409.763 411.388 405.841 412.415 401.934 413.306ZM295.189 406.53C291.427 405.148 287.663 403.626 284.002 402.006L284.812 400.178C288.433 401.78 292.156 403.286 295.878 404.653L295.189 406.53ZM425.022 406.452L424.33 404.575C428.029 403.212 431.739 401.707 435.358 400.102L436.169 401.93C432.511 403.553 428.76 405.075 425.022 406.452ZM273.134 396.772C269.594 394.924 266.059 392.932 262.628 390.852L263.665 389.141C267.06 391.201 270.557 393.17 274.06 394.999L273.134 396.772ZM447.007 396.699L446.081 394.926C449.575 393.099 453.065 391.129 456.45 389.072L457.489 390.781C454.066 392.861 450.54 394.851 447.007 396.699ZM252.525 384.272C249.247 381.984 245.997 379.557 242.866 377.061L244.113 375.497C247.211 377.967 250.426 380.368 253.67 382.631L252.525 384.272ZM467.575 384.201L466.429 382.562C469.672 380.295 472.883 377.895 475.973 375.427L477.221 376.99C474.098 379.484 470.853 381.91 467.575 384.201ZM233.688 369.248C230.724 366.557 227.81 363.738 225.028 360.87L226.464 359.477C229.216 362.315 232.1 365.104 235.033 367.767L233.688 369.248ZM486.39 369.178L485.044 367.698C487.97 365.04 490.851 362.249 493.607 359.405L495.043 360.795C492.258 363.671 489.346 366.492 486.39 369.178ZM216.921 351.959C214.326 348.916 211.795 345.751 209.399 342.552L211 341.353C213.371 344.519 215.874 347.651 218.442 350.661L216.921 351.959ZM503.148 351.876L501.627 350.58C504.194 347.567 506.698 344.431 509.068 341.261L510.67 342.458C508.274 345.663 505.744 348.832 503.148 351.876ZM202.495 332.685C200.307 329.334 198.201 325.874 196.236 322.401L197.978 321.416C199.921 324.853 202.004 328.277 204.169 331.591L202.495 332.685ZM517.577 332.577L515.901 331.485C518.067 328.164 520.15 324.734 522.095 321.29L523.837 322.272C521.872 325.754 519.766 329.221 517.577 332.577ZM190.651 311.739C188.911 308.139 187.267 304.44 185.765 300.743L187.618 299.991C189.104 303.647 190.73 307.307 192.452 310.868L190.651 311.739ZM529.424 311.582L527.623 310.713C529.344 307.147 530.971 303.477 532.459 299.803L534.313 300.553C532.809 304.267 531.164 307.978 529.424 311.582ZM181.59 289.441C180.325 285.642 179.169 281.756 178.155 277.891L180.089 277.383C181.093 281.207 182.236 285.051 183.488 288.808L181.59 289.441ZM538.479 289.229L536.581 288.6C537.825 284.847 538.965 281.001 539.966 277.17L541.901 277.676C540.889 281.549 539.737 285.436 538.479 289.229ZM175.472 266.147C174.708 262.223 174.061 258.222 173.55 254.254L175.533 253.999C176.039 257.924 176.679 261.882 177.435 265.764L175.472 266.147ZM544.57 265.927L542.607 265.548C543.357 261.667 543.993 257.707 544.494 253.779L546.479 254.033C545.972 258.003 545.329 262.005 544.57 265.927ZM172.394 242.264C172.137 238.278 172.005 234.226 172 230.221L174 230.219C174.005 234.182 174.136 238.191 174.39 242.135L172.394 242.264ZM547.621 242.04L545.625 241.914C545.874 237.973 546 233.964 546 230L545.999 229.562H547.999L548 229.994C548 234.006 547.872 238.057 547.621 242.04ZM174.362 218.305L172.366 218.182C172.614 214.188 172.993 210.153 173.494 206.188L175.478 206.438C174.982 210.362 174.607 214.354 174.362 218.305ZM545.598 217.649C545.338 213.696 544.948 209.705 544.439 205.787L546.422 205.529C546.937 209.489 547.331 213.522 547.594 217.518L545.598 217.649ZM177.351 194.668L175.387 194.29C176.142 190.365 177.035 186.412 178.042 182.539L179.978 183.042C178.981 186.873 178.098 190.785 177.351 194.668ZM542.522 194.023C541.761 190.138 540.862 186.229 539.854 182.407L541.788 181.897C542.808 185.761 543.715 189.711 544.485 193.639L542.522 194.023ZM183.35 171.61L181.45 170.983C182.706 167.183 184.103 163.371 185.604 159.652L187.459 160.401C185.974 164.08 184.591 167.851 183.35 171.61ZM536.444 170.986C535.188 167.232 533.795 163.472 532.302 159.81L534.153 159.055C535.663 162.757 537.072 166.558 538.341 170.352L536.444 170.986ZM192.283 149.483L190.48 148.616C192.215 145.01 194.091 141.411 196.056 137.921L197.799 138.902C195.855 142.355 194 145.915 192.283 149.483ZM527.455 148.938C525.732 145.387 523.87 141.84 521.917 138.396L523.657 137.41C525.631 140.89 527.514 144.475 529.254 148.066L527.455 148.938ZM203.98 128.699L202.304 127.608C204.485 124.255 206.805 120.928 209.198 117.718L210.802 118.914C208.434 122.089 206.138 125.381 203.98 128.699ZM515.713 128.228C513.549 124.923 511.247 121.641 508.87 118.474L510.47 117.274C512.872 120.475 515.199 123.792 517.387 127.132L515.713 128.228ZM218.232 109.587L216.709 108.292C219.299 105.245 222.022 102.241 224.803 99.3642L226.241 100.754C223.49 103.6 220.796 106.572 218.232 109.587ZM501.417 109.175C498.846 106.168 496.143 103.205 493.385 100.367L494.818 98.9736C497.606 101.841 500.338 104.836 502.937 107.875L501.417 109.175ZM234.794 92.4497L233.448 90.9711C236.407 88.2753 239.489 85.643 242.607 83.1479L243.857 84.7094C240.772 87.1782 237.723 89.7827 234.794 92.4497ZM484.806 92.0869C481.873 89.4321 478.815 86.8354 475.716 84.3696L476.962 82.8042C480.094 85.2968 483.185 87.9208 486.147 90.6044L484.806 92.0869ZM253.393 77.5634L252.246 75.9257C255.518 73.6323 258.909 71.415 262.323 69.3349L263.364 71.0429C259.986 73.101 256.631 75.2949 253.393 77.5634ZM466.151 77.2451C462.896 74.979 459.53 72.7924 456.148 70.7461L457.184 69.0351C460.602 71.103 464.004 73.313 467.294 75.6035L466.151 77.2451ZM273.727 65.1757L272.798 63.4043C276.334 61.5498 279.979 59.7851 283.629 58.1596L284.443 59.9868C280.831 61.5947 277.226 63.3408 273.727 65.1757ZM445.747 64.9013C442.235 63.0732 438.616 61.3354 434.989 59.7358L435.797 57.9057C439.462 59.5224 443.121 61.2792 446.671 63.1269L445.747 64.9013ZM295.466 55.5004L294.771 53.6244C298.521 52.2372 302.367 50.954 306.201 49.811L306.772 51.728C302.979 52.8583 299.175 54.1279 295.466 55.5004ZM423.917 55.2734C420.2 53.9135 416.392 52.6577 412.598 51.5415L413.162 49.6225C416.997 50.7509 420.847 52.0205 424.605 53.3955L423.917 55.2734ZM318.298 48.6933L317.852 46.7441C321.743 45.8525 325.721 45.0756 329.675 44.4335L329.996 46.4082C326.083 47.0429 322.147 47.8115 318.298 48.6933ZM401.061 48.5478C397.204 47.6787 393.266 46.9238 389.354 46.3037L389.668 44.3281C393.621 44.955 397.602 45.7182 401.5 46.5966L401.061 48.5478ZM341.816 44.8774L341.623 42.8872C345.593 42.5019 349.638 42.2387 353.643 42.1054L353.709 44.1044C349.746 44.2363 345.745 44.4965 341.816 44.8774ZM377.529 44.8154C373.594 44.4477 369.591 44.2016 365.633 44.084L365.692 42.085C369.693 42.2041 373.738 42.4526 377.715 42.8242L377.529 44.8154Z" fill="#D0CDE1"></path> <path d="M353 94C378.957 94 400 72.9574 400 47C400 21.0426 378.957 0 353 0C327.043 0 306 21.0426 306 47C306 72.9574 327.043 94 353 94Z" fill="#1771F1"></path> <path d="M535 222C560.957 222 582 200.957 582 175C582 149.043 560.957 128 535 128C509.043 128 488 149.043 488 175C488 200.957 509.043 222 535 222Z" fill="#1771F1"></path> <path d="M478 418C503.957 418 525 396.957 525 371C525 345.043 503.957 324 478 324C452.043 324 431 345.043 431 371C431 396.957 452.043 418 478 418Z" fill="#1771F1"></path> <path d="M252 426C277.957 426 299 404.957 299 379C299 353.043 277.957 332 252 332C226.043 332 205 353.043 205 379C205 404.957 226.043 426 252 426Z" fill="#1771F1"></path> <path d="M184 222C209.957 222 231 200.957 231 175C231 149.043 209.957 128 184 128C158.043 128 137 149.043 137 175C137 200.957 158.043 222 184 222Z" fill="#1771F1"></path> <path d="M373.141 43.2525H356.747C355.256 43.2525 353.827 42.6603 352.773 41.6062C351.719 40.5521 351.126 39.1225 351.126 37.6318V21.2379C351.126 21.1764 351.114 21.1155 351.091 21.0587C351.067 21.0018 351.033 20.9502 350.989 20.9067C350.946 20.8632 350.894 20.8287 350.837 20.8052C350.78 20.7816 350.72 20.7695 350.658 20.7695H339.885C337.897 20.7695 335.991 21.5591 334.586 22.9646C333.18 24.37 332.391 26.2762 332.391 28.2638V65.7354C332.391 67.723 333.18 69.6292 334.586 71.0347C335.991 72.4402 337.897 73.2297 339.885 73.2297H366.115C368.103 73.2297 370.009 72.4402 371.414 71.0347C372.82 69.6292 373.609 67.723 373.609 65.7354V43.7209C373.609 43.6594 373.597 43.5984 373.574 43.5416C373.55 43.4848 373.516 43.4332 373.472 43.3897C373.429 43.3462 373.377 43.3117 373.32 43.2881C373.263 43.2646 373.203 43.2525 373.141 43.2525ZM362.368 61.9883H343.632C343.135 61.9883 342.659 61.7909 342.307 61.4395C341.956 61.0881 341.759 60.6116 341.759 60.1147C341.759 59.6178 341.956 59.1412 342.307 58.7899C342.659 58.4385 343.135 58.2411 343.632 58.2411H362.368C362.865 58.2411 363.341 58.4385 363.693 58.7899C364.044 59.1412 364.241 59.6178 364.241 60.1147C364.241 60.6116 364.044 61.0881 363.693 61.4395C363.341 61.7909 362.865 61.9883 362.368 61.9883ZM362.368 52.6204H343.632C343.135 52.6204 342.659 52.423 342.307 52.0716C341.956 51.7202 341.759 51.2437 341.759 50.7468C341.759 50.2499 341.956 49.7733 342.307 49.422C342.659 49.0706 343.135 48.8732 343.632 48.8732H362.368C362.865 48.8732 363.341 49.0706 363.693 49.422C364.044 49.7733 364.241 50.2499 364.241 50.7468C364.241 51.2437 364.044 51.7202 363.693 52.0716C363.341 52.423 362.865 52.6204 362.368 52.6204Z" fill="white"></path> <path d="M372.113 39.1063L355.273 22.2663C355.24 22.2338 355.198 22.2116 355.153 22.2027C355.108 22.1937 355.061 22.1984 355.018 22.216C354.976 22.2337 354.939 22.2635 354.913 22.3019C354.888 22.3402 354.874 22.3853 354.874 22.4315V37.632C354.874 38.1289 355.071 38.6055 355.422 38.9569C355.774 39.3082 356.25 39.5056 356.747 39.5056H371.948C371.994 39.5054 372.039 39.4916 372.077 39.4658C372.116 39.4401 372.146 39.4036 372.163 39.3609C372.181 39.3182 372.185 39.2713 372.176 39.226C372.168 39.1807 372.145 39.1391 372.113 39.1063Z" fill="white"></path> <path d="M484.798 361.741C484.222 361.742 483.663 361.942 483.218 362.307C482.773 362.673 482.468 363.182 482.356 363.747C482.244 364.313 482.331 364.899 482.603 365.407C482.875 365.915 483.315 366.313 483.847 366.534C484.38 366.754 484.972 366.783 485.524 366.615C486.075 366.448 486.551 366.094 486.871 365.615C487.191 365.136 487.335 364.56 487.278 363.987C487.221 363.413 486.968 362.877 486.56 362.47C486.329 362.239 486.054 362.055 485.752 361.93C485.449 361.805 485.125 361.741 484.798 361.741Z" fill="white"></path> <path d="M498.665 351.781V351.773C498.586 351.427 498.412 351.11 498.163 350.857C497.913 350.605 497.598 350.427 497.253 350.345C494.472 349.666 490.097 350.389 485.249 352.331C480.587 354.143 476.321 356.844 472.69 360.284C471.698 361.27 470.776 362.325 469.932 363.441C468.067 363.312 466.197 363.612 464.466 364.319C459.077 366.69 457.538 372.759 457.129 375.251C457.069 375.605 457.093 375.968 457.197 376.311C457.3 376.655 457.482 376.97 457.728 377.232C457.973 377.494 458.276 377.695 458.612 377.821C458.948 377.947 459.309 377.994 459.666 377.957H459.678L465.681 377.302C465.688 377.379 465.697 377.449 465.703 377.513C465.78 378.244 466.107 378.927 466.627 379.447L469.557 382.378C470.075 382.899 470.758 383.226 471.489 383.303L471.69 383.324L471.037 389.319V389.331C471.005 389.636 471.034 389.944 471.122 390.238C471.209 390.531 471.354 390.805 471.547 391.043C471.74 391.28 471.978 391.478 472.248 391.624C472.517 391.769 472.813 391.861 473.117 391.892C473.189 391.9 473.261 391.904 473.333 391.904C473.463 391.904 473.593 391.894 473.721 391.873C476.226 391.469 482.292 389.949 484.657 384.532C485.358 382.807 485.66 380.945 485.539 379.087C486.66 378.245 487.719 377.323 488.708 376.33C492.145 372.732 494.849 368.5 496.669 363.869C498.6 359.076 499.327 354.668 498.665 351.781ZM488.674 368.101C487.907 368.869 486.93 369.392 485.867 369.604C484.803 369.816 483.7 369.708 482.697 369.293C481.695 368.879 480.838 368.176 480.235 367.275C479.632 366.373 479.31 365.313 479.309 364.228C479.309 363.143 479.63 362.083 480.232 361.18C480.834 360.278 481.69 359.575 482.692 359.159C483.694 358.743 484.797 358.634 485.861 358.845C486.925 359.056 487.902 359.578 488.67 360.345L488.674 360.349C489.702 361.361 490.286 362.741 490.297 364.184C490.307 365.627 489.745 367.015 488.732 368.043L488.674 368.101Z" fill="white"></path> <path d="M469.221 383.173C468.86 383.128 468.494 383.217 468.194 383.422C467.598 383.83 466.999 384.233 466.394 384.626C466.131 384.795 465.82 384.871 465.509 384.841C465.198 384.812 464.906 384.678 464.68 384.463C464.454 384.248 464.307 383.963 464.262 383.654C464.218 383.345 464.278 383.03 464.434 382.759L465.568 380.8C465.73 380.563 465.82 380.284 465.828 379.997C465.836 379.709 465.76 379.426 465.611 379.181C465.462 378.935 465.245 378.738 464.986 378.613C464.727 378.488 464.438 378.44 464.153 378.475C462.895 378.634 461.725 379.207 460.828 380.104C460.487 380.447 459.448 381.487 458.889 385.448C458.73 386.586 458.629 387.731 458.588 388.88C458.583 389.076 458.617 389.271 458.687 389.454C458.758 389.637 458.863 389.804 458.998 389.946C459.134 390.088 459.295 390.203 459.474 390.282C459.654 390.362 459.847 390.406 460.043 390.411C460.056 390.411 460.069 390.411 460.082 390.411H460.119C461.268 390.37 462.414 390.271 463.553 390.112C467.517 389.552 468.556 388.513 468.898 388.171C469.799 387.274 470.371 386.099 470.521 384.836C470.569 384.443 470.459 384.047 470.215 383.735C469.971 383.423 469.614 383.221 469.221 383.173Z" fill="white"></path> <path d="M235.825 404.54H232.419C231.742 404.54 231.092 404.271 230.613 403.792C230.134 403.313 229.865 402.664 229.865 401.986V386.662C229.865 385.985 230.134 385.335 230.613 384.856C231.092 384.377 231.742 384.108 232.419 384.108H235.825C236.502 384.108 237.152 384.377 237.63 384.856C238.109 385.335 238.379 385.985 238.379 386.662V401.986C238.379 402.664 238.109 403.313 237.63 403.792C237.152 404.271 236.502 404.54 235.825 404.54Z" fill="white"></path> <path d="M259.662 404.539H256.257C255.579 404.539 254.93 404.27 254.451 403.791C253.972 403.312 253.703 402.663 253.703 401.985V376.446C253.703 375.768 253.972 375.119 254.451 374.64C254.93 374.161 255.579 373.892 256.257 373.892H259.662C260.339 373.892 260.989 374.161 261.468 374.64C261.947 375.119 262.216 375.768 262.216 376.446V401.985C262.216 402.663 261.947 403.312 261.468 403.791C260.989 404.27 260.339 404.539 259.662 404.539Z" fill="white"></path> <path d="M271.58 404.54H268.175C267.498 404.54 266.848 404.271 266.369 403.792C265.89 403.313 265.621 402.663 265.621 401.986V364.528C265.621 363.85 265.89 363.201 266.369 362.722C266.848 362.243 267.498 361.974 268.175 361.974H271.58C272.258 361.974 272.907 362.243 273.386 362.722C273.865 363.201 274.134 363.85 274.134 364.528V401.986C274.134 402.663 273.865 403.313 273.386 403.792C272.907 404.271 272.258 404.54 271.58 404.54Z" fill="white"></path> <path d="M247.743 404.54H244.338C243.661 404.54 243.011 404.271 242.532 403.792C242.053 403.313 241.784 402.663 241.784 401.986V356.014C241.784 355.337 242.053 354.687 242.532 354.208C243.011 353.729 243.661 353.46 244.338 353.46H247.743C248.421 353.46 249.07 353.729 249.549 354.208C250.028 354.687 250.297 355.337 250.297 356.014V401.986C250.297 402.321 250.231 402.653 250.103 402.963C249.975 403.273 249.787 403.554 249.549 403.792C249.312 404.029 249.031 404.217 248.721 404.345C248.411 404.474 248.079 404.54 247.743 404.54Z" fill="white"></path> <path d="M537.252 173.769L534.819 171.335C534.261 170.778 533.506 170.464 532.718 170.462C531.93 170.46 531.173 170.77 530.612 171.324L513.698 186.935C513.077 187.484 512.697 188.256 512.64 189.083C512.622 189.494 512.689 189.904 512.837 190.288C512.984 190.672 513.21 191.021 513.498 191.314L517.132 194.988L517.139 194.995C517.7 195.554 518.46 195.87 519.253 195.872H519.363C519.774 195.849 520.176 195.745 520.546 195.567C520.917 195.388 521.248 195.138 521.522 194.832L537.241 177.994C537.803 177.437 538.12 176.68 538.124 175.889C538.127 175.099 537.816 174.339 537.259 173.777L537.252 173.769Z" fill="white"></path> <path d="M556.804 168.85L556.775 168.821L553.582 165.66C553.395 165.474 553.173 165.326 552.928 165.226C552.684 165.126 552.422 165.075 552.158 165.077C551.73 165.077 551.313 165.212 550.966 165.463C550.966 165.423 550.972 165.383 550.975 165.349C551.104 164.533 550.932 163.698 550.49 162.999C549.787 162.051 549.014 161.156 548.179 160.321L548.172 160.313C545.838 158.074 543.094 156.304 540.092 155.101C538.522 154.457 536.842 154.126 535.146 154.127C532.95 154.107 530.816 154.855 529.112 156.241C528.627 156.704 528.185 157.21 527.791 157.752C527.603 158.012 527.503 158.326 527.507 158.647C527.512 158.968 527.62 159.279 527.815 159.533C528.01 159.788 528.282 159.973 528.591 160.061C528.9 160.149 529.229 160.134 529.529 160.02C529.79 159.922 530.057 159.84 530.328 159.775C530.893 159.656 531.472 159.619 532.047 159.668C533.24 159.792 534.383 160.211 535.373 160.888C535.928 161.355 536.37 161.943 536.664 162.606C536.959 163.269 537.099 163.991 537.074 164.716C536.661 165.895 536.028 166.985 535.211 167.929C534.993 168.216 534.886 168.573 534.911 168.933C534.936 169.293 535.09 169.631 535.346 169.886L538.552 173.092C538.822 173.362 539.184 173.519 539.566 173.529C539.947 173.54 540.318 173.404 540.602 173.15C541.509 172.34 542.89 171.119 543.372 170.82C543.785 170.544 544.252 170.36 544.742 170.28C545.107 170.244 545.474 170.322 545.794 170.502C545.796 170.518 545.794 170.534 545.789 170.549C545.784 170.564 545.776 170.578 545.765 170.59L545.596 170.751L545.568 170.778C545.191 171.153 544.979 171.663 544.978 172.194C544.977 172.726 545.187 173.237 545.562 173.613L545.572 173.623L548.765 176.783C548.952 176.969 549.174 177.117 549.418 177.217C549.663 177.317 549.924 177.367 550.188 177.365C550.718 177.366 551.228 177.159 551.607 176.788L556.778 171.679C556.796 171.662 556.813 171.643 556.83 171.625C557.177 171.244 557.367 170.747 557.362 170.232C557.358 169.717 557.158 169.223 556.804 168.85Z" fill="white"></path> <path d="M191.462 172.202C191.093 172.202 190.733 172.093 190.426 171.888C190.119 171.683 189.88 171.391 189.739 171.05C189.597 170.709 189.561 170.334 189.633 169.973C189.705 169.611 189.882 169.278 190.143 169.017L194.421 164.74L190.143 160.462C189.793 160.112 189.597 159.638 189.597 159.143C189.597 158.648 189.793 158.174 190.143 157.824C190.493 157.474 190.967 157.277 191.462 157.277C191.957 157.277 192.432 157.474 192.781 157.824L198.378 163.421C198.551 163.594 198.689 163.799 198.783 164.026C198.876 164.252 198.925 164.495 198.925 164.74C198.925 164.985 198.876 165.227 198.783 165.454C198.689 165.68 198.551 165.886 198.378 166.059L192.781 171.656C192.608 171.829 192.403 171.967 192.176 172.06C191.95 172.154 191.707 172.202 191.462 172.202Z" fill="white"></path> <path d="M161.613 177.799C161.368 177.799 161.126 177.75 160.899 177.657C160.673 177.563 160.467 177.426 160.294 177.252C160.121 177.079 159.983 176.873 159.89 176.647C159.796 176.421 159.748 176.178 159.748 175.933V174.068C159.762 171.104 160.945 168.267 163.04 166.171C165.135 164.075 167.972 162.89 170.936 162.874H195.194C195.689 162.874 196.163 163.071 196.513 163.42C196.863 163.77 197.059 164.245 197.059 164.74C197.059 165.234 196.863 165.709 196.513 166.059C196.163 166.409 195.689 166.605 195.194 166.605H170.941C168.965 166.617 167.072 167.408 165.675 168.806C164.278 170.204 163.489 172.097 163.479 174.073V175.933C163.479 176.178 163.43 176.421 163.337 176.647C163.243 176.873 163.106 177.079 162.932 177.252C162.759 177.426 162.553 177.563 162.327 177.657C162.101 177.75 161.858 177.799 161.613 177.799Z" fill="white"></path> <path d="M176.538 192.723C176.293 192.724 176.05 192.675 175.823 192.582C175.597 192.488 175.391 192.35 175.218 192.177L169.622 186.58C169.448 186.407 169.311 186.201 169.217 185.975C169.123 185.749 169.075 185.506 169.075 185.261C169.075 185.016 169.123 184.773 169.217 184.547C169.311 184.321 169.448 184.115 169.622 183.942L175.218 178.345C175.568 177.996 176.043 177.8 176.537 177.8C177.032 177.8 177.506 177.997 177.856 178.346C178.205 178.696 178.402 179.17 178.402 179.664C178.402 180.159 178.206 180.633 177.857 180.983L173.579 185.261L177.857 189.539C178.118 189.799 178.295 190.132 178.367 190.494C178.439 190.856 178.402 191.231 178.261 191.572C178.12 191.912 177.881 192.204 177.574 192.409C177.267 192.614 176.907 192.723 176.538 192.723Z" fill="white"></path> <path d="M172.806 187.126C172.312 187.126 171.837 186.929 171.487 186.579C171.137 186.23 170.941 185.755 170.941 185.26C170.941 184.766 171.137 184.291 171.487 183.941C171.837 183.591 172.312 183.395 172.806 183.395H197.059C199.036 183.383 200.928 182.592 202.325 181.194C203.722 179.796 204.511 177.903 204.521 175.927V174.067C204.521 173.572 204.718 173.097 205.068 172.748C205.418 172.398 205.892 172.201 206.387 172.201C206.882 172.201 207.356 172.398 207.706 172.748C208.056 173.097 208.253 173.572 208.253 174.067V175.932C208.238 178.896 207.055 181.733 204.96 183.829C202.865 185.925 200.028 187.11 197.065 187.126L172.806 187.126Z" fill="white"></path> <path d="M116.097 327.556C114.773 327.358 113.508 326.872 112.392 326.132C111.276 325.393 110.336 324.417 109.638 323.275C108.94 322.133 108.501 320.851 108.352 319.521C108.202 318.19 108.346 316.843 108.774 315.575L69.0539 242.233L87.9172 235.848L121.029 309.948C123.113 310.808 124.809 312.402 125.796 314.428C126.783 316.455 126.992 318.773 126.384 320.943C125.776 323.114 124.393 324.986 122.497 326.204C120.601 327.423 118.324 327.904 116.097 327.556Z" fill="#FFB6B6"></path> <path d="M58.8974 212.544C58.8974 212.544 54.2201 213.779 58.7483 222.974C62.3734 230.336 77.4437 265.046 85.0022 273.57C84.0805 274.874 83.6189 276.448 83.69 278.043C83.7611 279.638 84.3609 281.164 85.3949 282.381L104.756 268.749C105.416 263.425 101.91 262.692 99.8039 262.752L94.0911 249.076L83.6896 209.31L62.2626 211.591L58.8974 212.544Z" fill="#1771F1"></path> <path d="M7.67871 570.721H18.7167L23.9697 528.146H7.67871V570.721Z" fill="#FFB6B6"></path> <path d="M4.07698 563.161L21.711 562.108V569.664L38.4761 581.242C39.3042 581.814 39.9278 582.635 40.256 583.587C40.5841 584.538 40.5996 585.569 40.3001 586.53C40.0006 587.491 39.4019 588.331 38.5913 588.927C37.7808 589.523 36.8008 589.845 35.7944 589.845H14.8006L11.1819 582.372L9.76904 589.845H1.85352L4.07698 563.161Z" fill="#2F2E41"></path> <path d="M69.6787 570.721H80.7167L85.9697 528.146H69.6787V570.721Z" fill="#FFB6B6"></path> <path d="M66.077 563.161L83.711 562.108V569.664L100.476 581.242C101.304 581.814 101.928 582.635 102.256 583.587C102.584 584.538 102.6 585.569 102.3 586.53C102.001 587.491 101.402 588.331 100.591 588.927C99.7808 589.523 98.8008 589.845 97.7944 589.845H76.8005L73.1819 582.372L71.769 589.845H63.8535L66.077 563.161Z" fill="#2F2E41"></path> <path d="M2.91701 534.007H3.037L5.15974 464.784C3.78604 462.134 3.08887 459.186 3.13031 456.201C3.17175 453.217 3.95052 450.289 5.39726 447.678L5.70117 447.128L4.91316 443.476C3.90107 438.783 4.36551 433.892 6.24277 429.473L8.22307 364.9C1.14819 319.049 34.865 289.147 34.865 289.147L28.7036 263.228L89.7036 257.228L85.3732 289.147L96.2167 326.403C103.385 396.243 102.085 464.301 90.7091 530.237L91.0192 530.394C92.1358 530.779 92.6148 532.326 92.0892 533.849C91.5636 535.372 90.2323 536.294 89.1156 535.908L62.4415 534.98C61.3248 534.595 60.8457 533.048 61.3715 531.525C61.8971 530.002 63.2284 529.08 64.3451 529.466L66.1588 530.383L62.2908 463.585L62.7201 451.384L61.8358 437.542L57.7471 375.282L42.2709 451.845L26.4628 534.778C26.8988 535.172 27.2048 535.69 27.3404 536.262C27.4761 536.835 27.435 537.435 27.2225 537.983C27.0101 538.532 26.6364 539.003 26.1507 539.335C25.6649 539.666 25.0901 539.843 24.5019 539.841H2.91701C2.14337 539.841 1.40141 539.534 0.85437 538.987C0.307327 538.44 0 537.698 0 536.924C0 536.15 0.307327 535.408 0.85437 534.861C1.40141 534.314 2.14337 534.007 2.91701 534.007Z" fill="#2F2E41"></path> <path d="M76.3702 139.086C70.6968 130.392 61.4336 123.56 51.1176 122.983C40.8011 122.406 28.4032 131.191 23.3116 140.231C13.9981 156.766 13.8759 175.728 26.7035 187.228C28.4455 186.637 35.6916 185.79 37.4625 185.22L38.5855 183.192L39.971 184.425C55.8237 186.006 60.7036 175.228 86.0691 168.432C84.5857 158.153 82.0436 147.78 76.3702 139.086Z" fill="#2F2E41"></path> <path d="M54.5939 180.035C66.1718 180.035 75.5575 170.649 75.5575 159.071C75.5575 147.493 66.1718 138.107 54.5939 138.107C43.0161 138.107 33.6304 147.493 33.6304 159.071C33.6304 170.649 43.0161 180.035 54.5939 180.035Z" fill="#FFB7B7"></path> <path d="M77.8227 198.022L65.8265 190.824L41.8339 188.425L20.6279 199.223L20.8405 232.211L34.2934 266.425L86.7034 277.228L92.818 247.159C92.818 247.159 108.413 226.213 91.6184 214.217L77.8227 198.022Z" fill="#1771F1"></path> <path d="M62.4315 127.234C57.8891 125.961 53.088 125.931 48.5302 127.148C43.9724 128.365 39.8252 130.785 36.5224 134.153C33.2196 137.522 30.8824 141.716 29.7553 146.296C28.6281 150.877 28.7524 155.677 30.1151 160.193C42.8829 161.213 55.5033 160.02 65.4518 150.987L66.337 143.238L69.967 149.723C73.6282 148.693 77.2951 147.656 80.9677 146.614C79.8444 142.044 77.5411 137.849 74.2883 134.448C71.0355 131.047 66.947 128.56 62.4315 127.234Z" fill="#2F2E41"></path> <path d="M26.4716 340.453C25.3317 339.751 24.3596 338.807 23.6237 337.689C22.8879 336.571 22.4062 335.305 22.2126 333.98C22.019 332.655 22.1182 331.304 22.5032 330.022C22.8883 328.74 23.5497 327.558 24.4411 326.559L16.7051 243.512L36.5607 245.045L37.9214 326.195C39.5002 327.804 40.4341 329.936 40.5462 332.187C40.6582 334.438 39.9405 336.652 38.5292 338.41C37.1179 340.167 35.1109 341.346 32.8886 341.722C30.6663 342.099 28.3831 341.647 26.4716 340.453Z" fill="#FFB6B6"></path> <path d="M21.3635 199.555C21.3635 199.555 16.5767 198.855 17.1312 209.089C17.575 217.283 15.4654 267.786 19.0703 278.593C17.7107 279.431 16.6683 280.696 16.1074 282.191C15.5465 283.687 15.4989 285.326 15.9721 286.851L39.1306 281.915C41.8285 277.278 41.2695 272.516 39.3088 271.745L39.4239 256.924L44.5421 208.074L24.8325 200L21.3635 199.555Z" fill="#1771F1"></path> <path d="M399.198 205.293C399.46 205.498 401.891 204.779 404.703 204.172C406.076 203.919 407.43 203.576 408.758 203.144C410.413 202.471 410.3 202.599 411.461 202.168C412.31 201.849 411.395 205.195 410.947 206.593C409.929 209.454 408.516 212.158 406.748 214.627C405.864 215.845 404.857 216.996 404.857 216.996C404.343 217.592 403.88 218.081 403.572 218.394C403.572 218.394 403.109 218.872 402.641 219.319C401.038 220.861 393.127 225.549 392.315 225.775C392.141 225.827 392.12 225.857 392.233 225.878C393.133 226.027 402.354 225.313 404.569 225.878C405.011 225.991 404.497 226.906 403.998 227.564C403.718 227.925 403.416 228.268 403.094 228.592C399.208 232.143 394.31 234.384 389.452 237.021H389.422L389.303 237.088C388.836 237.299 388.358 237.499 387.638 237.813C387.247 237.982 387.253 238.841 387.371 239.817C387.448 240.244 387.525 240.671 387.607 241.102C388.4 247.266 390.23 253.251 393.019 258.804C393.276 259.411 393.533 260.007 393.816 260.603C394.896 263.002 396.188 265.301 397.676 267.47C398.026 267.984 398.38 268.426 398.745 268.884C399.845 270.238 401.061 271.494 402.379 272.636C402.955 273.15 403.315 273.581 403.217 273.828C402.893 274.661 397.414 273.561 392.074 271.803C388.402 270.561 384.826 269.055 381.372 267.295C376.628 264.977 373.452 263.425 369.551 260.655C365.649 257.884 363.316 255.515 359.641 251.87C359.641 251.87 353.9 246.139 350.297 240.835C349.875 240.218 349.479 239.602 349.479 239.602C349.479 239.602 349.104 239.021 348.739 238.424C347.757 236.831 343.651 229.008 341.816 223.226C342.969 223.284 344.125 223.149 345.234 222.825C345.847 222.653 346.45 222.443 347.038 222.198C352.322 220.003 357.277 216.4 360.319 211.918C360.612 211.496 360.916 211.049 361.214 210.561C361.88 209.464 362.422 208.297 362.833 207.081C363.189 206.015 363.441 204.917 363.583 203.802C363.65 203.288 363.696 202.774 363.727 202.311C363.727 201.026 363.727 199.742 363.686 198.431C363.686 197.788 363.635 197.146 363.594 196.514C363.498 194.549 363.07 192.615 362.329 190.793C362.088 190.189 361.81 189.6 361.496 189.03C358.777 183.206 352.018 180.955 346.385 180.133C345.871 180.076 345.357 180.03 344.843 180.009C343.805 179.955 342.765 179.966 341.728 180.04C341.091 180.097 340.474 180.169 339.929 180.241L338.706 180.107C339.054 178.356 339.716 176.683 340.659 175.168C340.686 175.127 340.701 175.08 340.703 175.032C340.706 174.983 340.695 174.935 340.673 174.892C340.65 174.849 340.616 174.813 340.575 174.787C340.534 174.762 340.487 174.747 340.438 174.746L340.952 174.71C350.543 174.16 359.697 177.583 365.156 185.853C365.475 186.342 365.788 186.845 366.086 187.37C366.384 187.894 366.662 188.321 366.919 188.809C367.172 189.294 367.4 189.791 367.603 190.299C367.854 190.865 368.081 191.435 368.286 192.016C368.492 192.597 368.8 193.24 369.026 193.867C369.782 193.918 370.527 193.964 371.273 194C372.018 194.036 372.753 194.062 373.483 194.077C373.997 194.077 374.459 194.077 374.948 194.077C376.667 194.143 378.388 194.039 380.087 193.769C380.663 193.676 381.234 193.574 381.799 193.45C384.987 192.565 388.092 191.403 391.077 189.976C391.663 189.693 392.243 189.4 392.814 189.092C398.221 186.655 402.724 182.605 406.378 178.036C406.599 177.681 406.805 177.347 406.99 177.069C407.36 176.504 407.653 176.149 407.905 176.221C408.074 176.268 408.182 176.525 408.264 176.972C408.347 177.419 408.408 178.082 408.485 178.945C408.485 179.537 408.485 180.128 408.527 180.714C408.568 181.299 408.527 181.906 408.527 182.497C408.131 188.459 407.684 194.319 404.039 199.171C403.731 199.747 403.407 200.317 403.083 200.888C402.695 201.484 402.255 202.045 401.768 202.563L401.356 203.01L400.925 203.458L400.508 203.874C399.994 204.388 399.516 204.835 399.352 204.969C399.187 205.102 399.141 205.236 399.198 205.293Z" fill="#5199FF"></path> <path d="M338.063 202.98C337.966 201.777 337.909 200.605 337.909 199.469C337.909 199.002 337.909 198.482 337.878 197.891C337.847 197.3 337.878 196.642 337.847 195.902C337.847 194.967 337.847 194.504 337.847 194.093C337.847 191.898 337.817 189.652 337.883 187.498C337.883 186.779 337.935 186.075 337.976 185.381C338.123 183.611 338.366 181.85 338.706 180.107L339.914 180.241C340.459 180.169 341.075 180.097 341.713 180.04C342.749 179.966 343.79 179.956 344.827 180.01C345.341 180.01 345.855 180.076 346.369 180.133C352.023 180.955 358.762 183.217 361.481 189.03C361.794 189.6 362.072 190.189 362.313 190.793C363.054 192.615 363.482 194.549 363.578 196.514C363.619 197.146 363.655 197.789 363.67 198.431C363.711 199.726 363.711 201.027 363.711 202.312C363.681 202.795 363.634 203.293 363.568 203.802C363.425 204.917 363.174 206.015 362.817 207.082C362.407 208.297 361.864 209.464 361.198 210.561C360.9 211.075 360.597 211.497 360.304 211.918C357.261 216.39 352.306 219.993 347.022 222.198C346.434 222.444 345.832 222.653 345.218 222.825C344.109 223.149 342.954 223.285 341.8 223.226C341.682 222.861 341.574 222.496 341.476 222.152C341.379 221.807 341.183 221.078 340.962 220.224C340.356 217.916 340.124 216.827 340.032 216.4C339.981 216.148 339.903 215.783 339.765 215.064C339.657 214.498 339.538 213.851 339.405 213.111C338.953 209.919 338.346 206.347 338.063 202.98Z" fill="#D5EAF3"></path> <path d="M392.669 225.632C373.347 232.127 358.629 223.658 342.185 223.658C347.118 237.307 366.588 268.749 402.371 273.485C394.478 266.776 388.942 247.174 387.16 238.212C396.451 233.854 405.167 226.618 403.933 225.632C402.947 224.842 396.013 225.303 392.669 225.632Z" fill="#FFCF31"></path> <path d="M341.476 222.151C341.574 222.496 341.682 222.861 341.8 223.226C341.068 223.179 340.345 223.034 339.652 222.794C338.995 222.633 338.354 222.416 337.735 222.146C334.651 220.82 332.014 218.43 329.722 215.814C329.387 215.413 329.064 215.007 328.755 214.596C327.207 212.556 325.936 210.319 324.977 207.945C324.761 207.221 324.589 206.485 324.463 205.74V205.683C328.668 203.658 333.201 202.537 338.1 202.98C338.382 206.346 338.989 209.893 339.441 213.11C339.575 213.85 339.693 214.498 339.801 215.063C339.94 215.783 340.017 216.148 340.068 216.4C340.161 216.826 340.392 217.942 340.998 220.224C341.184 221.077 341.394 221.848 341.476 222.151Z" fill="#3977FE"></path> <path d="M341.476 222.151C341.574 222.496 341.682 222.861 341.8 223.226C341.068 223.179 340.345 223.034 339.652 222.794C338.995 222.633 338.354 222.416 337.735 222.146C334.651 220.82 332.014 218.43 329.722 215.814C329.387 215.413 329.064 215.007 328.755 214.596C327.207 212.556 325.936 210.319 324.977 207.945C324.761 207.221 324.589 206.485 324.463 205.74V205.683C328.668 203.658 333.201 202.537 338.1 202.98C338.382 206.346 338.989 209.893 339.441 213.11C339.575 213.85 339.693 214.498 339.801 215.063C339.94 215.783 340.017 216.148 340.068 216.4C340.161 216.826 340.392 217.942 340.998 220.224C341.184 221.077 341.394 221.848 341.476 222.151Z" fill="black" fill-opacity="0.1"></path> <path d="M341.8 223.226C343.171 228.673 349.464 239.601 349.464 239.601C349.464 239.601 349.86 240.218 350.281 240.835C353.879 246.139 359.626 251.87 359.626 251.87C363.301 255.535 365.696 257.92 369.535 260.654C373.375 263.389 376.613 264.977 381.357 267.295C384.81 269.055 388.387 270.561 392.058 271.803C397.399 273.561 402.878 274.661 403.202 273.828C403.299 273.581 402.94 273.17 402.364 272.636C401.045 271.494 399.829 270.238 398.73 268.883C398.365 268.426 398.01 267.958 397.661 267.47C396.172 265.3 394.881 263.002 393.801 260.603C393.523 260.007 393.261 259.411 393.004 258.804C390.214 253.251 388.385 247.266 387.592 241.102C387.51 240.67 387.432 240.244 387.355 239.817C387.237 238.83 387.232 237.982 387.623 237.813C388.342 237.499 388.82 237.299 389.288 237.088L389.406 237.021" stroke="#FFCF31" stroke-width="2.70359" stroke-miterlimit="10" stroke-linecap="round"></path> <path d="M341.8 223.226C343.171 228.673 349.464 239.601 349.464 239.601C349.464 239.601 349.86 240.218 350.281 240.835C353.879 246.139 359.626 251.87 359.626 251.87C363.301 255.535 365.696 257.92 369.535 260.654C373.375 263.389 376.613 264.977 381.357 267.295C384.81 269.055 388.387 270.561 392.058 271.803C397.399 273.561 402.878 274.661 403.202 273.828C403.299 273.581 402.94 273.17 402.364 272.636C401.045 271.494 399.829 270.238 398.73 268.883C398.365 268.426 398.01 267.958 397.661 267.47C396.172 265.3 394.881 263.002 393.801 260.603C393.523 260.007 393.261 259.411 393.004 258.804C390.214 253.251 388.385 247.266 387.592 241.102C387.51 240.67 387.432 240.244 387.355 239.817C387.237 238.83 387.232 237.982 387.623 237.813C388.342 237.499 388.82 237.299 389.288 237.088L389.406 237.021" stroke="black" stroke-opacity="0.2" stroke-width="2.70359" stroke-miterlimit="10" stroke-linecap="round"></path> <path d="M340.438 174.757C340.486 174.758 340.534 174.772 340.575 174.798C340.616 174.824 340.65 174.86 340.672 174.903C340.695 174.946 340.705 174.994 340.703 175.042C340.701 175.091 340.685 175.138 340.659 175.178C339.715 176.693 339.054 178.367 338.706 180.118C338.367 181.858 338.123 183.615 337.976 185.381C337.935 186.075 337.904 186.779 337.883 187.499C337.817 189.652 337.832 191.898 337.847 194.093C337.847 194.504 337.847 194.967 337.847 195.902C337.847 196.643 337.847 197.3 337.878 197.892C337.909 198.483 337.878 199.002 337.909 199.47C337.909 200.605 337.966 201.777 338.063 202.98C333.139 202.538 328.632 203.659 324.427 205.684C323.481 206.136 322.551 206.635 321.636 207.169C321.095 207.467 320.56 207.77 320.032 208.079C319.596 208.341 319.159 208.593 318.727 208.881C318.295 209.169 317.874 209.441 317.452 209.729C316.722 210.094 315.823 210.993 314.995 211.584C314.594 211.913 314.204 212.258 313.813 212.612C313.423 212.967 313.042 213.327 312.672 213.702C312.415 213.579 312.323 213.455 312.256 212.982C312.256 211.034 312.199 209.066 312.189 207.092C312.189 206.429 312.189 205.771 312.189 205.108C312.189 198.837 313.556 192.531 316.846 187.262C317.082 186.897 317.36 186.512 317.632 186.116C317.905 185.72 318.239 185.304 318.583 184.882C319.916 183.377 321.376 181.99 322.947 180.735C323.461 180.318 324.016 179.917 324.566 179.532C329.192 176.417 334.733 175.245 340.402 174.762L340.438 174.757Z" fill="#3977FE"></path> <path d="M339.914 180.251C340.459 180.179 341.076 180.107 341.713 180.05C342.75 179.976 343.79 179.965 344.828 180.019C345.342 180.019 345.856 180.086 346.37 180.143C352.024 180.965 358.762 183.227 361.481 189.04C361.795 189.61 362.073 190.199 362.314 190.803C363.055 192.625 363.482 194.559 363.578 196.524C363.619 197.156 363.655 197.798 363.671 198.441C363.712 199.736 363.712 201.036 363.712 202.321C363.681 202.805 363.635 203.303 363.568 203.812C363.425 204.927 363.174 206.025 362.817 207.091C362.407 208.307 361.864 209.474 361.198 210.571C360.9 211.085 360.597 211.506 360.304 211.928C357.261 216.4 352.306 220.003 347.022 222.208C346.434 222.453 345.832 222.663 345.218 222.835C344.109 223.159 342.954 223.294 341.8 223.236C341.068 223.189 340.345 223.044 339.652 222.804C338.995 222.643 338.354 222.427 337.735 222.156C334.651 220.83 332.014 218.44 329.722 215.824C329.387 215.423 329.064 215.017 328.755 214.606C327.207 212.566 325.936 210.329 324.977 207.955C324.761 207.231 324.589 206.495 324.463 205.75" stroke="#3977FE" stroke-width="2.70359" stroke-miterlimit="10" stroke-linecap="round"></path> <path d="M339.914 180.251C340.459 180.179 341.076 180.107 341.713 180.05C342.75 179.976 343.79 179.965 344.828 180.019C345.342 180.019 345.856 180.086 346.37 180.143C352.024 180.965 358.762 183.227 361.481 189.04C361.795 189.61 362.073 190.199 362.314 190.803C363.055 192.625 363.482 194.559 363.578 196.524C363.619 197.156 363.655 197.798 363.671 198.441C363.712 199.736 363.712 201.036 363.712 202.321C363.681 202.805 363.635 203.303 363.568 203.812C363.425 204.927 363.174 206.025 362.817 207.091C362.407 208.307 361.864 209.474 361.198 210.571C360.9 211.085 360.597 211.506 360.304 211.928C357.261 216.4 352.306 220.003 347.022 222.208C346.434 222.453 345.832 222.663 345.218 222.835C344.109 223.159 342.954 223.294 341.8 223.236C341.068 223.189 340.345 223.044 339.652 222.804C338.995 222.643 338.354 222.427 337.735 222.156C334.651 220.83 332.014 218.44 329.722 215.824C329.387 215.423 329.064 215.017 328.755 214.606C327.207 212.566 325.936 210.329 324.977 207.955C324.761 207.231 324.589 206.495 324.463 205.75" stroke="black" stroke-opacity="0.4" stroke-width="2.70359" stroke-miterlimit="10" stroke-linecap="round"></path> <path d="M389.437 237.006C394.294 234.369 399.202 232.128 403.078 228.576C403.4 228.253 403.702 227.909 403.982 227.548C404.496 226.88 405.01 225.976 404.553 225.862C402.338 225.287 393.117 226.001 392.217 225.862C392.104 225.862 392.125 225.811 392.299 225.76" stroke="#FFCF31" stroke-width="2.70359" stroke-miterlimit="10" stroke-linecap="round"></path> <path d="M389.437 237.006C394.294 234.369 399.202 232.128 403.078 228.576C403.4 228.253 403.702 227.909 403.982 227.548C404.496 226.88 405.01 225.976 404.553 225.862C402.338 225.287 393.117 226.001 392.217 225.862C392.104 225.862 392.125 225.811 392.299 225.76" stroke="black" stroke-opacity="0.2" stroke-width="2.70359" stroke-miterlimit="10" stroke-linecap="round"></path> <path d="M338.069 202.98C333.145 202.538 328.637 203.658 324.432 205.683C323.487 206.136 322.556 206.634 321.641 207.169C321.1 207.467 320.566 207.77 320.038 208.079C319.601 208.341 319.164 208.593 318.732 208.88C318.301 209.168 317.879 209.441 317.458 209.729C316.728 210.093 315.828 210.993 315.001 211.584C314.6 211.913 314.209 212.257 313.819 212.612C313.428 212.967 313.048 213.326 312.677 213.702C312.42 213.578 312.328 213.455 312.261 212.982C312.261 211.034 312.205 209.065 312.194 207.092C312.194 206.429 312.194 205.771 312.194 205.108C312.194 198.837 313.562 192.53 316.851 187.262C317.088 186.897 317.365 186.512 317.638 186.116C317.91 185.72 318.244 185.304 318.588 184.882C319.921 183.377 321.381 181.989 322.952 180.734C323.466 180.318 324.021 179.917 324.571 179.532C329.197 176.417 334.738 175.245 340.407 174.762C340.456 174.763 340.503 174.777 340.544 174.803C340.585 174.828 340.619 174.865 340.642 174.908C340.664 174.951 340.675 174.999 340.672 175.047C340.67 175.096 340.655 175.143 340.628 175.183C339.685 176.698 339.023 178.372 338.675 180.123C338.347 181.861 338.113 183.617 337.976 185.381C337.935 186.075 337.904 186.779 337.884 187.498C337.817 189.652 337.832 191.898 337.848 194.093C337.848 194.504 337.848 194.967 337.848 195.902C337.848 196.642 337.848 197.3 337.878 197.891C337.909 198.482 337.878 199.002 337.909 199.469C337.909 200.605 337.966 201.777 338.064 202.98C338.346 206.346 338.953 209.893 339.405 213.111C339.539 213.851 339.657 214.498 339.765 215.064C339.904 215.783 339.981 216.148 340.032 216.4C340.125 216.827 340.356 217.942 340.962 220.224C341.183 221.077 341.394 221.848 341.476 222.152C341.559 222.455 341.682 222.861 341.8 223.226" stroke="#3977FE" stroke-width="2.70359" stroke-miterlimit="10" stroke-linecap="round"></path> <path d="M338.069 202.98C333.145 202.538 328.637 203.658 324.432 205.683C323.487 206.136 322.556 206.634 321.641 207.169C321.1 207.467 320.566 207.77 320.038 208.079C319.601 208.341 319.164 208.593 318.732 208.88C318.301 209.168 317.879 209.441 317.458 209.729C316.728 210.093 315.828 210.993 315.001 211.584C314.6 211.913 314.209 212.257 313.819 212.612C313.428 212.967 313.048 213.326 312.677 213.702C312.42 213.578 312.328 213.455 312.261 212.982C312.261 211.034 312.205 209.065 312.194 207.092C312.194 206.429 312.194 205.771 312.194 205.108C312.194 198.837 313.562 192.53 316.851 187.262C317.088 186.897 317.365 186.512 317.638 186.116C317.91 185.72 318.244 185.304 318.588 184.882C319.921 183.377 321.381 181.989 322.952 180.734C323.466 180.318 324.021 179.917 324.571 179.532C329.197 176.417 334.738 175.245 340.407 174.762C340.456 174.763 340.503 174.777 340.544 174.803C340.585 174.828 340.619 174.865 340.642 174.908C340.664 174.951 340.675 174.999 340.672 175.047C340.67 175.096 340.655 175.143 340.628 175.183C339.685 176.698 339.023 178.372 338.675 180.123C338.347 181.861 338.113 183.617 337.976 185.381C337.935 186.075 337.904 186.779 337.884 187.498C337.817 189.652 337.832 191.898 337.848 194.093C337.848 194.504 337.848 194.967 337.848 195.902C337.848 196.642 337.848 197.3 337.878 197.891C337.909 198.482 337.878 199.002 337.909 199.469C337.909 200.605 337.966 201.777 338.064 202.98C338.346 206.346 338.953 209.893 339.405 213.111C339.539 213.851 339.657 214.498 339.765 215.064C339.904 215.783 339.981 216.148 340.032 216.4C340.125 216.827 340.356 217.942 340.962 220.224C341.183 221.077 341.394 221.848 341.476 222.152C341.559 222.455 341.682 222.861 341.8 223.226" stroke="black" stroke-opacity="0.4" stroke-width="2.70359" stroke-miterlimit="10" stroke-linecap="round"></path> <path d="M377.04 217.597C378.068 217.294 379.491 216.852 381.151 216.246C383.667 215.407 386.114 214.376 388.471 213.162C390.558 212.003 392.553 210.685 394.438 209.219C396.309 207.826 397.974 206.377 399.177 205.308C399.28 205.226 399.372 205.138 399.465 205.051" stroke="#3977FE" stroke-width="2.70359" stroke-miterlimit="10" stroke-linecap="round"></path> <path d="M377.04 217.597C378.068 217.294 379.491 216.852 381.151 216.246C383.667 215.407 386.114 214.376 388.471 213.162C390.558 212.003 392.553 210.685 394.438 209.219C396.309 207.826 397.974 206.377 399.177 205.308C399.28 205.226 399.372 205.138 399.465 205.051" stroke="black" stroke-opacity="0.4" stroke-width="2.70359" stroke-miterlimit="10" stroke-linecap="round"></path> <path d="M392.217 225.862C392.104 225.862 392.125 225.811 392.299 225.76C393.111 225.533 401.037 220.831 402.625 219.304C403.093 218.857 403.556 218.379 403.556 218.379C403.864 218.065 404.327 217.577 404.841 216.981C404.841 216.981 405.869 215.829 406.732 214.611C408.5 212.142 409.913 209.438 410.931 206.578C411.394 205.179 412.309 201.833 411.445 202.152C410.284 202.584 410.417 202.455 408.742 203.129C407.414 203.56 406.059 203.904 404.686 204.157C401.875 204.789 399.444 205.483 399.182 205.277C399.115 205.231 399.182 205.138 399.362 204.979C399.541 204.82 399.983 204.419 400.518 203.884L400.934 203.468L401.366 203.021L401.777 202.574C402.264 202.055 402.705 201.494 403.093 200.898C403.417 200.327 403.741 199.757 404.049 199.181C407.693 194.324 408.161 188.47 408.536 182.507C408.536 181.916 408.536 181.32 408.536 180.724C408.536 180.128 408.505 179.547 408.495 178.956C408.418 178.092 408.356 177.439 408.274 176.982C408.192 176.524 408.084 176.278 407.914 176.232C407.662 176.16 407.369 176.514 406.999 177.08C406.814 177.357 406.609 177.691 406.388 178.046C402.733 182.615 398.231 186.666 392.824 189.102C392.253 189.41 391.672 189.703 391.086 189.986C388.108 191.415 385.011 192.581 381.829 193.471C381.264 193.594 380.693 193.697 380.118 193.789C378.419 194.06 376.697 194.163 374.978 194.098C374.464 194.098 374.006 194.098 373.513 194.098C372.783 194.098 372.043 194.057 371.303 194.021C370.563 193.985 369.812 193.938 369.057 193.887C368.83 193.26 368.579 192.643 368.316 192.037C368.054 191.43 367.885 190.885 367.633 190.32C367.43 189.812 367.202 189.314 366.949 188.829C366.692 188.315 366.435 187.863 366.117 187.39C365.798 186.917 365.505 186.362 365.186 185.874C359.728 177.604 350.573 174.181 340.982 174.731M375.538 228.335C376.566 228.36 377.866 228.36 379.388 228.278C381.205 228.183 383.016 227.982 384.81 227.677C385.396 227.574 386.902 227.194 389.894 226.459C390.711 226.253 391.631 225.996 392.217 225.847L392.464 225.78" stroke="#3977FE" stroke-width="2.70359" stroke-miterlimit="10" stroke-linecap="round"></path> <path d="M392.217 225.862C392.104 225.862 392.125 225.811 392.299 225.76C393.111 225.533 401.037 220.831 402.625 219.304C403.093 218.857 403.556 218.379 403.556 218.379C403.864 218.065 404.327 217.577 404.841 216.981C404.841 216.981 405.869 215.829 406.732 214.611C408.5 212.142 409.913 209.438 410.931 206.578C411.394 205.179 412.309 201.833 411.445 202.152C410.284 202.584 410.417 202.455 408.742 203.129C407.414 203.56 406.059 203.904 404.686 204.157C401.875 204.789 399.444 205.483 399.182 205.277C399.115 205.231 399.182 205.138 399.362 204.979C399.541 204.82 399.983 204.419 400.518 203.884L400.934 203.468L401.366 203.021L401.777 202.574C402.264 202.055 402.705 201.494 403.093 200.898C403.417 200.327 403.741 199.757 404.049 199.181C407.693 194.324 408.161 188.47 408.536 182.507C408.536 181.916 408.536 181.32 408.536 180.724C408.536 180.128 408.505 179.547 408.495 178.956C408.418 178.092 408.356 177.439 408.274 176.982C408.192 176.524 408.084 176.278 407.914 176.232C407.662 176.16 407.369 176.514 406.999 177.08C406.814 177.357 406.609 177.691 406.388 178.046C402.733 182.615 398.231 186.666 392.824 189.102C392.253 189.41 391.672 189.703 391.086 189.986C388.108 191.415 385.011 192.581 381.829 193.471C381.264 193.594 380.693 193.697 380.118 193.789C378.419 194.06 376.697 194.163 374.978 194.098C374.464 194.098 374.006 194.098 373.513 194.098C372.783 194.098 372.043 194.057 371.303 194.021C370.563 193.985 369.812 193.938 369.057 193.887C368.83 193.26 368.579 192.643 368.316 192.037C368.054 191.43 367.885 190.885 367.633 190.32C367.43 189.812 367.202 189.314 366.949 188.829C366.692 188.315 366.435 187.863 366.117 187.39C365.798 186.917 365.505 186.362 365.186 185.874C359.728 177.604 350.573 174.181 340.982 174.731M375.538 228.335C376.566 228.36 377.866 228.36 379.388 228.278C381.205 228.183 383.016 227.982 384.81 227.677C385.396 227.574 386.902 227.194 389.894 226.459C390.711 226.253 391.631 225.996 392.217 225.847L392.464 225.78" stroke="black" stroke-opacity="0.4" stroke-width="2.70359" stroke-miterlimit="10" stroke-linecap="round"></path> <path d="M364.58 242.054C365.886 242.09 367.7 242.1 369.874 242.018C371.674 241.985 373.471 241.847 375.256 241.607C377.297 241.292 379.311 240.82 381.28 240.193C383.202 239.616 385.09 238.929 386.934 238.137C387.782 237.772 388.691 237.376 389.426 237.042H389.457C389.781 236.893 390.069 236.765 390.295 236.646" stroke="#FFCF31" stroke-width="2.70359" stroke-miterlimit="10" stroke-linecap="round"></path> <path d="M364.58 242.054C365.886 242.09 367.7 242.1 369.874 242.018C371.674 241.985 373.471 241.847 375.256 241.607C377.297 241.292 379.311 240.82 381.28 240.193C383.202 239.616 385.09 238.929 386.934 238.137C387.782 237.772 388.691 237.376 389.426 237.042H389.457C389.781 236.893 390.069 236.765 390.295 236.646" stroke="black" stroke-opacity="0.2" stroke-width="2.70359" stroke-miterlimit="10" stroke-linecap="round"></path> <path d="M344.771 197.907C349.415 197.907 353.18 194.142 353.18 189.498C353.18 184.854 349.415 181.089 344.771 181.089C340.127 181.089 336.362 184.854 336.362 189.498C336.362 194.142 340.127 197.907 344.771 197.907Z" fill="#C1E3F1" stroke="#1A171B" stroke-width="2.36436" stroke-miterlimit="10" stroke-linecap="round"></path> <path d="M372.074 197.192C372.213 196.283 372.171 195.355 371.95 194.462C371.729 193.569 371.334 192.728 370.788 191.988C370.242 191.248 369.555 190.623 368.767 190.149C367.978 189.675 367.104 189.361 366.194 189.225L353.36 188.922" stroke="#1A171B" stroke-width="1.99429" stroke-miterlimit="10" stroke-linecap="round"></path> <path d="M344.897 192.578C346.532 192.578 347.857 191.253 347.857 189.618C347.857 187.983 346.532 186.658 344.897 186.658C343.263 186.658 341.938 187.983 341.938 189.618C341.938 191.253 343.263 192.578 344.897 192.578Z" fill="#293883"></path> </svg> 