<?xml version="1.0" encoding="UTF-8"?>
<!DOCTYPE svg PUBLIC "-//W3C//DTD SVG 1.1//EN" "http://www.w3.org/Graphics/SVG/1.1/DTD/svg11.dtd">
<svg xmlns="http://www.w3.org/2000/svg" version="1.1" width="80px" height="86px" style="shape-rendering:geometricPrecision; text-rendering:geometricPrecision; image-rendering:optimizeQuality; fill-rule:evenodd; clip-rule:evenodd" xmlns:xlink="http://www.w3.org/1999/xlink">
<g><path style="opacity:1" fill="#fcfdfe" d="M -0.5,-0.5 C 26.1667,-0.5 52.8333,-0.5 79.5,-0.5C 79.5,28.1667 79.5,56.8333 79.5,85.5C 52.8333,85.5 26.1667,85.5 -0.5,85.5C -0.5,56.8333 -0.5,28.1667 -0.5,-0.5 Z"/></g>
<g><path style="opacity:1" fill="#629de3" d="M 24.5,12.5 C 32.7142,12.6916 38.8809,16.3582 43,23.5C 50.2172,11.5788 59.3838,9.57878 70.5,17.5C 74.7214,21.6176 76.388,26.6176 75.5,32.5C 76.0738,38.1777 74.7405,43.3444 71.5,48C 70.3999,48.4317 69.7332,47.9317 69.5,46.5C 72.3157,39.7658 73.149,32.7658 72,25.5C 65.649,13.9267 57.649,12.5934 48,21.5C 45.9653,24.5612 44.7986,27.8945 44.5,31.5C 43.5,31.5 42.5,31.5 41.5,31.5C 38.9462,16.9734 31.1128,12.9734 18,19.5C 12.9153,27.9857 12.0819,36.9857 15.5,46.5C 15.1758,48.5689 14.3425,48.9023 13,47.5C 10.5941,40.3503 9.92744,33.0169 11,25.5C 13.4424,18.8884 17.9424,14.555 24.5,12.5 Z"/></g>
<g><path style="opacity:1" fill="#5f9ce3" d="M 42.5,42.5 C 44.1439,42.2865 45.6439,42.6198 47,43.5C 48.0248,48.2677 49.3582,52.9343 51,57.5C 51.7922,55.4127 52.9588,53.5793 54.5,52C 62.4931,51.5003 70.4931,51.3336 78.5,51.5C 78.5,52.5 78.5,53.5 78.5,54.5C 70.8045,54.1692 63.1378,54.5025 55.5,55.5C 54.6999,58.1332 53.1999,60.1332 51,61.5C 49.3468,61.1802 48.3468,60.1802 48,58.5C 47.163,54.2857 45.8296,50.2857 44,46.5C 42.0797,49.3388 40.4131,52.3388 39,55.5C 38.4387,56.0219 37.772,56.3552 37,56.5C 34.5655,54.9928 32.5655,52.9928 31,50.5C 29.8333,51.6667 28.6667,52.8333 27.5,54C 20.8417,54.4996 14.175,54.6663 7.5,54.5C 7.5,53.5 7.5,52.5 7.5,51.5C 13.8421,51.6662 20.1754,51.4995 26.5,51C 27.3462,48.8204 28.8462,47.3204 31,46.5C 33.5089,47.8288 35.3422,49.8288 36.5,52.5C 38.5113,49.1389 40.5113,45.8056 42.5,42.5 Z"/></g>
<g><path style="opacity:1" fill="#669fe4" d="M 20.5,57.5 C 26.5574,63.0543 32.5574,68.8876 38.5,75C 40.01,75.8498 41.51,76.6831 43,77.5C 50.1543,71.679 56.6543,65.179 62.5,58C 63.4835,57.4092 64.1501,57.7425 64.5,59C 59.0183,68.1476 51.8516,75.6476 43,81.5C 34.0954,75.932 26.4288,68.932 20,60.5C 19.5304,59.4232 19.6971,58.4232 20.5,57.5 Z"/></g>
</svg>
