<?xml version="1.0" encoding="UTF-8"?> <svg xmlns="http://www.w3.org/2000/svg" width="624" height="623" viewBox="0 0 624 623" fill="none"> <path d="M538.23 195.32C539.824 196.57 554.609 192.194 571.706 188.506C580.055 186.969 588.294 184.881 596.367 182.255C606.431 178.16 605.744 178.942 612.808 176.316C617.965 174.378 612.401 194.726 609.682 203.228C603.489 220.623 594.894 237.067 584.146 252.081C578.77 259.489 572.643 266.49 572.643 266.49C569.518 270.116 566.705 273.085 564.829 274.992C564.829 274.992 562.016 277.899 559.172 280.618C549.42 289.995 501.317 318.501 496.378 319.876C495.316 320.188 495.191 320.376 495.878 320.501C501.348 321.408 557.422 317.063 570.893 320.501C573.581 321.189 570.456 326.752 567.424 330.753C565.72 332.948 563.883 335.036 561.923 337.004C538.293 358.602 508.506 372.23 478.969 388.264H478.781L478.062 388.671C475.218 389.952 472.311 391.171 467.935 393.078C465.56 394.109 465.591 399.329 466.31 405.268C466.779 407.862 467.247 410.457 467.748 413.082C472.568 450.564 483.696 486.959 500.66 520.728C502.223 524.417 503.786 528.042 505.505 531.668C512.071 546.258 519.927 560.233 528.979 573.426C531.104 576.552 533.261 579.24 535.48 582.022C542.164 590.259 549.559 597.894 557.578 604.839C561.079 607.964 563.267 610.59 562.673 612.09C560.704 617.154 527.384 610.465 494.909 599.775C472.583 592.225 450.833 583.064 429.834 572.364C400.984 558.267 381.668 548.828 357.945 531.98C334.221 515.133 320.031 500.724 297.683 478.564C297.683 478.564 262.769 443.713 240.859 411.457C238.296 407.706 235.889 403.955 235.889 403.955C235.889 403.955 233.607 400.423 231.388 396.797C225.418 387.108 200.444 339.536 189.286 304.373C196.302 304.729 203.328 303.905 210.071 301.935C213.803 300.889 217.467 299.615 221.042 298.122C253.174 284.775 283.305 262.865 301.808 235.609C303.59 233.046 305.434 230.327 307.247 227.358C311.296 220.687 314.598 213.591 317.093 206.197C319.26 199.715 320.789 193.036 321.656 186.256C322.062 183.13 322.344 180.004 322.531 177.191C322.531 169.377 322.531 161.563 322.281 153.593C322.281 149.686 321.969 145.779 321.719 141.934C321.135 129.988 318.535 118.226 314.03 107.146C312.564 103.471 310.873 99.891 308.966 96.4252C292.432 61.0119 251.33 47.3217 217.073 42.3207C213.947 41.9769 210.822 41.6956 207.696 41.5706C201.384 41.2422 195.058 41.3049 188.755 41.7581C184.879 42.102 181.128 42.5396 177.815 42.9772L170.376 42.1645C172.491 31.5177 176.515 21.3414 182.253 12.1273C182.415 11.8804 182.508 11.5948 182.522 11.3001C182.536 11.0054 182.471 10.7123 182.334 10.451C182.197 10.1897 181.993 9.9697 181.742 9.81381C181.492 9.65792 181.204 9.5718 180.909 9.56428L184.035 9.34546C242.359 6.00105 298.026 26.8177 331.22 77.1089C333.158 80.0783 335.065 83.1414 336.878 86.3295C338.691 89.5177 340.379 92.1119 341.941 95.0812C343.479 98.0307 344.866 101.056 346.098 104.146C347.63 107.584 349.005 111.053 350.256 114.585C351.506 118.117 353.381 122.024 354.756 125.837C359.351 126.15 363.883 126.431 368.415 126.65C372.948 126.869 377.417 127.025 381.856 127.119C384.981 127.119 387.794 127.119 390.764 127.119C401.219 127.517 411.687 126.889 422.02 125.244C425.52 124.681 428.99 124.056 432.428 123.306C451.815 117.924 470.693 110.854 488.846 102.176C492.409 100.457 495.941 98.6757 499.41 96.8003C532.292 81.9848 559.672 57.3549 581.895 29.5681C583.239 27.4115 584.49 25.38 585.615 23.6921C587.865 20.254 589.647 18.0972 591.178 18.5348C592.21 18.8161 592.866 20.379 593.366 23.0983C593.866 25.8176 594.241 29.8495 594.71 35.1006C594.71 38.695 594.71 42.2895 594.96 45.8527C595.21 49.4159 594.96 53.1042 594.96 56.6987C592.554 92.9559 589.834 128.588 567.674 158.094C565.798 161.595 563.829 165.064 561.86 168.533C559.498 172.159 556.82 175.568 553.858 178.723L551.358 181.442L548.732 184.161L546.201 186.693C543.075 189.819 540.168 192.538 539.168 193.351C538.168 194.163 537.887 194.976 538.23 195.32Z" fill="#5199FF"></path> <path d="M166.469 181.255C165.875 173.941 165.532 166.815 165.532 159.907C165.532 157.063 165.532 153.906 165.344 150.311C165.156 146.717 165.344 142.716 165.156 138.215C165.156 132.527 165.156 129.714 165.156 127.213C165.156 113.867 164.969 100.208 165.375 87.1114C165.375 82.7356 165.688 78.4535 165.938 74.2339C166.83 63.4711 168.312 52.7654 170.376 42.165L177.721 42.9777C181.035 42.5401 184.785 42.1025 188.661 41.7586C194.965 41.3054 201.291 41.2427 207.602 41.5711C210.728 41.5711 213.854 41.9774 216.979 42.3212C251.361 47.3222 292.338 61.0749 308.873 96.4257C310.78 99.8915 312.471 103.472 313.936 107.147C318.442 118.226 321.042 129.988 321.625 141.935C321.875 145.779 322.094 149.686 322.188 153.593C322.438 161.47 322.438 169.378 322.438 177.192C322.25 180.13 321.969 183.162 321.563 186.256C320.695 193.036 319.167 199.715 316.999 206.198C314.504 213.591 311.202 220.687 307.153 227.358C305.341 230.484 303.497 233.047 301.715 235.61C283.211 262.803 253.08 284.713 220.949 298.122C217.373 299.616 213.709 300.889 209.978 301.935C203.235 303.906 196.209 304.73 189.193 304.373C188.474 302.154 187.817 299.935 187.223 297.841C186.63 295.747 185.442 291.308 184.098 286.12C180.41 272.086 179.003 265.459 178.44 262.865C178.128 261.333 177.659 259.114 176.815 254.738C176.159 251.3 175.44 247.362 174.627 242.861C171.877 223.451 168.188 201.728 166.469 181.255Z" fill="#E5F0FF"></path> <path d="M498.529 319C381.029 358.5 291.529 307 191.529 307C221.529 390 339.929 581.2 557.529 610C509.529 569.2 475.863 450 465.029 395.5C521.529 369 574.529 325 567.029 319C561.029 314.2 518.863 317 498.529 319Z" fill="#FFD600"></path> <path d="M187.223 297.84C187.817 299.934 188.473 302.153 189.192 304.372C184.738 304.09 180.344 303.207 176.127 301.747C172.135 300.769 168.235 299.451 164.468 297.809C145.714 289.744 129.68 275.21 115.74 259.301C113.708 256.863 111.739 254.394 109.864 251.893C100.447 239.489 92.7216 225.888 86.8903 211.447C85.5745 207.046 84.5307 202.568 83.7646 198.039V197.695C109.332 185.38 136.9 178.566 166.687 181.254C168.406 201.727 172.095 223.294 174.845 242.86C175.658 247.361 176.377 251.299 177.033 254.737C177.877 259.113 178.346 261.332 178.659 262.864C179.221 265.458 180.628 272.241 184.316 286.119C185.441 291.307 186.723 295.996 187.223 297.84Z" fill="#1771F1"></path> <path d="M187.223 297.84C187.817 299.934 188.473 302.153 189.192 304.372C184.738 304.09 180.344 303.207 176.127 301.747C172.135 300.769 168.235 299.451 164.468 297.809C145.714 289.744 129.68 275.21 115.74 259.301C113.708 256.863 111.739 254.394 109.864 251.893C100.447 239.489 92.7216 225.888 86.8903 211.447C85.5745 207.046 84.5307 202.568 83.7646 198.039V197.695C109.332 185.38 136.9 178.566 166.687 181.254C168.406 201.727 172.095 223.294 174.845 242.86C175.658 247.361 176.377 251.299 177.033 254.737C177.877 259.113 178.346 261.332 178.659 262.864C179.221 265.458 180.628 272.241 184.316 286.119C185.441 291.307 186.723 295.996 187.223 297.84Z" fill="#1771F1"></path> <path d="M189.191 304.373C197.529 337.5 235.794 403.955 235.794 403.955C235.794 403.955 238.201 407.706 240.764 411.457C262.644 443.713 297.588 478.564 297.588 478.564C319.936 500.85 334.502 515.352 357.85 531.981C381.198 548.609 400.89 558.267 429.739 572.364C450.739 583.064 472.488 592.226 494.815 599.776C527.29 610.465 560.609 617.154 562.578 612.09C563.172 610.59 560.984 608.09 557.483 604.839C549.464 597.895 542.069 590.26 535.385 582.022C533.166 579.24 531.009 576.396 528.884 573.426C519.832 560.233 511.977 546.258 505.411 531.668C503.723 528.042 502.129 524.417 500.566 520.728C483.602 486.96 472.474 450.564 467.653 413.082C467.153 410.457 466.684 407.862 466.215 405.268C465.496 399.267 465.465 394.11 467.841 393.078C472.216 391.172 475.123 389.952 477.968 388.671L478.686 388.265" stroke="#FFD600" stroke-width="16.4408" stroke-miterlimit="10" stroke-linecap="round"></path> <path d="M189.191 304.373C197.529 337.5 235.794 403.955 235.794 403.955C235.794 403.955 238.201 407.706 240.764 411.457C262.644 443.713 297.588 478.564 297.588 478.564C319.936 500.85 334.502 515.352 357.85 531.981C381.198 548.609 400.89 558.267 429.739 572.364C450.739 583.064 472.488 592.226 494.815 599.776C527.29 610.465 560.609 617.154 562.578 612.09C563.172 610.59 560.984 608.09 557.483 604.839C549.464 597.895 542.069 590.26 535.385 582.022C533.166 579.24 531.009 576.396 528.884 573.426C519.832 560.233 511.977 546.258 505.411 531.668C503.723 528.042 502.129 524.417 500.566 520.728C483.602 486.96 472.474 450.564 467.653 413.082C467.153 410.457 466.684 407.862 466.215 405.268C465.496 399.267 465.465 394.11 467.841 393.078C472.216 391.172 475.123 389.952 477.968 388.671L478.686 388.265" stroke="black" stroke-opacity="0.2" stroke-width="16.4408" stroke-miterlimit="10" stroke-linecap="round"></path> <path d="M180.909 9.62695C181.204 9.63447 181.492 9.7206 181.742 9.87648C181.993 10.0324 182.197 10.2524 182.334 10.5137C182.471 10.775 182.536 11.0681 182.522 11.3628C182.507 11.6575 182.415 11.9429 182.253 12.1898C176.515 21.4039 172.491 31.5803 170.376 42.2272C168.313 52.8069 166.832 63.4917 165.937 74.2335C165.687 78.4531 165.5 82.7352 165.375 87.111C164.968 100.207 165.062 113.866 165.156 127.213C165.156 129.713 165.156 132.526 165.156 138.215C165.156 142.716 165.156 146.717 165.344 150.311C165.531 153.905 165.344 157.062 165.531 159.907C165.531 166.814 165.875 173.941 166.469 181.255C136.525 178.567 109.114 185.381 83.546 197.696C77.7949 200.446 72.1375 203.478 66.5739 206.729C63.2816 208.541 60.031 210.385 56.822 212.261C54.1652 213.855 51.5084 215.386 48.8829 217.137C46.2574 218.887 43.6944 220.544 41.1314 222.294C36.693 224.513 31.2231 229.983 26.1909 233.578C23.7529 235.578 21.3774 237.672 19.002 239.829C16.6265 241.986 14.3135 244.173 12.0631 246.455C10.5003 245.705 9.93766 244.955 9.53133 242.079C9.53133 230.233 9.18751 218.262 9.125 206.26C9.125 202.228 9.125 198.227 9.125 194.195C9.125 156.062 17.4392 117.711 37.4431 85.6732C38.8809 83.454 40.5688 81.1098 42.2253 78.7031C43.8819 76.2964 45.9136 73.7645 48.0077 71.2015C56.1145 62.0491 64.9926 53.6101 74.5443 45.9778C77.6699 43.446 81.0455 41.0081 84.39 38.6639C112.521 19.7226 146.215 12.5961 180.69 9.65805L180.909 9.62695Z" fill="#1771F1"></path> <path d="M177.721 43.0402C181.034 42.6026 184.785 42.165 188.66 41.8211C194.964 41.3679 201.29 41.3052 207.602 41.6336C210.727 41.6336 213.853 42.0399 216.979 42.3837C251.36 47.3847 292.337 61.1374 308.872 96.4882C310.779 99.954 312.47 103.534 313.935 107.209C318.441 118.289 321.041 130.051 321.624 141.997C321.874 145.842 322.093 149.749 322.187 153.656C322.437 161.532 322.437 169.44 322.437 177.254C322.25 180.192 321.968 183.224 321.562 186.319C320.695 193.099 319.166 199.778 316.999 206.26C314.503 213.654 311.202 220.75 307.153 227.421C305.34 230.546 303.496 233.109 301.714 235.672C283.211 262.865 253.08 284.776 220.948 298.185C217.372 299.678 213.709 300.952 209.977 301.998C203.234 303.968 196.208 304.792 189.192 304.436C184.738 304.153 180.344 303.27 176.127 301.81C172.135 300.832 168.235 299.515 164.468 297.872C145.714 289.808 129.68 275.274 115.74 259.364C113.708 256.926 111.739 254.457 109.864 251.957C100.447 239.553 92.7216 225.951 86.8903 211.511C85.5745 207.11 84.5307 202.632 83.7646 198.102" stroke="#3977FE" stroke-width="16.4408" stroke-miterlimit="10" stroke-linecap="round"></path> <path d="M177.721 43.0402C181.034 42.6026 184.785 42.165 188.66 41.8211C194.964 41.3679 201.29 41.3052 207.602 41.6336C210.727 41.6336 213.853 42.0399 216.979 42.3837C251.36 47.3847 292.337 61.1374 308.872 96.4882C310.779 99.954 312.47 103.534 313.935 107.209C318.441 118.289 321.041 130.051 321.624 141.997C321.874 145.842 322.093 149.749 322.187 153.656C322.437 161.532 322.437 169.44 322.437 177.254C322.25 180.192 321.968 183.224 321.562 186.319C320.695 193.099 319.166 199.778 316.999 206.26C314.503 213.654 311.202 220.75 307.153 227.421C305.34 230.546 303.496 233.109 301.714 235.672C283.211 262.865 253.08 284.776 220.948 298.185C217.372 299.678 213.709 300.952 209.977 301.998C203.234 303.968 196.208 304.792 189.192 304.436C184.738 304.153 180.344 303.27 176.127 301.81C172.135 300.832 168.235 299.515 164.468 297.872C145.714 289.808 129.68 275.274 115.74 259.364C113.708 256.926 111.739 254.457 109.864 251.957C100.447 239.553 92.7216 225.951 86.8903 211.511C85.5745 207.11 84.5307 202.632 83.7646 198.102" stroke="black" stroke-opacity="0.4" stroke-width="16.4408" stroke-miterlimit="10" stroke-linecap="round"></path> <path d="M478.875 388.17C508.412 372.136 538.262 358.508 561.829 336.91C563.79 334.942 565.627 332.854 567.33 330.659C570.456 326.596 573.581 321.095 570.8 320.407C557.328 316.906 501.254 321.251 495.785 320.407C495.097 320.407 495.222 320.094 496.285 319.782" stroke="#FFD600" stroke-width="16.4408" stroke-miterlimit="10" stroke-linecap="round"></path> <path d="M478.875 388.17C508.412 372.136 538.262 358.508 561.829 336.91C563.79 334.942 565.627 332.854 567.33 330.659C570.456 326.596 573.581 321.095 570.8 320.407C557.328 316.906 501.254 321.251 495.785 320.407C495.097 320.407 495.222 320.094 496.285 319.782" stroke="black" stroke-opacity="0.2" stroke-width="16.4408" stroke-miterlimit="10" stroke-linecap="round"></path> <path d="M166.5 181.255C136.557 178.567 109.145 185.381 83.5773 197.696C77.8262 200.446 72.1688 203.478 66.6052 206.729C63.3128 208.542 60.0622 210.386 56.8532 212.261C54.1965 213.855 51.5397 215.387 48.9142 217.137C46.2886 218.887 43.7256 220.544 41.1626 222.294C36.7242 224.514 31.2544 229.983 26.2221 233.578C23.7842 235.578 21.4087 237.672 19.0332 239.829C16.6577 241.986 14.3448 244.174 12.0943 246.455C10.5315 245.705 9.96891 244.955 9.56258 242.08C9.56258 230.233 9.21876 218.262 9.15625 206.26C9.15625 202.228 9.15625 198.227 9.15625 194.195C9.15625 156.062 17.4704 117.711 37.4744 85.6733C38.9122 83.4541 40.6 81.11 42.2566 78.7033C43.9132 76.2965 45.9448 73.7647 48.039 71.2017C56.1458 62.0493 65.0239 53.6103 74.5755 45.9779C77.7011 43.4462 81.0768 41.0083 84.4212 38.6641C112.552 19.7228 146.246 12.5963 180.722 9.6582C181.017 9.66572 181.304 9.75204 181.555 9.90792C181.805 10.0638 182.009 10.2836 182.146 10.5449C182.283 10.8062 182.348 11.0993 182.334 11.394C182.32 11.6887 182.227 11.9743 182.066 12.2212C176.327 21.4353 172.303 31.6118 170.188 42.2586C168.19 52.8316 166.771 63.5058 165.937 74.2337C165.687 78.4532 165.5 82.7353 165.375 87.1112C164.968 100.208 165.062 113.867 165.156 127.213C165.156 129.713 165.156 132.526 165.156 138.215C165.156 142.716 165.156 146.717 165.344 150.311C165.531 153.906 165.344 157.063 165.531 159.907C165.531 166.814 165.875 173.941 166.469 181.255C168.188 201.728 171.876 223.295 174.627 242.861C175.439 247.362 176.158 251.3 176.815 254.738C177.659 259.114 178.127 261.333 178.44 262.865C179.003 265.459 180.409 272.242 184.097 286.12C185.441 291.308 186.723 295.997 187.223 297.841C187.723 299.685 188.473 302.154 189.192 304.373" stroke="#3977FE" stroke-width="16.4408" stroke-miterlimit="10" stroke-linecap="round"></path> <path d="M166.5 181.255C136.557 178.567 109.145 185.381 83.5773 197.696C77.8262 200.446 72.1688 203.478 66.6052 206.729C63.3128 208.542 60.0622 210.386 56.8532 212.261C54.1965 213.855 51.5397 215.387 48.9142 217.137C46.2886 218.887 43.7256 220.544 41.1626 222.294C36.7242 224.514 31.2544 229.983 26.2221 233.578C23.7842 235.578 21.4087 237.672 19.0332 239.829C16.6577 241.986 14.3448 244.174 12.0943 246.455C10.5315 245.705 9.96891 244.955 9.56258 242.08C9.56258 230.233 9.21876 218.262 9.15625 206.26C9.15625 202.228 9.15625 198.227 9.15625 194.195C9.15625 156.062 17.4704 117.711 37.4744 85.6733C38.9122 83.4541 40.6 81.11 42.2566 78.7033C43.9132 76.2965 45.9448 73.7647 48.039 71.2017C56.1458 62.0493 65.0239 53.6103 74.5755 45.9779C77.7011 43.4462 81.0768 41.0083 84.4212 38.6641C112.552 19.7228 146.246 12.5963 180.722 9.6582C181.017 9.66572 181.304 9.75204 181.555 9.90792C181.805 10.0638 182.009 10.2836 182.146 10.5449C182.283 10.8062 182.348 11.0993 182.334 11.394C182.32 11.6887 182.227 11.9743 182.066 12.2212C176.327 21.4353 172.303 31.6118 170.188 42.2586C168.19 52.8316 166.771 63.5058 165.937 74.2337C165.687 78.4532 165.5 82.7353 165.375 87.1112C164.968 100.208 165.062 113.867 165.156 127.213C165.156 129.713 165.156 132.526 165.156 138.215C165.156 142.716 165.156 146.717 165.344 150.311C165.531 153.906 165.344 157.063 165.531 159.907C165.531 166.814 165.875 173.941 166.469 181.255C168.188 201.728 171.876 223.295 174.627 242.861C175.439 247.362 176.158 251.3 176.815 254.738C177.659 259.114 178.127 261.333 178.44 262.865C179.003 265.459 180.409 272.242 184.097 286.12C185.441 291.308 186.723 295.997 187.223 297.841C187.723 299.685 188.473 302.154 189.192 304.373" stroke="black" stroke-opacity="0.4" stroke-width="16.4408" stroke-miterlimit="10" stroke-linecap="round"></path> <path d="M403.485 270.147C409.737 268.303 418.395 265.615 428.49 261.927C443.787 256.83 458.667 250.56 472.999 243.173C485.694 236.128 497.827 228.113 509.288 219.199C520.665 210.729 530.792 201.915 538.106 195.413C538.731 194.913 539.294 194.382 539.856 193.851" stroke="#3977FE" stroke-width="16.4408" stroke-miterlimit="10" stroke-linecap="round"></path> <path d="M403.485 270.147C409.737 268.303 418.395 265.615 428.49 261.927C443.787 256.83 458.667 250.56 472.999 243.173C485.694 236.128 497.827 228.113 509.288 219.199C520.665 210.729 530.792 201.915 538.106 195.413C538.731 194.913 539.294 194.382 539.856 193.851" stroke="black" stroke-opacity="0.4" stroke-width="16.4408" stroke-miterlimit="10" stroke-linecap="round"></path> <path d="M495.785 320.407C495.097 320.407 495.222 320.095 496.285 319.782C501.223 318.407 549.42 289.808 559.078 280.524C561.923 277.805 564.736 274.898 564.736 274.898C566.611 272.992 569.424 270.022 572.55 266.397C572.55 266.397 578.801 259.395 584.052 251.988C594.8 236.973 603.395 220.529 609.588 203.134C612.401 194.632 617.965 174.285 612.714 176.222C605.65 178.848 606.463 178.066 596.273 182.161C588.2 184.787 579.962 186.875 571.612 188.412C554.515 192.257 539.731 196.476 538.137 195.226C537.73 194.945 538.137 194.382 539.231 193.413C540.325 192.444 543.013 190.006 546.263 186.756L548.795 184.224L551.421 181.505L553.921 178.786C556.883 175.631 559.56 172.221 561.923 168.596C563.892 165.127 565.861 161.657 567.736 158.156C589.897 128.619 592.741 93.0183 595.023 56.7611C595.023 53.1667 595.023 49.541 595.023 45.9153C595.023 42.2896 594.836 38.7576 594.773 35.1632C594.304 29.9121 593.929 25.9425 593.429 23.1607C592.929 20.3789 592.272 18.8787 591.241 18.5974C589.709 18.1598 587.928 20.3164 585.677 23.7546C584.552 25.4424 583.302 27.4741 581.958 29.6308C559.735 57.4175 532.354 82.0475 499.473 96.8629C496.003 98.7383 492.471 100.52 488.908 102.239C470.798 110.931 451.962 118.022 432.616 123.431C429.178 124.181 425.708 124.806 422.207 125.369C411.875 127.014 401.406 127.642 390.951 127.244C387.826 127.244 385.044 127.244 382.043 127.244C377.605 127.244 373.104 126.994 368.603 126.775C364.102 126.556 359.539 126.275 354.944 125.962C353.569 122.149 352.037 118.399 350.443 114.71C348.849 111.022 347.818 107.709 346.286 104.271C345.054 101.181 343.667 98.1557 342.129 95.2062C340.566 92.0806 339.003 89.3301 337.066 86.4545C335.128 83.579 333.346 80.2032 331.408 77.2339C298.214 26.9427 242.547 6.12605 184.223 9.47046M394.357 335.441C400.609 335.598 408.517 335.598 417.768 335.098C428.822 334.519 439.832 333.298 450.744 331.441C454.307 330.816 463.465 328.503 481.656 324.033C486.626 322.783 492.221 321.22 495.784 320.313L497.284 319.907" stroke="#3977FE" stroke-width="16.4408" stroke-miterlimit="10" stroke-linecap="round"></path> <path d="M495.785 320.407C495.097 320.407 495.222 320.095 496.285 319.782C501.223 318.407 549.42 289.808 559.078 280.524C561.923 277.805 564.736 274.898 564.736 274.898C566.611 272.992 569.424 270.022 572.55 266.397C572.55 266.397 578.801 259.395 584.052 251.988C594.8 236.973 603.395 220.529 609.588 203.134C612.401 194.632 617.965 174.285 612.714 176.222C605.65 178.848 606.463 178.066 596.273 182.161C588.2 184.787 579.962 186.875 571.612 188.412C554.515 192.257 539.731 196.476 538.137 195.226C537.73 194.945 538.137 194.382 539.231 193.413C540.325 192.444 543.013 190.006 546.263 186.756L548.795 184.224L551.421 181.505L553.921 178.786C556.883 175.631 559.56 172.221 561.923 168.596C563.892 165.127 565.861 161.657 567.736 158.156C589.897 128.619 592.741 93.0183 595.023 56.7611C595.023 53.1667 595.023 49.541 595.023 45.9153C595.023 42.2896 594.836 38.7576 594.773 35.1632C594.304 29.9121 593.929 25.9425 593.429 23.1607C592.929 20.3789 592.272 18.8787 591.241 18.5974C589.709 18.1598 587.928 20.3164 585.677 23.7546C584.552 25.4424 583.302 27.4741 581.958 29.6308C559.735 57.4175 532.354 82.0475 499.473 96.8629C496.003 98.7383 492.471 100.52 488.908 102.239C470.798 110.931 451.962 118.022 432.616 123.431C429.178 124.181 425.708 124.806 422.207 125.369C411.875 127.014 401.406 127.642 390.951 127.244C387.826 127.244 385.044 127.244 382.043 127.244C377.605 127.244 373.104 126.994 368.603 126.775C364.102 126.556 359.539 126.275 354.944 125.962C353.569 122.149 352.037 118.399 350.443 114.71C348.849 111.022 347.818 107.709 346.286 104.271C345.054 101.181 343.667 98.1557 342.129 95.2062C340.566 92.0806 339.003 89.3301 337.066 86.4545C335.128 83.579 333.346 80.2032 331.408 77.2339C298.214 26.9427 242.547 6.12605 184.223 9.47046M394.357 335.441C400.609 335.598 408.517 335.598 417.768 335.098C428.822 334.519 439.832 333.298 450.744 331.441C454.307 330.816 463.465 328.503 481.656 324.033C486.626 322.783 492.221 321.22 495.784 320.313L497.284 319.907" stroke="black" stroke-opacity="0.4" stroke-width="16.4408" stroke-miterlimit="10" stroke-linecap="round"></path> <path d="M328.029 418.832C335.949 419.057 346.956 419.121 360.146 418.607C371.067 418.399 381.968 417.54 392.793 416.034C405.178 414.069 417.397 411.112 429.337 407.19C440.999 403.579 452.45 399.284 463.637 394.326C468.782 392.043 474.301 389.567 478.76 387.476H478.947C480.911 386.544 482.657 385.74 484.029 385" stroke="#FFD600" stroke-width="16.4408" stroke-miterlimit="10" stroke-linecap="round"></path> <path d="M328.029 418.832C335.949 419.057 346.956 419.121 360.146 418.607C371.067 418.399 381.968 417.54 392.793 416.034C405.178 414.069 417.397 411.112 429.337 407.19C440.999 403.579 452.45 399.284 463.637 394.326C468.782 392.043 474.301 389.567 478.76 387.476H478.947C480.911 386.544 482.657 385.74 484.029 385" stroke="black" stroke-opacity="0.2" stroke-width="16.4408" stroke-miterlimit="10" stroke-linecap="round"></path> <path d="M207.258 150.405C235.499 150.405 258.393 127.511 258.393 99.2699C258.393 71.0288 235.499 48.1348 207.258 48.1348C179.017 48.1348 156.123 71.0288 156.123 99.2699C156.123 127.511 179.017 150.405 207.258 150.405Z" fill="#E5F0FF" stroke="#1A171B" stroke-width="14.3779" stroke-miterlimit="10" stroke-linecap="round"></path> <path d="M373.291 146.061C374.134 140.531 373.877 134.889 372.535 129.458C371.192 124.028 368.792 118.916 365.47 114.415C362.148 109.914 357.97 106.113 353.176 103.23C348.383 100.347 343.067 98.4384 337.534 97.6137L259.487 95.7695" stroke="#1A171B" stroke-width="12.1274" stroke-miterlimit="10" stroke-linecap="round"></path> <path d="M208.029 118C217.97 118 226.029 109.941 226.029 100C226.029 90.0589 217.97 82 208.029 82C198.088 82 190.029 90.0589 190.029 100C190.029 109.941 198.088 118 208.029 118Z" fill="#293883"></path> </svg> 