<?xml version="1.0" encoding="UTF-8"?> <svg xmlns="http://www.w3.org/2000/svg" width="24" height="24" viewBox="0 0 24 24" fill="none"> <path d="M22.9389 5.61734H9.7768C9.57467 5.61734 9.39792 5.49148 9.32215 5.31541L8.64 3.65444C8.48845 3.25175 8.08421 3.00018 7.65474 3.00018L1.06105 3C0.480045 3 0 3.47819 0 4.05695V20.943C0 21.5218 0.480045 22 1.06105 22H22.9389C23.52 22 24 21.5218 24 20.943V6.67417C24 6.09541 23.52 5.61722 22.9389 5.61722L22.9389 5.61734ZM8.43785 16.3379C8.74095 16.6398 8.74095 17.1433 8.43785 17.4703C8.2863 17.6212 8.08417 17.6967 7.88206 17.6967C7.67995 17.6967 7.47781 17.6212 7.32627 17.4703L4.19373 14.3498C3.89063 14.0479 3.89063 13.5444 4.19373 13.2174L7.32641 10.0969C7.62951 9.79492 8.13492 9.79492 8.4632 10.0969C8.79168 10.3988 8.76631 10.9022 8.4632 11.2293L5.88632 13.7962L8.43785 16.3379ZM13.9452 10.9776L11.5453 17.1935C11.4189 17.5207 11.1158 17.6968 10.8127 17.6968C10.7117 17.6968 10.6106 17.6717 10.5348 17.6464C10.1306 17.4954 9.92846 17.0424 10.0802 16.6146L12.4801 10.3987C12.6317 9.99597 13.1117 9.79464 13.516 9.94577C13.8947 10.0969 14.0968 10.5751 13.9452 10.9776ZM19.8063 14.3499L16.6737 17.4704C16.5222 17.6213 16.3201 17.6968 16.1179 17.6968C15.9158 17.6968 15.7137 17.6213 15.5622 17.4704C15.259 17.1684 15.259 16.665 15.5622 16.338L18.1137 13.7963L15.5622 11.2545C15.259 10.9525 15.259 10.4491 15.5622 10.1221C15.8653 9.82013 16.3707 9.82013 16.6989 10.1221L19.8063 13.2426C20.1095 13.5446 20.1095 14.0478 19.8063 14.35V14.3499Z" fill="white"></path> </svg> 