<?xml version="1.0" encoding="UTF-8"?> <svg xmlns="http://www.w3.org/2000/svg" width="24" height="24" viewBox="0 0 24 24" fill="none"> <path d="M0.311715 12.2239C0.403886 12.3158 0.514267 12.3911 0.63698 12.4454L5.27054 14.4711C5.29251 15.7028 5.66573 16.7577 6.43176 17.5217C7.20497 18.2929 8.27592 18.6657 9.52686 18.6806L11.5856 23.365C11.6398 23.4876 11.7156 23.5975 11.8077 23.6894C11.9573 23.8385 12.1499 23.9419 12.3634 23.9817C12.7091 24.0464 13.0641 23.9374 13.3124 23.6891L17.5511 19.4617C18.738 18.2779 18.8224 16.4069 17.8091 15.1229C18.4599 14.6005 19.104 14.0254 19.7322 13.3985C24.4655 8.67784 24.0001 0.715027 23.9778 0.379145L23.9558 0.0440562L23.6198 0.0221443C23.2823 -3.48946e-05 15.2986 -0.464461 10.5659 4.25645C9.93414 4.88655 9.35489 5.53239 8.82868 6.18521C7.544 5.23284 5.71588 5.3336 4.55096 6.49545L0.311791 10.7223C0.063154 10.9703 -0.0466986 11.3246 0.0184133 11.6688C0.0588701 11.8823 0.162293 12.0747 0.311791 12.2238L0.311715 12.2239ZM14.6496 4.78176C15.9057 3.52908 17.9491 3.52908 19.2049 4.78176C20.4605 6.03397 20.4605 8.07252 19.2049 9.32473C17.9489 10.5774 15.9055 10.5774 14.6499 9.32473C13.3939 8.07252 13.3939 6.03445 14.6496 4.78176Z" fill="white"></path> <path d="M1.35185 22.6475C1.47558 22.7718 1.66398 22.8014 1.81949 22.7224C2.0228 22.6187 2.54189 22.3798 2.99095 22.2558C3.07728 22.5173 3.20354 22.7402 3.2401 22.802C3.31293 22.9254 3.44482 23 3.58626 23C3.59554 23 3.60566 22.9997 3.61494 22.9992C3.73782 22.9901 6.64153 22.7656 8.09087 21.3102C8.42353 20.9758 8.71093 20.6042 8.94458 20.2048C9.0146 20.0845 9.01881 19.9365 8.95414 19.8128C8.89031 19.6888 8.76714 19.6072 8.62879 19.5962C7.3808 19.4956 6.36512 19.0601 5.61004 18.3018C4.8772 17.5658 4.447 16.5781 4.33168 15.3662C4.31874 15.2272 4.23523 15.105 4.11121 15.0428C3.98692 14.9804 3.83985 14.9866 3.7209 15.0589C3.34465 15.288 2.9954 15.5642 2.68211 15.8788C1.23335 17.3339 1.00983 20.2506 1.00105 20.374C0.99008 20.5265 1.066 20.6728 1.19705 20.751C1.25835 20.7878 1.47994 20.9151 1.74034 21.0013C1.61689 21.452 1.37899 21.974 1.27635 22.1781C1.19818 22.3343 1.22883 22.5241 1.35171 22.6475L1.35185 22.6475Z" fill="white"></path> </svg> 