<?xml version="1.0" encoding="UTF-8"?> <svg xmlns="http://www.w3.org/2000/svg" width="24" height="24" viewBox="0 0 24 24" fill="none"> <path d="M23.1652 9.40764H21.3212C21.0939 8.64891 20.7906 7.91561 20.4118 7.23275L21.7254 5.91766C22.0539 5.58885 22.0539 5.08311 21.7254 4.77969L19.2246 2.276C18.8961 1.94718 18.391 1.94718 18.0625 2.276L16.7489 3.59109C16.0416 3.18642 15.309 2.90823 14.5765 2.68067L14.5767 0.80935C14.5767 0.354232 14.2231 0 13.7683 0H10.2319C9.7773 0 9.42348 0.354042 9.42348 0.80935V2.65543C8.66562 2.85776 7.93315 3.16117 7.22586 3.56584L5.91227 2.25075C5.58383 1.92194 5.07868 1.92194 4.7502 2.25075L2.24937 4.75444C1.92093 5.08326 1.92093 5.58899 2.24937 5.91784L3.56296 7.23294C3.15875 7.94104 2.85566 8.67452 2.65358 9.43306H0.809611C0.355013 9.43306 -0.0239845 9.81233 0.00118575 10.2424V13.7828C0.00118575 14.238 0.354824 14.5922 0.809611 14.5922H2.65358C2.85569 15.3509 3.15874 16.0842 3.56296 16.7671L2.24937 18.0822C1.9463 18.3856 1.9463 18.9167 2.24937 19.2456L4.7502 21.7492C5.05327 22.0527 5.58379 22.0527 5.91227 21.7492L7.22586 20.4342C7.90794 20.8134 8.6658 21.117 9.39826 21.3446V23.1907C9.39826 23.6458 9.7519 24 10.2067 24H13.7431C14.1977 24 14.5767 23.6207 14.5515 23.1907V21.3446C15.0567 21.1929 15.5366 21.0158 16.0166 20.7882L13.0104 17.7532C11.2168 18.082 9.27187 17.5256 7.8825 16.1347C5.60915 13.8587 5.60915 10.1664 7.8825 7.89032C10.1558 5.61437 13.844 5.61437 16.1174 7.89032C17.5068 9.28128 18.0625 11.2032 17.7341 13.0241L20.7907 16.0842C21.018 15.6036 21.1949 15.0979 21.3464 14.5921H23.1904C23.645 14.5921 24.024 14.2129 23.9988 13.7828V10.2424C23.9988 9.76164 23.6199 9.40764 23.1652 9.40764Z" fill="white"></path> <path d="M15.3618 13.3682C15.7519 12.2231 15.4837 10.9076 14.5572 9.98172C13.7526 9.17773 12.6554 8.86092 11.6314 9.05587C11.3632 9.10464 11.2658 9.44572 11.4607 9.64063L12.6066 10.7857C13.1187 11.2974 13.1187 12.1012 12.6066 12.6129C12.0945 13.1247 11.2901 13.1247 10.778 12.6129L9.63208 11.4679C9.43701 11.2729 9.09569 11.3705 9.04689 11.6385C8.87613 12.6618 9.16883 13.7825 9.97343 14.562C10.9 15.4879 12.2165 15.7314 13.3624 15.366L18.5801 20.5798C19.1408 21.1401 20.0431 21.1401 20.5795 20.5798C21.1402 20.0195 21.1402 19.1179 20.5795 18.5819L15.3618 13.3682Z" fill="white"></path> </svg> 