<?xml version="1.0" encoding="UTF-8"?> <svg xmlns="http://www.w3.org/2000/svg" width="24" height="24" viewBox="0 0 24 24" fill="none"> <path d="M15.8976 18.3427V19.2992C15.8976 19.7309 15.7126 20.1237 15.4151 20.4077C15.1176 20.6917 14.7061 20.8683 14.2538 20.8683H10.7468C10.2945 20.8683 9.8831 20.6917 9.58559 20.4077L9.54604 20.3665C9.27192 20.0857 9.10304 19.7093 9.10304 19.2992V18.3427C9.10304 17.5505 8.93438 16.8164 8.60685 16.1593C8.27773 15.4995 7.78698 14.9107 7.14558 14.4135C6.16732 13.6548 5.36858 12.6943 4.82284 11.5996C4.29551 10.5428 4 9.3605 4 8.11396C4 5.87699 4.95166 3.84849 6.49207 2.37783C8.03312 0.907828 10.1574 0 12.5 0C14.8434 0 16.9684 0.908439 18.509 2.37888C20.049 3.84993 21 5.87777 21 8.1139C21 9.36039 20.7045 10.5427 20.1772 11.5996C19.6314 12.694 18.8329 13.6547 17.8544 14.4135C17.2128 14.9106 16.722 15.4994 16.3849 16.1744C16.0601 16.8379 15.8976 17.5623 15.8976 18.3427ZM10.8333 24C10.4734 24 10.1814 23.7212 10.1814 23.3777C10.1814 23.0343 10.4734 22.7555 10.8333 22.7555H14.0316C14.3914 22.7555 14.6834 23.0343 14.6834 23.3777C14.6834 23.7212 14.3914 24 14.0316 24H10.8333ZM10.4784 22.4339C10.1186 22.4339 9.82656 22.1551 9.82656 21.8116C9.82656 21.4682 10.1186 21.1894 10.4784 21.1894H14.3863C14.7461 21.1894 15.0382 21.4682 15.0382 21.8116C15.0382 22.1551 14.7461 22.4339 14.3863 22.4339H10.4784ZM10.8289 2.5628L10.7228 2.59296C10.3784 2.6893 10.1813 3.0345 10.282 3.36342C10.383 3.69214 10.7446 3.88025 11.0892 3.78413L11.1953 3.75397C11.5397 3.65764 11.7367 3.31244 11.636 2.98351C11.5351 2.65479 11.1735 2.46668 10.8289 2.5628ZM9.1435 3.30722C8.60662 3.64894 8.12795 4.07551 7.72721 4.56586C7.33148 5.0508 7.01487 5.59711 6.79667 6.18489C6.67734 6.50818 6.85508 6.86315 7.19375 6.97707C7.53242 7.09098 7.90428 6.92131 8.02363 6.59802C8.19524 6.13479 8.44322 5.70714 8.75098 5.32938C9.06146 4.94902 9.43876 4.6149 9.86632 4.34256C10.1657 4.15228 10.2466 3.76584 10.0473 3.47989C9.84791 3.19414 9.44305 3.11693 9.1435 3.30722Z" fill="white"></path> </svg> 