<?xml version="1.0" encoding="UTF-8"?> <svg xmlns="http://www.w3.org/2000/svg" width="25" height="25" viewBox="0 0 25 25" fill="none"> <path d="M17.0247 0.32959H21.3883C23.1958 0.32959 24.661 2.13708 24.661 3.60233V7.96591C24.661 9.7734 23.1958 11.2387 21.3883 11.2387H17.0247C15.2172 11.2387 13.752 9.43116 13.752 7.96591V3.60233C13.752 1.79484 15.2172 0.32959 17.0247 0.32959Z" fill="white"></path> <path d="M14.2793 17.7181L18.0495 13.9475C18.3565 13.6407 18.7725 13.4683 19.2066 13.4683C19.6406 13.4683 20.0566 13.6407 20.3636 13.9475L24.1342 17.7179H24.134C24.441 18.0247 24.6134 18.441 24.6134 18.8749C24.6134 19.309 24.441 19.7252 24.134 20.032L20.3637 23.8026C20.0567 24.1094 19.6407 24.2818 19.2068 24.2818C18.7727 24.2818 18.3566 24.1094 18.0496 23.8026L14.2792 20.0322C13.9722 19.7253 13.7998 19.3091 13.7998 18.875C13.7998 18.4411 13.9722 18.0248 14.2793 17.7181Z" fill="white"></path> <path d="M3.93387 0.32959H8.29745C10.1049 0.32959 11.5702 2.13708 11.5702 3.60233V7.96591C11.5702 9.7734 10.1049 11.2387 8.29745 11.2387H3.93387C2.12638 11.2387 0.661133 9.43116 0.661133 7.96591V3.60233C0.661133 1.79484 2.12638 0.32959 3.93387 0.32959Z" fill="white"></path> <path d="M3.93387 13.4204H8.29745C10.1049 13.4204 11.5702 15.2279 11.5702 16.6931V21.0567C11.5702 22.8642 10.1049 24.3295 8.29745 24.3295H3.93387C2.12638 24.3295 0.661133 22.522 0.661133 21.0567V16.6931C0.661133 14.8857 2.12638 13.4204 3.93387 13.4204Z" fill="white"></path> </svg> 