<?xml version="1.0" encoding="UTF-8"?> <svg xmlns="http://www.w3.org/2000/svg" width="24" height="24" viewBox="0 0 24 24" fill="none"> <path d="M12.0001 21.6138C9.00848 21.6138 6.2494 20.0921 4.5208 17.6022L6.58169 16.9799L1.62888 12L0 18.9856L2.26028 18.294C4.32141 21.8559 7.97776 23.9999 11.9999 23.9999C16.7867 23.9999 21.108 20.8529 22.8033 16.2189L20.6428 15.3544C19.313 19.0893 15.856 21.6138 12.0001 21.6138V21.6138Z" fill="white"></path> <path d="M11.9997 0.00012344C7.21288 0.00012344 2.89159 3.11239 1.19629 7.78109L3.35685 8.64564C4.68637 4.91078 8.14363 2.38629 11.9995 2.38629C14.9911 2.38629 17.7502 3.90796 19.4788 6.39787L17.4179 7.02022L22.3707 12.0001L23.9996 5.0491L21.7393 5.74068C19.6782 2.14403 16.0219 0 11.9997 0V0.00012344Z" fill="white"></path> </svg> 